<svg width="245" height="56" viewBox="0 0 245 56" fill="none" xmlns="http://www.w3.org/2000/svg">
<path d="M234.074 4.10364L244.333 4.16014C244.333 4.16014 225.26 30.0055 223.702 32.1118C223.057 32.8193 222.498 33.6013 222.038 34.4414C221.195 36.8297 220.528 39.2764 220.042 41.7619L210.655 41.8088C210.655 41.8088 212.116 36.5674 212.055 33.7756C212.003 31.3369 210.757 28.901 210.059 26.4551C209.353 23.979 208.395 19.1341 208.395 19.1341H218.045L219.376 24.4584L234.074 4.10365" fill="white"/>
<path d="M214.648 9.55438C216.541 10.6957 217.703 16.9918 217.703 16.9918C217.703 16.9918 207.797 17.1378 202.406 17.1378H197.747L192.09 41.7619H183.438C183.438 41.7619 188.823 15.0018 190.094 10.1501C190.506 8.57923 192.916 8.84887 196.985 8.84887H203.484C207.68 8.84887 212.585 8.31295 214.648 9.55435V9.55438ZM174.371 21.5469C174.474 20.3379 174.151 19.1309 173.456 18.1359C172.444 16.5755 171.51 16.2125 168.847 16.1292C161.33 15.893 161.476 21.4636 161.476 21.4636L174.371 21.5469ZM182.523 15.1675C183.625 19.1412 181.525 28.4781 181.525 28.4781C181.525 28.4781 170.56 28.2951 164.554 28.4781C162.687 28.5351 160.452 28.275 159.896 29.1438C159.114 30.3612 160.182 32.2353 161.087 33.027C162.129 33.9384 164.158 34.0424 164.887 34.1348C169.762 34.7541 179.964 34.2948 179.964 34.2948L178.197 42.1206C178.197 42.1206 163.78 42.8438 156.568 41.1225C155.181 40.8249 153.909 40.1315 152.908 39.1263C152.661 38.8605 152.448 38.4979 152.215 38.1847C151.827 37.6496 151.502 37.0724 151.244 36.4639C149.597 32.0749 151.437 23.6667 153.241 19.1609C153.45 18.6389 153.713 17.9765 153.99 17.4137C154.335 16.7121 154.628 15.9199 154.904 15.5004C155.09 15.2111 155.32 15.0248 155.514 14.7518C155.738 14.4345 155.979 14.1292 156.235 13.837C156.935 13.0866 157.716 12.417 158.565 11.8408C161.569 9.59083 167.007 7.8441 173.539 8.51269C175.998 8.76557 179.712 9.64395 181.525 12.1732C181.998 13.1192 182.334 14.1275 182.523 15.168V15.1675ZM142.842 8.81822L151.231 8.76889C151.231 8.76889 146.555 30.947 144.173 41.7619H134.522C127.778 41.7619 121.771 42.5972 119.216 37.7685C116.737 33.0802 119.103 25.3703 120.214 20.1322C120.999 16.4252 122.654 8.84844 122.654 8.84844L131.345 8.76893C131.345 8.76893 128.889 20.5651 127.867 26.4551C127.502 28.5648 126.747 30.5514 127.535 32.1113C128.284 33.596 129.332 33.7023 132.526 33.7756C133.538 33.7996 136.852 33.7756 136.852 33.7756L142.842 8.81826V8.81822ZM103.576 24.7908C104.455 21.67 105.736 18.2859 105.573 15.4736C105.438 14.142 104.972 12.8656 104.216 11.7611C103.46 10.6566 102.44 9.75937 101.247 9.15156C99.2998 8.50449 97.211 8.41071 95.2134 8.8807C93.2158 9.35069 91.3879 10.366 89.9333 11.8135C87.5741 14.3691 86.7752 17.3543 85.9399 21.4641C85.3183 24.5149 84.8087 27.7357 85.9399 30.1151C87.9429 34.3216 94.1891 33.403 100.914 33.4432C101.912 30.7678 102.738 27.763 103.576 24.7907V24.7908ZM115.223 12.4792C116.181 19.4468 112.505 27.1376 109.972 33.8254C112.554 34.0587 114.817 33.7895 114.98 33.9821C115.15 34.2316 113.249 41.965 112.587 41.985C110.538 42.0382 103.746 42.0947 100.914 42.0947C91.6733 42.0947 83.0285 42.6967 78.6199 38.1018C76.8421 36.0243 75.6883 33.4863 75.2917 30.7808C74.9261 26.9804 75.2647 23.1451 76.2903 19.4674C77.0022 16.4457 78.1217 13.5349 79.618 10.8149C83.5012 4.03703 90.2561 -0.994188 101.58 0.167232C104.142 0.488806 106.623 1.27826 108.901 2.4963C109.037 2.5763 109.513 2.9556 109.622 3.02217C112.285 4.71617 114.711 8.75887 115.223 12.4792H115.223ZM74.3368 8.85852C73.7779 11.4041 73.219 14.2897 72.6299 16.805H63.3127C64.0344 14.0167 64.5871 11.2446 65.3093 8.81877C68.2907 8.81877 71.0628 8.85853 74.3373 8.85853L74.3368 8.85852ZM62.9798 19.1346H71.9646C70.7898 25.6366 68.4636 36.1248 66.6403 43.4257C65.499 47.9948 64.737 51.3287 61.6488 53.7411C61.3725 53.9575 61.213 53.8546 60.9831 54.0739C60.4141 54.6166 57.7819 55.2459 56.325 55.4049C53.6735 55.554 51.0155 55.5452 48.3651 55.3786C49.1271 52.5936 49.9891 49.2492 50.6683 46.7529C57.7661 47.6122 57.9457 40.9032 59.3198 34.4414C60.1148 30.7076 62.5243 20.6318 62.9798 19.1346" fill="white"/>
<path d="M42.0158 36.1052L41.8233 36.6042C38.5426 42.9932 32.7288 46.9128 24.4365 47.0857C21.0052 47.1324 17.6029 46.4521 14.4535 45.0895C9.33075 42.7297 5.12297 38.7554 2.47479 33.7757C-0.956308 27.1304 -1.5751 17.8865 5.55914 10.9821C5.66929 10.9821 4.69371 12.4793 4.80386 12.4793L4.60751 13.1182C-0.533387 29.2133 15.3055 43.0067 30.7023 41.429C34.9411 40.8939 38.9016 39.0302 42.0158 36.1052" fill="#21609B"/>
<path d="M32.6985 29.4499C36.5721 29.4204 40.2782 27.8663 43.0143 25.1242C40.918 30.4452 34.8485 33.8652 26.7094 32.7776C19.8942 31.8657 13.4022 25.0078 12.7336 18.136C12.2446 13.135 13.9874 10.1502 16.8596 6.52948C16.1072 7.85356 15.6105 9.30733 15.3955 10.815C14.3045 21.6332 24.0374 29.3929 32.6985 29.4499" fill="#21609B"/>
<path d="M42.6249 16.0129C42.0229 17.3942 38.5559 20.0024 37.0247 20.3286C30.9619 21.6203 27.0791 18.7452 25.0451 15.4736C24.6682 14.7793 24.3468 14.0562 24.0839 13.3112C23.2951 10.6292 23.6576 6.57255 26.0106 4.4729C25.3446 6.3395 25.1929 8.35091 25.5715 10.2963C25.9281 11.5378 26.4688 12.7189 27.1754 13.8002C28.0823 15.188 29.3467 16.3055 30.8354 17.0349C31.4161 17.3925 32.0329 17.6879 32.6755 17.9162C34.2028 18.3659 37.4275 19.5503 42.6254 16.0129" fill="#21609B"/>
</svg>
