<svg width="235" height="200" viewBox="0 0 235 200" fill="none" xmlns="http://www.w3.org/2000/svg">
<path d="M0 0H235V200H0V0Z" fill="#F7DF1E"/>
<path d="M45 145.647L62.4141 135.748C65.7776 141.343 68.8298 146.077 76.1621 146.077C83.1917 146.077 87.6187 143.495 87.6187 133.458V65.1694H109.002V133.734C109.002 154.531 96.0318 164 77.0786 164C59.9758 164 50.0495 155.676 45.0086 145.639L45 145.647ZM120.614 143.487L138.019 134.018C142.602 141.051 148.559 146.199 159.1 146.199C167.962 146.199 173.608 142.041 173.608 136.3C173.608 129.413 167.807 126.977 158.045 122.957L152.701 120.805C137.276 114.642 127.038 106.894 127.038 90.5389C127.038 75.4748 139.256 64 158.347 64C171.94 64 181.693 68.4502 188.74 80.063L172.095 90.1085C168.429 83.9367 164.46 81.5004 158.347 81.5004C152.087 81.5004 148.11 85.2279 148.11 90.1085C148.11 96.1342 152.079 98.5704 161.244 102.29L166.588 104.442C184.745 111.751 195 119.214 195 135.999C195 154.076 179.877 163.976 159.549 163.976C139.662 163.976 126.865 155.043 120.64 143.462" fill="black"/>
</svg>
