<svg width="150" height="150" viewBox="0 0 150 150" fill="none" xmlns="http://www.w3.org/2000/svg">
<path d="M8.68764e-05 74.4008C-0.0357088 86.995 10.9927 98.7903 28.4128 105.479C24.8749 124.957 27.689 140.677 37.2188 146.832C47.014 153.159 61.6461 148.855 75.5607 135.418C89.0501 148.406 102.706 153.547 112.262 147.442C122.084 141.166 125.113 124.401 121.592 104.289C139.775 97.6769 149.964 87.6877 150 74.9276C150.035 62.6258 138.983 51.9446 121.798 45.2996C125.71 24.3831 122.489 9.04301 112.564 2.63399C102.996 -3.54504 89.152 1.76259 75.3895 14.9935C61.1505 0.848864 47.4704 -3.50213 37.5201 2.85479C27.9259 8.98417 25.1479 24.9705 28.5852 44.8339C11.716 51.3062 0.0349034 62.1487 8.68764e-05 74.4008Z" fill="white"/>
<path d="M118.406 51.5184C116.989 50.9727 115.561 50.4669 114.121 50.0011C114.363 48.9227 114.587 47.8396 114.793 46.7518C118.089 29.2447 116.007 15.1245 108.772 10.4533C101.836 5.97323 90.4572 10.579 78.9471 21.6438C77.8129 22.7366 76.7041 23.8607 75.6206 25.0161C74.8997 24.243 74.1661 23.4849 73.4198 22.7419C61.4237 10.8244 49.3798 5.7785 42.1263 10.4126C35.171 14.8563 33.0769 28.117 35.9521 44.7294C36.2382 46.3745 36.5618 48.0108 36.9228 49.6382C35.2151 50.171 33.5657 50.7393 31.9875 51.3446C17.8687 56.7614 8.83713 65.2976 8.81188 74.184C8.7858 83.3627 18.4283 92.6029 33.1029 98.2362C34.2928 98.6909 35.4924 99.1124 36.7015 99.5008C36.3035 101.251 35.9496 103.012 35.64 104.784C32.8074 121.088 34.9467 134.049 41.8584 138.514C48.9972 143.124 61.0138 138.454 72.7346 127.136C73.6609 126.241 74.5902 125.295 75.5224 124.297C76.6884 125.556 77.8853 126.778 79.113 127.963C90.404 138.834 101.573 143.247 108.504 138.819C115.663 134.245 118.024 120.338 115.057 103.397C114.831 102.103 114.568 100.782 114.269 99.435C115.113 99.1614 115.94 98.8776 116.749 98.5838C132.037 93.0125 141.998 83.9532 142.025 74.652C142.05 65.7335 132.777 57.0753 118.406 51.5184H118.406Z" fill="#53C1DE"/>
<path d="M115.374 94.7133C114.645 94.9788 113.896 95.2351 113.134 95.4834C111.289 89.0599 109.054 82.7836 106.442 76.6979C108.988 70.7117 111.172 64.5426 112.977 58.2322C114.339 58.6761 115.66 59.1428 116.934 59.6356C129.248 64.3961 136.747 71.3983 136.732 76.7728C136.716 82.4981 128.573 89.9022 115.374 94.7133ZM109.868 106.747C111.18 114.238 111.351 121.007 110.453 126.295C109.646 131.047 108.042 134.211 106.065 135.474C101.859 138.161 92.8912 134.618 83.2359 125.321C82.1287 124.255 81.0153 123.12 79.8956 121.914C83.9468 116.959 87.6924 111.706 91.1066 106.19C97.1789 105.642 103.21 104.63 109.157 103.162C109.425 104.382 109.662 105.577 109.868 106.747ZM54.4585 134.826C50.3524 136.422 47.0855 136.456 45.1147 135.184C40.92 132.475 39.2034 122.067 41.6254 108.125C41.9134 106.477 42.2423 104.839 42.6121 103.211C48.5264 104.645 54.5214 105.632 60.5558 106.163C64.0383 111.684 67.8433 116.944 71.9461 121.91C71.1169 122.796 70.2684 123.66 69.4007 124.5C64.2178 129.505 59.0279 133.049 54.4585 134.826ZM35.3578 94.3969C28.8692 91.9057 23.5139 88.6791 19.8468 85.1662C16.5519 82.0085 14.8924 78.8795 14.8996 76.3449C14.9149 70.9527 22.1665 64.0992 34.2414 59.4664C35.757 58.8875 37.2869 58.3582 38.831 57.8787C40.6038 64.272 42.755 70.528 45.2706 76.6056C42.6885 82.7522 40.4745 89.0817 38.6431 95.5528C37.5397 95.1975 36.4446 94.8121 35.3578 94.3969ZM41.9378 45.6748C39.4744 31.4411 41.1674 20.7168 45.3591 18.039C49.8243 15.1864 59.6671 19.311 70.0247 29.6004C70.6867 30.2582 71.3515 30.9468 72.0174 31.659C67.9148 36.5643 64.1091 41.7666 60.6254 47.2316C54.6448 47.8067 48.7041 48.8118 42.8405 50.2405C42.5051 48.727 42.2042 47.2056 41.9378 45.6748ZM99.3549 61.651C98.0597 59.1455 96.7165 56.672 95.3251 54.2303C99.5741 54.8417 103.644 55.6491 107.465 56.6332C106.225 60.9568 104.79 65.2081 103.165 69.371C101.941 66.7697 100.671 64.1964 99.3549 61.651ZM75.9941 36.1941C78.7553 39.5619 81.3618 43.0826 83.8035 46.7427C78.559 46.4488 73.3108 46.429 68.0588 46.6835C70.6578 42.8983 73.319 39.3826 75.9941 36.1941ZM52.3386 61.5291C51.0246 64.0445 49.764 66.5931 48.5567 69.1746C46.9118 64.799 45.5062 60.4977 44.3601 56.3447C48.1636 55.4123 52.219 54.6537 56.4436 54.082C55.023 56.5283 53.6547 59.0107 52.3386 61.5291ZM56.4364 99.3513C52.3145 98.8394 48.2189 98.0926 44.1658 97.1138C45.3539 92.8956 46.8155 88.5119 48.5208 84.0543C49.7181 86.6456 50.9698 89.2044 52.2757 91.7309C53.6079 94.3075 54.9949 96.8476 56.4364 99.3513ZM75.9208 117.372C73.2328 114.126 70.5528 110.538 67.9361 106.68C70.4862 106.8 73.084 106.865 75.7295 106.875C78.445 106.884 81.1257 106.827 83.7716 106.704C81.3203 110.407 78.7 113.967 75.9208 117.372ZM103.178 84.0189C104.859 88.2785 106.339 92.6323 107.614 97.0627C103.509 98.0732 99.3587 98.8447 95.1809 99.374C96.596 96.8973 97.9664 94.39 99.2921 91.8522C100.639 89.2734 101.935 86.6623 103.178 84.0189ZM94.3712 88.6744C92.3422 92.5644 90.2011 96.3781 87.9479 100.115C83.9946 100.416 79.9098 100.563 75.7475 100.548C71.6024 100.534 67.5702 100.376 63.6877 100.083C61.3987 96.3402 59.2394 92.5055 57.2098 88.5786C55.1913 84.6752 53.3082 80.691 51.5605 76.6257C53.3254 72.5745 55.2255 68.6014 57.2606 64.7063V64.7076C59.2938 60.8144 61.4577 57.0113 63.7522 53.2982C67.715 52.9791 71.7775 52.819 75.8837 52.8335C80.0082 52.8479 84.075 53.0379 88.0347 53.3874C90.2835 57.108 92.4122 60.9133 94.4208 64.8034C96.4394 68.7012 98.3424 72.6689 100.13 76.7065C98.3389 80.7705 96.4189 84.7598 94.3712 88.6744ZM106.312 18.0649C110.764 20.9409 112.466 32.4807 109.621 47.5963C109.434 48.581 109.232 49.5618 109.013 50.5385C103.149 49.0392 97.2018 47.9732 91.2107 47.3475C87.793 41.8519 84.0458 36.6188 79.9946 31.6837C80.9954 30.6179 82.0194 29.5802 83.0668 28.5707C92.9288 19.0896 102.131 15.3649 106.312 18.0649Z" fill="white"/>
<path d="M75.574 62.0449C77.9268 62.0531 80.2246 62.8368 82.1767 64.2968C84.1289 65.7569 85.6478 67.8277 86.5413 70.2474C87.4348 72.6672 87.6628 75.3271 87.1966 77.891C86.7303 80.4548 85.5906 82.8073 83.9217 84.651C82.2528 86.4948 80.1296 87.7469 77.8205 88.2491C75.5115 88.7512 73.1204 88.4809 70.9496 87.4723C68.7788 86.4636 66.9258 84.7619 65.6248 82.5824C64.3239 80.403 63.6336 77.8435 63.6411 75.2279C63.646 73.4912 63.9586 71.7726 64.561 70.1702C65.1633 68.5678 66.0437 67.113 67.1517 65.8888C68.2598 64.6647 69.5739 63.6951 71.019 63.0356C72.4641 62.3761 74.0119 62.0394 75.574 62.0449" fill="#53C1DE"/>
</svg>
