<svg width="150" height="50" viewBox="0 0 150 50" fill="none" xmlns="http://www.w3.org/2000/svg">
<path d="M36.1975 19.1367H33.6633V35.5869H36.1975V30.0059H45.0451V33.5947C45.0451 34.3564 44.9328 35.0449 44.7082 35.6602C44.4836 36.2656 44.1906 36.7734 43.8293 37.1836C43.4777 37.5938 43.0285 37.9502 42.4817 38.2529C41.9348 38.5557 41.383 38.79 40.8264 38.9561C40.2795 39.1221 39.6447 39.2539 38.9221 39.3516C38.1994 39.4492 37.5451 39.5127 36.9592 39.542C36.383 39.5713 35.7287 39.5859 34.9963 39.5859C34.3225 39.5859 33.7072 39.5713 33.1506 39.542C32.594 39.5225 31.9494 39.4639 31.217 39.3662C30.4944 39.2686 29.8498 39.1367 29.2834 38.9707C28.717 38.8047 28.1408 38.5703 27.5549 38.2676C26.969 37.9648 26.4856 37.6084 26.1047 37.1982C25.7238 36.7881 25.4113 36.2754 25.1672 35.6602C24.9231 35.0449 24.801 34.3516 24.801 33.5801V21.041C24.801 20.2891 24.9133 19.6104 25.1379 19.0049C25.3723 18.3896 25.6701 17.877 26.0315 17.4668C26.4026 17.0566 26.8664 16.7002 27.4231 16.3975C27.9797 16.085 28.5363 15.8457 29.093 15.6797C29.6594 15.5137 30.3039 15.3818 31.0266 15.2842C31.7492 15.1768 32.4035 15.1084 32.9895 15.0791C33.5852 15.0498 34.2395 15.0352 34.9524 15.0352C35.7141 15.0352 36.3879 15.0498 36.9738 15.0791C37.5598 15.0986 38.219 15.1572 38.9514 15.2549C39.6936 15.3525 40.3332 15.4844 40.8703 15.6504C41.4172 15.8066 41.9641 16.0361 42.511 16.3389C43.0676 16.6416 43.5168 16.998 43.8586 17.4082C44.2102 17.8184 44.4934 18.3311 44.7082 18.9463C44.9328 19.5615 45.0451 20.2549 45.0451 21.0264V24.6592H36.1975V19.1367Z" fill="#3AD7CD"/>
<path d="M57.1447 39.5713C56.3635 39.5713 55.6799 39.5566 55.094 39.5273C54.508 39.5078 53.844 39.4492 53.1018 39.3516C52.3694 39.2637 51.7346 39.1367 51.1975 38.9707C50.6604 38.8047 50.1184 38.5752 49.5715 38.2822C49.0246 37.9795 48.5754 37.623 48.2238 37.2129C47.882 36.8027 47.6037 36.29 47.3889 35.6748C47.174 35.0498 47.0666 34.3516 47.0666 33.5801V21.041C47.0666 20.2891 47.1789 19.6104 47.4035 19.0049C47.6281 18.3896 47.9211 17.877 48.2824 17.4668C48.6438 17.0566 49.0979 16.7002 49.6447 16.3975C50.2014 16.0947 50.758 15.8604 51.3147 15.6943C51.8713 15.5186 52.5061 15.3818 53.219 15.2842C53.9416 15.1865 54.5959 15.123 55.1819 15.0938C55.7776 15.0645 56.4319 15.0498 57.1447 15.0498C57.8088 15.0498 58.4192 15.0645 58.9758 15.0938C59.5324 15.1133 60.1721 15.1719 60.8947 15.2695C61.6174 15.3672 62.2619 15.499 62.8283 15.665C63.3947 15.8311 63.966 16.0654 64.5422 16.3682C65.1281 16.6709 65.6115 17.0273 65.9924 17.4375C66.383 17.8477 66.7004 18.3604 66.9445 18.9756C67.1887 19.5908 67.3108 20.2793 67.3108 21.041V33.5801C67.3108 34.3516 67.1936 35.0449 66.9592 35.6602C66.7346 36.2754 66.4416 36.7881 66.0803 37.1982C65.719 37.6084 65.2551 37.9648 64.6887 38.2676C64.1223 38.5605 63.5656 38.79 63.0188 38.9561C62.4719 39.1221 61.8274 39.249 61.0852 39.3369C60.343 39.4346 59.6838 39.498 59.1076 39.5273C58.5412 39.5566 57.8869 39.5713 57.1447 39.5713ZM55.9289 35.5576H58.4631V19.0488H55.9289V35.5576Z" fill="#F3F418"/>
<path d="M90.0744 21.3633V33.2432C90.0744 33.8975 90.0061 34.4932 89.8694 35.0303C89.7424 35.5674 89.5422 36.0312 89.2688 36.4219C89.0051 36.8027 88.7072 37.1396 88.3752 37.4326C88.0529 37.7158 87.6574 37.9502 87.1887 38.1357C86.7199 38.3213 86.261 38.4775 85.8117 38.6045C85.3723 38.7217 84.8498 38.8096 84.2444 38.8682C83.6486 38.917 83.1067 38.9512 82.6184 38.9707C82.1301 38.9902 81.5588 39 80.9045 39H69.8303V15.6357H80.9045C81.6467 15.6357 82.3059 15.6504 82.882 15.6797C83.4582 15.709 84.0783 15.7725 84.7424 15.8701C85.4065 15.958 85.9826 16.085 86.4709 16.251C86.9592 16.417 87.4377 16.6465 87.9065 16.9395C88.385 17.2227 88.7707 17.5645 89.0637 17.9648C89.3664 18.3555 89.6106 18.8389 89.7961 19.415C89.9817 19.9912 90.0744 20.6406 90.0744 21.3633ZM78.6926 35.5576H81.2268V19.1074H78.6926V35.5576Z" fill="#DE5327"/>
<path d="M106.437 15.6357V19.2832H101.442V24.9229H106.1V28.585H101.442V35.3232H106.437V39H92.594V15.6357H106.437Z" fill="#6BFF37"/>
<path d="M149.059 21.8167L138.962 5.45407C138.623 4.89985 138.206 4.4415 137.736 4.10539C137.266 3.76928 136.751 3.56203 136.221 3.49555C135.691 3.42907 135.156 3.50468 134.648 3.71804C134.14 3.93139 133.668 4.27827 133.26 4.73874C132.851 5.19921 132.514 5.76419 132.268 6.4012C132.021 7.03821 131.871 7.73468 131.824 8.45057C131.778 9.16646 131.837 9.88765 131.998 10.5727C132.159 11.2577 132.418 11.8931 132.761 12.4423L140.705 25.311L132.761 38.1795C132.418 38.7287 132.158 39.364 131.998 40.0491C131.837 40.7341 131.778 41.4553 131.824 42.1712C131.87 42.8871 132.021 43.5836 132.267 44.2206C132.514 44.8576 132.851 45.4226 133.259 45.883C133.668 46.3435 134.14 46.6904 134.648 46.9037C135.156 47.1171 135.691 47.1927 136.221 47.1262C136.75 47.0597 137.265 46.8525 137.736 46.5164C138.206 46.1803 138.623 45.7219 138.961 45.1677L149.059 28.8049C149.667 27.8255 150 26.5885 150 25.3108C150 24.0331 149.667 22.7961 149.059 21.8167Z" fill="white"/>
<path d="M126.043 0.0734424C125.187 -0.13152 124.302 0.0964345 123.577 0.708306C122.853 1.32018 122.347 2.26711 122.169 3.34557L115.579 45.019C115.493 45.5556 115.492 46.1083 115.576 46.6454C115.66 47.1824 115.827 47.6933 116.067 48.1485C116.308 48.6038 116.617 48.9945 116.977 49.2982C117.337 49.602 117.741 49.8128 118.166 49.9185C118.38 49.9742 118.597 50.0015 118.816 49.9999C119.577 49.9984 120.314 49.6636 120.902 49.0523C121.489 48.441 121.892 47.591 122.04 46.647L128.63 4.97336C128.716 4.43669 128.716 3.88393 128.633 3.34684C128.549 2.80975 128.382 2.29889 128.141 1.84361C127.901 1.38832 127.592 0.997576 127.232 0.693801C126.872 0.390025 126.468 0.179204 126.043 0.0734424Z" fill="white"/>
<path d="M16.7264 4.73332C15.9031 3.80999 14.8425 3.3645 13.7766 3.49426C12.7107 3.62403 11.7263 4.31849 11.0385 5.42577L0.940766 21.7884C0.333049 22.7678 0 24.0048 0 25.2825C0 26.5602 0.333049 27.7972 0.940766 28.7766L11.0385 45.1392C11.3773 45.6934 11.7938 46.1518 12.2642 46.4879C12.7346 46.824 13.2495 47.0313 13.7794 47.0977C14.3093 47.1642 14.8437 47.0886 15.3519 46.8753C15.86 46.6619 16.332 46.315 16.7405 45.8546C17.1491 45.3941 17.4862 44.8291 17.7325 44.1921C17.9789 43.5551 18.1295 42.8586 18.1758 42.1427C18.2222 41.4268 18.1632 40.7056 18.0024 40.0206C17.8417 39.3356 17.5822 38.7002 17.2389 38.151L9.29509 25.2827L17.2391 12.4141C17.9252 11.3036 18.2565 9.87071 18.1604 8.43038C18.0642 6.99006 17.5484 5.66025 16.7264 4.73332Z" fill="#F9F3F0"/>
</svg>
