<svg width="158" height="55" viewBox="0 0 158 55" fill="none" xmlns="http://www.w3.org/2000/svg">
<path d="M42.1172 21.1094H40.0898V34.2695H42.1172V29.8047H49.1953V32.6758C49.1953 33.2852 49.1055 33.8359 48.9258 34.3281C48.7461 34.8125 48.5117 35.2188 48.2227 35.5469C47.9414 35.875 47.582 36.1602 47.1445 36.4023C46.707 36.6445 46.2656 36.832 45.8203 36.9648C45.3828 37.0977 44.875 37.2031 44.2969 37.2812C43.7188 37.3594 43.1953 37.4102 42.7266 37.4336C42.2656 37.457 41.7422 37.4688 41.1562 37.4688C40.6172 37.4688 40.125 37.457 39.6797 37.4336C39.2344 37.418 38.7188 37.3711 38.1328 37.293C37.5547 37.2148 37.0391 37.1094 36.5859 36.9766C36.1328 36.8438 35.6719 36.6562 35.2031 36.4141C34.7344 36.1719 34.3477 35.8867 34.043 35.5586C33.7383 35.2305 33.4883 34.8203 33.293 34.3281C33.0977 33.8359 33 33.2812 33 32.6641V22.6328C33 22.0312 33.0898 21.4883 33.2695 21.0039C33.457 20.5117 33.6953 20.1016 33.9844 19.7734C34.2812 19.4453 34.6523 19.1602 35.0977 18.918C35.543 18.668 35.9883 18.4766 36.4336 18.3438C36.8867 18.2109 37.4023 18.1055 37.9805 18.0273C38.5586 17.9414 39.082 17.8867 39.5508 17.8633C40.0273 17.8398 40.5508 17.8281 41.1211 17.8281C41.7305 17.8281 42.2695 17.8398 42.7383 17.8633C43.207 17.8789 43.7344 17.9258 44.3203 18.0039C44.9141 18.082 45.4258 18.1875 45.8555 18.3203C46.293 18.4453 46.7305 18.6289 47.168 18.8711C47.6133 19.1133 47.9727 19.3984 48.2461 19.7266C48.5273 20.0547 48.7539 20.4648 48.9258 20.957C49.1055 21.4492 49.1953 22.0039 49.1953 22.6211V25.5273H42.1172V21.1094ZM58.875 37.457C58.25 37.457 57.7031 37.4453 57.2344 37.4219C56.7656 37.4062 56.2344 37.3594 55.6406 37.2812C55.0547 37.2109 54.5469 37.1094 54.1172 36.9766C53.6875 36.8438 53.2539 36.6602 52.8164 36.4258C52.3789 36.1836 52.0195 35.8984 51.7383 35.5703C51.4648 35.2422 51.2422 34.832 51.0703 34.3398C50.8984 33.8398 50.8125 33.2812 50.8125 32.6641V22.6328C50.8125 22.0312 50.9023 21.4883 51.082 21.0039C51.2617 20.5117 51.4961 20.1016 51.7852 19.7734C52.0742 19.4453 52.4375 19.1602 52.875 18.918C53.3203 18.6758 53.7656 18.4883 54.2109 18.3555C54.6562 18.2148 55.1641 18.1055 55.7344 18.0273C56.3125 17.9492 56.8359 17.8984 57.3047 17.875C57.7812 17.8516 58.3047 17.8398 58.875 17.8398C59.4062 17.8398 59.8945 17.8516 60.3398 17.875C60.7852 17.8906 61.2969 17.9375 61.875 18.0156C62.4531 18.0938 62.9688 18.1992 63.4219 18.332C63.875 18.4648 64.332 18.6523 64.793 18.8945C65.2617 19.1367 65.6484 19.4219 65.9531 19.75C66.2656 20.0781 66.5195 20.4883 66.7148 20.9805C66.9102 21.4727 67.0078 22.0234 67.0078 22.6328V32.6641C67.0078 33.2812 66.9141 33.8359 66.7266 34.3281C66.5469 34.8203 66.3125 35.2305 66.0234 35.5586C65.7344 35.8867 65.3633 36.1719 64.9102 36.4141C64.457 36.6484 64.0117 36.832 63.5742 36.9648C63.1367 37.0977 62.6211 37.1992 62.0273 37.2695C61.4336 37.3477 60.9062 37.3984 60.4453 37.4219C59.9922 37.4453 59.4688 37.457 58.875 37.457ZM57.9023 34.2461H59.9297V21.0391H57.9023V34.2461ZM85.2188 22.8906V32.3945C85.2188 32.918 85.1641 33.3945 85.0547 33.8242C84.9531 34.2539 84.793 34.625 84.5742 34.9375C84.3633 35.2422 84.125 35.5117 83.8594 35.7461C83.6016 35.9727 83.2852 36.1602 82.9102 36.3086C82.5352 36.457 82.168 36.582 81.8086 36.6836C81.457 36.7773 81.0391 36.8477 80.5547 36.8945C80.0781 36.9336 79.6445 36.9609 79.2539 36.9766C78.8633 36.9922 78.4062 37 77.8828 37H69.0234V18.3086H77.8828C78.4766 18.3086 79.0039 18.3203 79.4648 18.3438C79.9258 18.3672 80.4219 18.418 80.9531 18.4961C81.4844 18.5664 81.9453 18.668 82.3359 18.8008C82.7266 18.9336 83.1094 19.1172 83.4844 19.3516C83.8672 19.5781 84.1758 19.8516 84.4102 20.1719C84.6523 20.4844 84.8477 20.8711 84.9961 21.332C85.1445 21.793 85.2188 22.3125 85.2188 22.8906ZM76.1133 34.2461H78.1406V21.0859H76.1133V34.2461ZM98.3086 18.3086V21.2266H94.3125V25.7383H98.0391V28.668H94.3125V34.0586H98.3086V37H87.2344V18.3086H98.3086Z" fill="black"/>
<path d="M156.449 25.179L139.796 7.1801C139.237 6.57045 138.55 6.06627 137.775 5.69655C136.999 5.32682 136.15 5.09884 135.276 5.02572C134.402 4.9526 133.521 5.03577 132.683 5.27045C131.845 5.50514 131.066 5.88671 130.393 6.39323C129.719 6.89975 129.163 7.52123 128.757 8.22194C128.35 8.92264 128.102 9.68876 128.026 10.4762C127.949 11.2637 128.046 12.057 128.312 12.8106C128.577 13.5641 129.005 14.263 129.571 14.8671L142.671 29.0227L129.57 43.1781C129.004 43.7822 128.576 44.4811 128.311 45.2346C128.046 45.9882 127.949 46.7815 128.025 47.569C128.102 48.3564 128.35 49.1226 128.756 49.8233C129.163 50.524 129.719 51.1454 130.392 51.652C131.066 52.1585 131.844 52.5401 132.682 52.7747C133.52 53.0094 134.402 53.0926 135.276 53.0195C136.149 52.9463 136.999 52.7184 137.774 52.3486C138.55 51.9789 139.237 51.4747 139.796 50.8651L156.449 32.866C157.451 31.7887 158 30.428 158 29.0225C158 27.617 157.451 26.2563 156.449 25.179Z" fill="black"/>
<path d="M120.97 0.0807867C119.347 -0.144672 117.667 0.106078 116.293 0.779136C114.919 1.45219 113.96 2.49383 113.622 3.68012L101.123 49.5209C100.961 50.1112 100.959 50.7192 101.118 51.3099C101.277 51.9007 101.594 52.4626 102.05 52.9634C102.506 53.4641 103.092 53.8939 103.775 54.228C104.458 54.5622 105.224 54.7941 106.03 54.9104C106.435 54.9716 106.848 55.0017 107.263 54.9999C108.706 54.9983 110.104 54.6299 111.219 53.9575C112.334 53.2851 113.097 52.3501 113.378 51.3117L125.877 5.4707C126.039 4.88035 126.041 4.27233 125.882 3.68152C125.723 3.09072 125.406 2.52878 124.95 2.02797C124.494 1.52716 123.908 1.09733 123.225 0.763181C122.542 0.429027 121.776 0.197124 120.97 0.0807867Z" fill="black"/>
<path d="M27.5844 6.38727C26.2267 5.37161 24.4776 4.88156 22.7198 5.02431C20.9619 5.16705 19.3384 5.93096 18.2042 7.14897L1.55147 25.1479C0.549248 26.2252 0 27.5859 0 28.9914C0 30.3969 0.549248 31.7575 1.55147 32.8349L18.2042 50.8338C18.7629 51.4434 19.4498 51.9476 20.2255 52.3173C21.0013 52.687 21.8505 52.915 22.7243 52.9881C23.5982 53.0613 24.4795 52.9781 25.3176 52.7434C26.1556 52.5087 26.9339 52.1272 27.6077 51.6206C28.2815 51.1141 28.8375 50.4926 29.2437 49.7919C29.6499 49.0912 29.8983 48.3251 29.9747 47.5376C30.0511 46.7501 29.9539 45.9568 29.6888 45.2033C29.4236 44.4498 28.9957 43.7509 28.4296 43.1468L15.329 28.9916L28.43 14.8362C29.5613 13.6146 30.1078 12.0384 29.9493 10.454C29.7907 8.86968 28.9401 7.40689 27.5844 6.38727Z" fill="black"/>
</svg>
