<svg width="150" height="200" viewBox="0 0 150 200" fill="none" xmlns="http://www.w3.org/2000/svg">
<path d="M74.9077 200L13.6491 183.953L0 39.3218H150L136.336 183.932L74.9077 200Z" fill="#264DE4"/>
<path d="M124.637 174.73L136.314 51.1547H75.0111V187.7L124.637 174.73Z" fill="#2965F1"/>
<path d="M31.3309 104.772L33.0149 122.507H75.0406V104.772H31.3309ZM27.9482 68.869L29.6543 86.6043H75.0332V68.869H27.9113H27.9482ZM75.0332 150.841H74.952L54.0351 145.503L52.6983 131.354H33.8126L36.442 159.206L74.9077 169.316H74.9963L75.0332 150.841Z" fill="#EBEBEB"/>
<path d="M35.3046 0H58.0457V8.98626H44.8102V17.9725H58.0457V26.9588H35.3046V0ZM62.6323 0H85.3735V7.81414H72.1084V9.37696H85.344V27.3495H62.5954V19.1446H75.8309V17.5818H62.5954V0H62.6323ZM89.9601 0H112.701V7.81414H99.3993V9.37696H112.635V27.3495H89.8863V19.1446H103.122V17.5818H89.8863V0H89.9601Z" fill="white"/>
<path d="M118.588 104.772L121.978 68.869H74.9076V86.6043H101.371L99.6651 104.744H74.9076V122.48H98.0328L95.817 145.503L74.9076 150.855V169.309L113.403 159.227L113.684 156.227L118.115 109.523L118.573 104.758L118.588 104.772Z" fill="white"/>
</svg>
