<svg width="700" height="700" viewBox="0 0 700 700" fill="none" xmlns="http://www.w3.org/2000/svg">
<rect width="700" height="700" rx="350" fill="#F5AA38"/>
<path d="M416.427 254.064L422.567 225L438.532 251.794L464.322 249.523L446.31 271.776L456.135 299.932L430.754 289.033L408.24 305.835L411.515 276.771L389 259.968L416.427 254.064Z" fill="#EE1515" stroke="#E71515"/>
<path d="M442.427 458.064L448.567 429L464.532 455.794L490.322 453.523L472.31 475.776L482.135 503.932L456.754 493.033L434.24 509.835L437.515 480.771L415 463.968L442.427 458.064Z" fill="#EE1515" stroke="#E71515"/>
<path d="M329.427 361.064L335.567 332L351.532 358.794L377.322 356.523L359.31 378.776L369.135 406.932L343.754 396.033L321.24 412.835L324.515 383.771L302 366.968L329.427 361.064Z" fill="#EE1515" stroke="#E71515"/>
<path d="M229.427 468.064L235.567 439L251.532 465.794L277.322 463.523L259.31 485.776L269.135 513.932L243.754 503.033L221.24 519.835L224.515 490.771L202 473.968L229.427 468.064Z" fill="#EE1515" stroke="#E71515"/>
<path d="M229.427 251.064L235.567 222L251.532 248.794L277.322 246.523L259.31 268.776L269.135 296.932L243.754 286.033L221.24 302.835L224.515 273.771L202 256.968L229.427 251.064Z" fill="#EE1515" stroke="#E71515"/>
<ellipse cx="120.171" cy="278.045" rx="50.5" ry="68.5" transform="rotate(38.5184 120.171 278.045)" fill="url(#paint0_linear)"/>
<ellipse cx="261.105" cy="139.481" rx="116" ry="55" transform="rotate(-29.1069 261.105 139.481)" fill="url(#paint1_linear)"/>
<ellipse cx="512.475" cy="229.304" rx="47" ry="113" transform="rotate(-12.0044 512.475 229.304)" fill="url(#paint2_linear)"/>
<ellipse cx="451.558" cy="562.373" rx="76.5736" ry="36.2024" transform="rotate(-34.7233 451.558 562.373)" fill="url(#paint3_linear)"/>
<ellipse cx="558.114" cy="488.789" rx="34" ry="47.3009" transform="rotate(34.0574 558.114 488.789)" fill="url(#paint4_linear)"/>
<defs>
<linearGradient id="paint0_linear" x1="120.171" y1="209.545" x2="120.171" y2="346.545" gradientUnits="userSpaceOnUse">
<stop stop-color="#FCF9F9"/>
<stop offset="1" stop-color="#F5AA38"/>
</linearGradient>
<linearGradient id="paint1_linear" x1="261.105" y1="84.4814" x2="261.105" y2="194.481" gradientUnits="userSpaceOnUse">
<stop stop-color="#EEEAEA"/>
<stop offset="1" stop-color="#F5AA38"/>
</linearGradient>
<linearGradient id="paint2_linear" x1="365.444" y1="254.981" x2="612.886" y2="269.258" gradientUnits="userSpaceOnUse">
<stop offset="0.442708" stop-color="#F5AA38"/>
<stop offset="1" stop-color="#FCF9F9"/>
</linearGradient>
<linearGradient id="paint3_linear" x1="451.558" y1="526.17" x2="451.558" y2="598.575" gradientUnits="userSpaceOnUse">
<stop stop-color="#F5AA38"/>
<stop offset="1" stop-color="#FCF9F9"/>
</linearGradient>
<linearGradient id="paint4_linear" x1="558.114" y1="441.488" x2="558.114" y2="536.09" gradientUnits="userSpaceOnUse">
<stop stop-color="#F5AA38"/>
<stop offset="1" stop-color="#FCF9F9"/>
</linearGradient>
</defs>
</svg>
