<svg width="700" height="700" viewBox="0 0 700 700" fill="none" xmlns="http://www.w3.org/2000/svg">
<rect width="700" height="700" rx="350" fill="#F5AA38"/>
<path d="M329.427 335.064L335.567 306L351.532 332.794L377.322 330.523L359.31 352.776L369.135 380.932L343.754 370.033L321.24 386.835L324.515 357.771L302 340.968L329.427 335.064Z" fill="#EE1515" stroke="#E71515"/>
<path d="M547.427 376.064L553.567 347L569.532 373.794L595.322 371.523L577.31 393.776L587.135 421.932L561.754 411.033L539.24 427.835L542.515 398.771L520 381.968L547.427 376.064Z" fill="#EE1515" stroke="#E71515"/>
<path d="M117.427 365.064L123.567 336L139.532 362.794L165.322 360.523L147.31 382.776L157.135 410.932L131.754 400.033L109.24 416.835L112.515 387.771L90 370.968L117.427 365.064Z" fill="#EE1515" stroke="#E71515"/>
<path d="M230.427 515.064L236.567 486L252.532 512.794L278.322 510.523L260.31 532.776L270.135 560.932L244.754 550.033L222.24 566.835L225.515 537.771L203 520.968L230.427 515.064Z" fill="#EE1515" stroke="#E71515"/>
<ellipse cx="120.171" cy="278.045" rx="50.5" ry="68.5" transform="rotate(38.5184 120.171 278.045)" fill="url(#paint0_linear)"/>
<ellipse cx="261.105" cy="139.481" rx="116" ry="55" transform="rotate(-29.1069 261.105 139.481)" fill="url(#paint1_linear)"/>
<ellipse cx="512.475" cy="229.304" rx="47" ry="113" transform="rotate(-12.0044 512.475 229.304)" fill="url(#paint2_linear)"/>
<ellipse cx="451.558" cy="562.373" rx="76.5736" ry="36.2024" transform="rotate(-34.7233 451.558 562.373)" fill="url(#paint3_linear)"/>
<ellipse cx="558.114" cy="488.789" rx="34" ry="47.3009" transform="rotate(34.0574 558.114 488.789)" fill="url(#paint4_linear)"/>
<path d="M464.427 205.064L470.567 176L486.532 202.794L512.322 200.523L494.31 222.776L504.135 250.932L478.754 240.033L456.24 256.835L459.515 227.771L437 210.968L464.427 205.064Z" fill="#EE1515" stroke="#E71515"/>
<path d="M304.427 163.064L310.567 134L326.532 160.794L352.322 158.523L334.31 180.776L344.135 208.932L318.754 198.033L296.24 214.835L299.515 185.771L277 168.968L304.427 163.064Z" fill="#EE1515" stroke="#E71515"/>
<path d="M426.427 495.064L432.567 466L448.532 492.794L474.322 490.523L456.31 512.776L466.135 540.932L440.754 530.033L418.24 546.835L421.515 517.771L399 500.968L426.427 495.064Z" fill="#EE1515" stroke="#E71515"/>
<defs>
<linearGradient id="paint0_linear" x1="120.171" y1="209.545" x2="120.171" y2="346.545" gradientUnits="userSpaceOnUse">
<stop stop-color="#FCF9F9"/>
<stop offset="1" stop-color="#F5AA38"/>
</linearGradient>
<linearGradient id="paint1_linear" x1="261.105" y1="84.4814" x2="261.105" y2="194.481" gradientUnits="userSpaceOnUse">
<stop stop-color="#EEEAEA"/>
<stop offset="1" stop-color="#F5AA38"/>
</linearGradient>
<linearGradient id="paint2_linear" x1="365.444" y1="254.981" x2="612.886" y2="269.258" gradientUnits="userSpaceOnUse">
<stop offset="0.442708" stop-color="#F5AA38"/>
<stop offset="1" stop-color="#FCF9F9"/>
</linearGradient>
<linearGradient id="paint3_linear" x1="451.558" y1="526.17" x2="451.558" y2="598.575" gradientUnits="userSpaceOnUse">
<stop stop-color="#F5AA38"/>
<stop offset="1" stop-color="#FCF9F9"/>
</linearGradient>
<linearGradient id="paint4_linear" x1="558.114" y1="441.488" x2="558.114" y2="536.09" gradientUnits="userSpaceOnUse">
<stop stop-color="#F5AA38"/>
<stop offset="1" stop-color="#FCF9F9"/>
</linearGradient>
</defs>
</svg>
