<svg width="700" height="700" viewBox="0 0 700 700" fill="none" xmlns="http://www.w3.org/2000/svg">
<rect width="700" height="700" rx="350" fill="#F5AA38"/>
<path d="M339.427 327.064L345.567 298L361.532 324.794L387.322 322.523L369.31 344.776L379.135 372.932L353.754 362.033L331.24 378.835L334.515 349.771L312 332.968L339.427 327.064Z" fill="#EE1515" stroke="#E71515"/>
<path d="M510.427 380.064L516.567 351L532.532 377.794L558.322 375.523L540.31 397.776L550.135 425.932L524.754 415.033L502.24 431.835L505.515 402.771L483 385.968L510.427 380.064Z" fill="#EE1515" stroke="#E71515"/>
<path d="M172.427 368.064L178.567 339L194.532 365.794L220.322 363.523L202.31 385.776L212.135 413.932L186.754 403.033L164.24 419.835L167.515 390.771L145 373.968L172.427 368.064Z" fill="#EE1515" stroke="#E71515"/>
<ellipse cx="120.171" cy="278.045" rx="50.5" ry="68.5" transform="rotate(38.5184 120.171 278.045)" fill="url(#paint0_linear)"/>
<ellipse cx="261.105" cy="139.481" rx="116" ry="55" transform="rotate(-29.1069 261.105 139.481)" fill="url(#paint1_linear)"/>
<ellipse cx="512.475" cy="229.304" rx="47" ry="113" transform="rotate(-12.0044 512.475 229.304)" fill="url(#paint2_linear)"/>
<ellipse cx="451.558" cy="562.373" rx="76.5736" ry="36.2024" transform="rotate(-34.7233 451.558 562.373)" fill="url(#paint3_linear)"/>
<ellipse cx="558.114" cy="488.789" rx="34" ry="47.3009" transform="rotate(34.0574 558.114 488.789)" fill="url(#paint4_linear)"/>
<defs>
<linearGradient id="paint0_linear" x1="120.171" y1="209.545" x2="120.171" y2="346.545" gradientUnits="userSpaceOnUse">
<stop stop-color="#FCF9F9"/>
<stop offset="1" stop-color="#F5AA38"/>
</linearGradient>
<linearGradient id="paint1_linear" x1="261.105" y1="84.4814" x2="261.105" y2="194.481" gradientUnits="userSpaceOnUse">
<stop stop-color="#EEEAEA"/>
<stop offset="1" stop-color="#F5AA38"/>
</linearGradient>
<linearGradient id="paint2_linear" x1="365.444" y1="254.981" x2="612.886" y2="269.258" gradientUnits="userSpaceOnUse">
<stop offset="0.442708" stop-color="#F5AA38"/>
<stop offset="1" stop-color="#FCF9F9"/>
</linearGradient>
<linearGradient id="paint3_linear" x1="451.558" y1="526.17" x2="451.558" y2="598.575" gradientUnits="userSpaceOnUse">
<stop stop-color="#F5AA38"/>
<stop offset="1" stop-color="#FCF9F9"/>
</linearGradient>
<linearGradient id="paint4_linear" x1="558.114" y1="441.488" x2="558.114" y2="536.09" gradientUnits="userSpaceOnUse">
<stop stop-color="#F5AA38"/>
<stop offset="1" stop-color="#FCF9F9"/>
</linearGradient>
</defs>
</svg>
