<svg width="101" height="151" viewBox="0 0 101 151" fill="none" xmlns="http://www.w3.org/2000/svg">
<path d="M26.1704 150.336C32.7997 150.336 39.1574 147.697 43.8451 142.999C48.5327 138.3 51.1661 131.928 51.1661 125.284V99.7432H26.1704C19.5411 99.7432 13.1833 102.383 8.49568 107.081C3.80807 111.779 1.17459 118.151 1.17459 124.796C1.17459 131.44 3.80807 137.812 8.49568 142.511C13.1833 147.209 19.5411 149.848 26.1704 149.848V150.336Z" fill="#0ACF83"/>
<path d="M0.525467 75.3419C0.609627 72.0516 1.33984 68.8102 2.67438 65.8029C4.00893 62.7956 5.92165 60.0813 8.30323 57.8151C10.6848 55.549 13.4886 53.7754 16.5543 52.5958C19.6201 51.4161 22.8877 50.8535 26.1705 50.9401H50.517V99.7438H26.1705C22.8877 99.8304 19.6201 99.2678 16.5543 98.0881C13.4886 96.9085 10.6848 95.1349 8.30323 92.8687C5.92165 90.6026 4.00893 87.8883 2.67438 84.881C1.33984 81.8737 0.609627 78.6322 0.525467 75.3419Z" fill="#A259FF"/>
<path d="M0.525445 25.2348C0.545908 21.9031 1.22922 18.6089 2.53541 15.5451C3.84159 12.4813 5.7444 9.70943 8.13247 7.39168C10.5205 5.07393 13.3459 3.25689 16.4431 2.0469C19.5404 0.836914 22.8474 0.258288 26.1705 0.344891H50.517V50.9381H26.1705C22.7784 51.0276 19.4036 50.424 16.2518 49.164C13.1001 47.9039 10.2373 46.0139 7.83788 43.6091C5.43849 41.2042 3.55274 38.3349 2.29557 35.176C1.0384 32.017 0.436133 28.6346 0.525445 25.2348Z" fill="#F24E1E"/>
<path d="M50.517 0.344482H74.8636C81.5574 0.344482 87.9771 3.00965 92.7104 7.75368C97.4437 12.4977 100.103 18.932 100.103 25.6411C100.103 32.3502 97.4437 38.7845 92.7104 43.5285C87.9771 48.2725 81.5574 50.9377 74.8636 50.9377H50.517V0.344482Z" fill="#FF7262"/>
<path d="M100.509 75.3419C100.635 80.2945 99.294 85.1736 96.6544 89.3623C94.0148 93.5509 90.1954 96.8612 85.679 98.8745C81.1626 100.888 76.152 101.514 71.2807 100.673C66.4093 99.833 61.896 97.5639 58.3112 94.1528C54.7264 90.7418 52.2311 86.3421 51.1408 81.5099C50.0506 76.6777 50.4142 71.63 52.1858 67.0049C53.9574 62.3798 57.0574 58.3851 61.094 55.5256C65.1305 52.6661 69.9223 51.0704 74.8635 50.9401C78.1463 50.8535 81.4139 51.4161 84.4797 52.5958C87.5454 53.7754 90.3492 55.549 92.7308 57.8151C95.1124 60.0813 97.0251 62.7956 98.3596 65.8029C99.6942 68.8102 100.424 72.0516 100.509 75.3419V75.3419Z" fill="#1ABCFE"/>
</svg>
