<svg width="150" height="200" viewBox="0 0 150 200" fill="none" xmlns="http://www.w3.org/2000/svg">
<g id="HTML5">
<path id="Vector" d="M150 39.3054L136.333 183.905L74.9059 200L13.6486 183.905L0 39.3054H150Z" fill="#E44D26"/>
<path id="Vector_2" d="M75 187.569L124.635 174.575L136.293 51H75V187.569Z" fill="#F16529"/>
<path id="Vector_3" d="M48.4337 86.6074H74.9955V68.8691H27.916L28.3643 73.6298L32.9826 122.507H75.0045V104.769H50.1554L48.4337 86.6074ZM52.7022 131.377H33.8704L36.4979 159.229L74.9148 169.344H75.0045V150.834H74.9238L54.0115 145.498L52.7022 131.377Z" fill="#EBEBEB"/>
<path id="Vector_4" d="M13.9625 0H23.5039V8.90302H32.2293V0H41.7708V26.9716H32.2293V17.9415H23.5039V26.9716H13.9625V0ZM54.3164 8.94536H45.9138V0H72.2604V8.94536H63.8578V26.9716H54.3254V8.94536H54.3164ZM76.4483 0H86.4023L92.527 9.47904L98.6429 0H108.597V26.9716H99.0913V13.6044L92.527 23.1936H92.3656L85.7925 13.6044V26.9716H76.4483V0ZM113.341 0H122.882V18.0517H136.333V26.9632H113.368V0H113.341Z" fill="white"/>
<path id="Vector_5" d="M74.9327 122.507H98.0511L95.872 145.515L74.9327 150.851V169.344L113.43 159.263L113.708 156.264L118.12 109.564L118.578 104.803H74.9327V122.541V122.507ZM74.9327 86.565V86.6074H120.291L120.667 82.6176L121.564 73.6214L122.012 68.8607H74.9327V86.5566V86.565Z" fill="white"/>
</g>
</svg>
