<svg width="1171" height="1066" viewBox="0 0 1171 1066" fill="none" xmlns="http://www.w3.org/2000/svg">
<g id="my-svg">
<g id="board">
<path id="Vector" d="M1103.58 0H0V628.763H1103.58V0Z" fill="#3F3D56"/>
<path id="Vector_2" d="M209.233 88.834H199.502V104.023H209.233V88.834Z" fill="#6C63FF"/>
<path id="Vector_3" d="M242.321 84.7021H232.59V99.8907H242.321V84.7021Z" fill="#6C63FF"/>
<path id="Vector_4" d="M259.839 84.7021H250.107V99.8907H259.839V84.7021Z" fill="#6C63FF"/>
<path id="Vector_5" d="M259.839 134.284H250.107V149.472H259.839V134.284Z" fill="#6C63FF"/>
<path id="Vector_6" d="M279.302 96.106H269.57V112.633H279.302V96.106Z" fill="#6C63FF"/>
<path id="Vector_7" d="M279.302 122.963H269.57V139.49H279.302V122.963Z" fill="#6C63FF"/>
<path id="Vector_8" d="M259.839 174.61H250.107V191.138H259.839V174.61Z" fill="#6C63FF"/>
<path id="Vector_9" d="M279.302 201.467H269.57V217.995H279.302V201.467Z" fill="#6C63FF"/>
<path id="Vector_10" d="M259.839 302.697H250.107V319.224H259.839V302.697Z" fill="#6C63FF"/>
<path id="Vector_11" d="M242.321 201.467H232.59V217.995H242.321V201.467Z" fill="#6C63FF"/>
<path id="Vector_12" d="M209.233 102.304H199.502V118.831H209.233V102.304Z" fill="#6C63FF"/>
<path id="Vector_13" d="M209.233 360.542H199.502V377.069H209.233V360.542Z" fill="#6C63FF"/>
<path id="Vector_14" d="M209.233 414.256H199.502V430.783H209.233V414.256Z" fill="#6C63FF"/>
<path id="Vector_15" d="M209.233 441.112H199.502V457.64H209.233V441.112Z" fill="#6C63FF"/>
<path id="Vector_16" d="M209.233 131.226H195.609V133.292H209.233V131.226Z" fill="#6C63FF"/>
<path id="Vector_17" d="M261.785 156.017H248.161V158.083H261.785V156.017Z" fill="#6C63FF"/>
<path id="Vector_18" d="M209.233 263.444H195.609V265.51H209.233V263.444Z" fill="#6C63FF"/>
<path id="Vector_19" d="M209.233 286.169H195.609V288.235H209.233V286.169Z" fill="#6C63FF"/>
<path id="Vector_20" d="M261.785 418.387H248.161V420.453H261.785V418.387Z" fill="#6C63FF"/>
<path id="Vector_21" d="M246.214 467.969H232.59V470.035H246.214V467.969Z" fill="#6C63FF"/>
<path id="Vector_22" d="M199.502 149.82V153.951H203.394V162.215H199.502V166.346H209.233V149.82H199.502Z" fill="#6C63FF"/>
<path id="Vector_23" d="M232.59 120.897V125.029H236.482V133.292H232.59V137.424H242.322V120.897H232.59Z" fill="#6C63FF"/>
<path id="Vector_24" d="M269.571 147.753V151.886H273.463V160.15H269.571V164.281H279.303V147.753H269.571Z" fill="#6C63FF"/>
<path id="Vector_25" d="M269.571 228.325V232.456H273.463V240.72H269.571V244.851H279.303V228.325H269.571Z" fill="#6C63FF"/>
<path id="Vector_26" d="M269.571 255.18V259.313H273.463V267.577H269.571V271.708H279.303V255.18H269.571Z" fill="#6C63FF"/>
<path id="Vector_27" d="M269.571 172.545V176.676H273.463V184.94H269.571V189.072H279.303V172.545H269.571Z" fill="#6C63FF"/>
<path id="Vector_28" d="M250.106 96.1058V100.238H254V108.501H250.106V112.634H259.839V96.1058H250.106Z" fill="#6C63FF"/>
<path id="Vector_29" d="M259.839 228.324H250.107V244.851H259.839V228.324Z" fill="#6C63FF"/>
<path id="Vector_30" d="M259.839 277.906H250.107V294.433H259.839V277.906Z" fill="#6C63FF"/>
<path id="Vector_31" d="M250.106 253.115V257.246H254V265.51H250.106V269.642H259.839V253.115H250.106Z" fill="#6C63FF"/>
<path id="Vector_32" d="M232.59 147.753V151.886H236.482V160.15H232.59V164.281H242.322V147.753H232.59Z" fill="#6C63FF"/>
<path id="Vector_33" d="M232.59 174.61V178.743H236.482V187.005H232.59V191.138H242.322V174.61H232.59Z" fill="#6C63FF"/>
<path id="Vector_34" d="M242.321 255.181H232.59V271.708H242.321V255.181Z" fill="#6C63FF"/>
<path id="Vector_35" d="M232.59 228.325V232.456H236.482V240.72H232.59V244.851H242.322V228.325H232.59Z" fill="#6C63FF"/>
<path id="Vector_36" d="M242.321 308.894H232.59V325.422H242.321V308.894Z" fill="#6C63FF"/>
<path id="Vector_37" d="M232.59 282.038V286.169H236.482V294.433H232.59V298.565H242.322V282.038H232.59Z" fill="#6C63FF"/>
<path id="Vector_38" d="M242.321 362.608H232.59V379.135H242.321V362.608Z" fill="#6C63FF"/>
<path id="Vector_39" d="M259.839 358.476H250.107V375.003H259.839V358.476Z" fill="#6C63FF"/>
<path id="Vector_40" d="M232.59 335.75V339.883H236.482V348.147H232.59V352.278H242.322V335.75H232.59Z" fill="#6C63FF"/>
<path id="Vector_41" d="M269.571 335.75V339.883H273.463V348.147H269.571V352.278H279.303V335.75H269.571Z" fill="#6C63FF"/>
<path id="Vector_42" d="M378.566 96.106H368.835V112.633H378.566V96.106Z" fill="#6C63FF"/>
<path id="Vector_43" d="M378.566 122.963H368.835V139.49H378.566V122.963Z" fill="#6C63FF"/>
<path id="Vector_44" d="M378.566 201.467H368.835V217.995H378.566V201.467Z" fill="#6C63FF"/>
<path id="Vector_45" d="M368.834 147.753V151.886H372.728V160.15H368.834V164.281H378.566V147.753H368.834Z" fill="#6C63FF"/>
<path id="Vector_46" d="M368.834 228.325V232.456H372.728V240.72H368.834V244.851H378.566V228.325H368.834Z" fill="#6C63FF"/>
<path id="Vector_47" d="M368.834 255.18V259.313H372.728V267.577H368.834V271.708H378.566V255.18H368.834Z" fill="#6C63FF"/>
<path id="Vector_48" d="M368.834 172.545V176.676H372.728V184.94H368.834V189.072H378.566V172.545H368.834Z" fill="#6C63FF"/>
<path id="Vector_49" d="M368.834 335.75V339.883H372.728V348.147H368.834V352.278H378.566V335.75H368.834Z" fill="#6C63FF"/>
<path id="Vector_50" d="M242.321 416.321H232.59V432.849H242.321V416.321Z" fill="#6C63FF"/>
<path id="Vector_51" d="M259.839 385.333H250.107V401.86H259.839V385.333Z" fill="#6C63FF"/>
<path id="Vector_52" d="M242.321 486.562H232.59V503.09H242.321V486.562Z" fill="#6C63FF"/>
<path id="Vector_53" d="M259.839 436.98H250.107V453.508H259.839V436.98Z" fill="#6C63FF"/>
<path id="Vector_54" d="M232.59 389.465V393.596H236.482V401.86H232.59V405.993H242.322V389.465H232.59Z" fill="#6C63FF"/>
<path id="Vector_55" d="M232.59 515.485V519.617H236.482V527.88H232.59V532.012H242.322V515.485H232.59Z" fill="#6C63FF"/>
<path id="Vector_56" d="M349.371 71.3151H339.639V87.8423H349.371V71.3151Z" fill="#6C63FF"/>
<path id="Vector_57" d="M349.371 201.467H339.639V217.995H349.371V201.467Z" fill="#6C63FF"/>
<path id="Vector_58" d="M353.264 467.969H339.639V470.035H353.264V467.969Z" fill="#6C63FF"/>
<path id="Vector_59" d="M339.639 120.897V125.029H343.533V133.292H339.639V137.424H349.371V120.897H339.639Z" fill="#6C63FF"/>
<path id="Vector_60" d="M339.639 147.753V151.886H343.533V160.15H339.639V164.281H349.371V147.753H339.639Z" fill="#6C63FF"/>
<path id="Vector_61" d="M339.639 174.61V178.743H343.533V187.005H339.639V191.138H349.371V174.61H339.639Z" fill="#6C63FF"/>
<path id="Vector_62" d="M349.371 255.181H339.639V271.708H349.371V255.181Z" fill="#6C63FF"/>
<path id="Vector_63" d="M339.639 228.325V232.456H343.533V240.72H339.639V244.851H349.371V228.325H339.639Z" fill="#6C63FF"/>
<path id="Vector_64" d="M349.371 308.894H339.639V325.422H349.371V308.894Z" fill="#6C63FF"/>
<path id="Vector_65" d="M339.639 282.038V286.169H343.533V294.433H339.639V298.565H349.371V282.038H339.639Z" fill="#6C63FF"/>
<path id="Vector_66" d="M349.371 362.608H339.639V379.135H349.371V362.608Z" fill="#6C63FF"/>
<path id="Vector_67" d="M339.639 335.75V339.883H343.533V348.147H339.639V352.278H349.371V335.75H339.639Z" fill="#6C63FF"/>
<path id="Vector_68" d="M349.371 416.321H339.639V432.849H349.371V416.321Z" fill="#6C63FF"/>
<path id="Vector_69" d="M349.371 486.562H339.639V503.09H349.371V486.562Z" fill="#6C63FF"/>
<path id="Vector_70" d="M339.639 389.465V393.596H343.533V401.86H339.639V405.993H349.371V389.465H339.639Z" fill="#6C63FF"/>
<path id="Vector_71" d="M339.639 515.485V519.617H343.533V527.88H339.639V532.012H349.371V515.485H339.639Z" fill="#6C63FF"/>
<path id="Vector_72" d="M396.084 71.3151H386.352V87.8423H396.084V71.3151Z" fill="#6C63FF"/>
<path id="Vector_73" d="M396.084 201.467H386.352V217.995H396.084V201.467Z" fill="#6C63FF"/>
<path id="Vector_74" d="M399.976 467.969H386.352V470.035H399.976V467.969Z" fill="#6C63FF"/>
<path id="Vector_75" d="M386.352 120.897V125.029H390.245V133.292H386.352V137.424H396.083V120.897H386.352Z" fill="#6C63FF"/>
<path id="Vector_76" d="M386.352 147.753V151.886H390.245V160.15H386.352V164.281H396.083V147.753H386.352Z" fill="#6C63FF"/>
<path id="Vector_77" d="M386.352 174.61V178.743H390.245V187.005H386.352V191.138H396.083V174.61H386.352Z" fill="#6C63FF"/>
<path id="Vector_78" d="M396.084 255.181H386.352V271.708H396.084V255.181Z" fill="#6C63FF"/>
<path id="Vector_79" d="M386.352 228.325V232.456H390.245V240.72H386.352V244.851H396.083V228.325H386.352Z" fill="#6C63FF"/>
<path id="Vector_80" d="M396.084 308.894H386.352V325.422H396.084V308.894Z" fill="#6C63FF"/>
<path id="Vector_81" d="M386.352 282.038V286.169H390.245V294.433H386.352V298.565H396.083V282.038H386.352Z" fill="#6C63FF"/>
<path id="Vector_82" d="M396.084 362.608H386.352V379.135H396.084V362.608Z" fill="#6C63FF"/>
<path id="Vector_83" d="M386.352 335.75V339.883H390.245V348.147H386.352V352.278H396.083V335.75H386.352Z" fill="#6C63FF"/>
<path id="Vector_84" d="M396.084 416.321H386.352V432.849H396.084V416.321Z" fill="#6C63FF"/>
<path id="Vector_85" d="M396.084 486.562H386.352V503.09H396.084V486.562Z" fill="#6C63FF"/>
<path id="Vector_86" d="M386.352 389.465V393.596H390.245V401.86H386.352V405.993H396.083V389.465H386.352Z" fill="#6C63FF"/>
<path id="Vector_87" d="M386.352 515.485V519.617H390.245V527.88H386.352V532.012H396.083V515.485H386.352Z" fill="#6C63FF"/>
<path id="Vector_88" d="M250.106 486.563V490.694H254V498.958H250.106V503.089H259.839V486.563H250.106Z" fill="#6C63FF"/>
<path id="Vector_89" d="M250.106 513.42V517.551H254V525.815H250.106V529.946H259.839V513.42H250.106Z" fill="#6C63FF"/>
<path id="Vector_90" d="M199.502 201.468V205.599H203.394V213.863H199.502V217.995H209.233V201.468H199.502Z" fill="#6C63FF"/>
<path id="Vector_91" d="M199.502 306.829V310.96H203.394V319.224H199.502V323.355H209.233V306.829H199.502Z" fill="#6C63FF"/>
<path id="Vector_92" d="M199.502 333.685V337.817H203.394V346.081H199.502V350.213H209.233V333.685H199.502Z" fill="#6C63FF"/>
<path id="Vector_93" d="M199.502 387.399V391.53H203.394V399.794H199.502V403.926H209.233V387.399H199.502Z" fill="#6C63FF"/>
<path id="Vector_94" d="M199.502 463.837V467.969H203.394V476.233H199.502V480.364H209.233V463.837H199.502Z" fill="#6C63FF"/>
<path id="Vector_95" d="M199.502 486.563V490.694H203.394V498.958H199.502V503.089H209.233V486.563H199.502Z" fill="#6C63FF"/>
<path id="Vector_96" d="M310.444 75.4469H300.712V91.9742H310.444V75.4469Z" fill="#6C63FF"/>
<path id="Vector_97" d="M310.444 102.304H300.712V118.831H310.444V102.304Z" fill="#6C63FF"/>
<path id="Vector_98" d="M310.444 131.226H296.819V133.292H310.444V131.226Z" fill="#6C63FF"/>
<path id="Vector_99" d="M310.444 263.444H296.819V265.51H310.444V263.444Z" fill="#6C63FF"/>
<path id="Vector_100" d="M310.444 286.169H296.819V288.235H310.444V286.169Z" fill="#6C63FF"/>
<path id="Vector_101" d="M300.712 149.82V153.951H304.604V162.215H300.712V166.346H310.444V149.82H300.712Z" fill="#6C63FF"/>
<path id="Vector_102" d="M300.712 201.468V205.599H304.604V213.863H300.712V217.995H310.444V201.468H300.712Z" fill="#6C63FF"/>
<path id="Vector_103" d="M300.712 306.829V310.96H304.604V319.224H300.712V323.355H310.444V306.829H300.712Z" fill="#6C63FF"/>
<path id="Vector_104" d="M421.386 255.181H411.655V271.708H421.386V255.181Z" fill="#6C63FF"/>
<path id="Vector_105" d="M421.386 282.038H411.655V298.565H421.386V282.038Z" fill="#6C63FF"/>
<path id="Vector_106" d="M421.386 310.96H407.762V313.026H421.386V310.96Z" fill="#6C63FF"/>
<path id="Vector_107" d="M421.386 443.178H407.762V445.244H421.386V443.178Z" fill="#6C63FF"/>
<path id="Vector_108" d="M421.386 465.903H407.762V467.969H421.386V465.903Z" fill="#6C63FF"/>
<path id="Vector_109" d="M411.655 329.554V333.685H415.547V341.949H411.655V346.081H421.386V329.554H411.655Z" fill="#6C63FF"/>
<path id="Vector_110" d="M411.655 381.201V385.334H415.547V393.596H411.655V397.729H421.386V381.201H411.655Z" fill="#6C63FF"/>
<path id="Vector_111" d="M411.655 486.563V490.694H415.547V498.958H411.655V503.089H421.386V486.563H411.655Z" fill="#6C63FF"/>
<path id="Vector_112" d="M452.528 75.4469H442.796V91.9742H452.528V75.4469Z" fill="#6C63FF"/>
<path id="Vector_113" d="M485.616 71.3151H475.884V87.8423H485.616V71.3151Z" fill="#6C63FF"/>
<path id="Vector_114" d="M503.133 71.3151H493.401V87.8423H503.133V71.3151Z" fill="#6C63FF"/>
<path id="Vector_115" d="M503.133 120.897H493.401V137.424H503.133V120.897Z" fill="#6C63FF"/>
<path id="Vector_116" d="M522.597 96.106H512.865V112.633H522.597V96.106Z" fill="#6C63FF"/>
<path id="Vector_117" d="M522.597 122.963H512.865V139.49H522.597V122.963Z" fill="#6C63FF"/>
<path id="Vector_118" d="M503.133 174.61H493.401V191.138H503.133V174.61Z" fill="#6C63FF"/>
<path id="Vector_119" d="M522.597 201.467H512.865V217.995H522.597V201.467Z" fill="#6C63FF"/>
<path id="Vector_120" d="M503.133 302.697H493.401V319.224H503.133V302.697Z" fill="#6C63FF"/>
<path id="Vector_121" d="M485.616 201.467H475.884V217.995H485.616V201.467Z" fill="#6C63FF"/>
<path id="Vector_122" d="M452.528 102.304H442.796V118.831H452.528V102.304Z" fill="#6C63FF"/>
<path id="Vector_123" d="M452.528 360.542H442.796V377.069H452.528V360.542Z" fill="#6C63FF"/>
<path id="Vector_124" d="M452.528 414.256H442.796V430.783H452.528V414.256Z" fill="#6C63FF"/>
<path id="Vector_125" d="M452.528 441.112H442.796V457.64H452.528V441.112Z" fill="#6C63FF"/>
<path id="Vector_126" d="M452.528 131.226H438.904V133.292H452.528V131.226Z" fill="#6C63FF"/>
<path id="Vector_127" d="M505.08 156.017H491.455V158.083H505.08V156.017Z" fill="#6C63FF"/>
<path id="Vector_128" d="M452.528 263.444H438.904V265.51H452.528V263.444Z" fill="#6C63FF"/>
<path id="Vector_129" d="M452.528 286.169H438.904V288.235H452.528V286.169Z" fill="#6C63FF"/>
<path id="Vector_130" d="M505.08 418.387H491.455V420.453H505.08V418.387Z" fill="#6C63FF"/>
<path id="Vector_131" d="M489.509 467.969H475.884V470.035H489.509V467.969Z" fill="#6C63FF"/>
<path id="Vector_132" d="M442.796 149.82V153.951H446.689V162.215H442.796V166.346H452.528V149.82H442.796Z" fill="#6C63FF"/>
<path id="Vector_133" d="M475.885 120.897V125.029H479.777V133.292H475.885V137.424H485.616V120.897H475.885Z" fill="#6C63FF"/>
<path id="Vector_134" d="M512.865 147.753V151.886H516.757V160.15H512.865V164.281H522.597V147.753H512.865Z" fill="#6C63FF"/>
<path id="Vector_135" d="M512.865 228.325V232.456H516.757V240.72H512.865V244.851H522.597V228.325H512.865Z" fill="#6C63FF"/>
<path id="Vector_136" d="M512.865 255.18V259.313H516.757V267.577H512.865V271.708H522.597V255.18H512.865Z" fill="#6C63FF"/>
<path id="Vector_137" d="M512.865 172.545V176.676H516.757V184.94H512.865V189.072H522.597V172.545H512.865Z" fill="#6C63FF"/>
<path id="Vector_138" d="M493.402 96.1058V100.238H497.294V108.501H493.402V112.634H503.134V96.1058H493.402Z" fill="#6C63FF"/>
<path id="Vector_139" d="M503.133 228.324H493.401V244.851H503.133V228.324Z" fill="#6C63FF"/>
<path id="Vector_140" d="M503.133 277.906H493.401V294.433H503.133V277.906Z" fill="#6C63FF"/>
<path id="Vector_141" d="M493.402 253.115V257.246H497.294V265.51H493.402V269.642H503.134V253.115H493.402Z" fill="#6C63FF"/>
<path id="Vector_142" d="M475.885 147.753V151.886H479.777V160.15H475.885V164.281H485.616V147.753H475.885Z" fill="#6C63FF"/>
<path id="Vector_143" d="M475.885 174.61V178.743H479.777V187.005H475.885V191.138H485.616V174.61H475.885Z" fill="#6C63FF"/>
<path id="Vector_144" d="M485.616 255.181H475.884V271.708H485.616V255.181Z" fill="#6C63FF"/>
<path id="Vector_145" d="M475.885 228.325V232.456H479.777V240.72H475.885V244.851H485.616V228.325H475.885Z" fill="#6C63FF"/>
<path id="Vector_146" d="M485.616 308.894H475.884V325.422H485.616V308.894Z" fill="#6C63FF"/>
<path id="Vector_147" d="M475.885 282.038V286.169H479.777V294.433H475.885V298.565H485.616V282.038H475.885Z" fill="#6C63FF"/>
<path id="Vector_148" d="M485.616 362.608H475.884V379.135H485.616V362.608Z" fill="#6C63FF"/>
<path id="Vector_149" d="M503.133 358.476H493.401V375.003H503.133V358.476Z" fill="#6C63FF"/>
<path id="Vector_150" d="M475.885 335.75V339.883H479.777V348.147H475.885V352.278H485.616V335.75H475.885Z" fill="#6C63FF"/>
<path id="Vector_151" d="M512.865 335.75V339.883H516.757V348.147H512.865V352.278H522.597V335.75H512.865Z" fill="#6C63FF"/>
<path id="Vector_152" d="M621.861 96.106H612.129V112.633H621.861V96.106Z" fill="#6C63FF"/>
<path id="Vector_153" d="M621.861 122.963H612.129V139.49H621.861V122.963Z" fill="#6C63FF"/>
<path id="Vector_154" d="M621.861 201.467H612.129V217.995H621.861V201.467Z" fill="#6C63FF"/>
<path id="Vector_155" d="M612.13 147.753V151.886H616.022V160.15H612.13V164.281H621.862V147.753H612.13Z" fill="#6C63FF"/>
<path id="Vector_156" d="M612.13 228.325V232.456H616.022V240.72H612.13V244.851H621.862V228.325H612.13Z" fill="#6C63FF"/>
<path id="Vector_157" d="M612.13 255.18V259.313H616.022V267.577H612.13V271.708H621.862V255.18H612.13Z" fill="#6C63FF"/>
<path id="Vector_158" d="M612.13 172.545V176.676H616.022V184.94H612.13V189.072H621.862V172.545H612.13Z" fill="#6C63FF"/>
<path id="Vector_159" d="M612.13 335.75V339.883H616.022V348.147H612.13V352.278H621.862V335.75H612.13Z" fill="#6C63FF"/>
<path id="Vector_160" d="M485.616 416.321H475.884V432.849H485.616V416.321Z" fill="#6C63FF"/>
<path id="Vector_161" d="M503.133 385.333H493.401V401.86H503.133V385.333Z" fill="#6C63FF"/>
<path id="Vector_162" d="M485.616 486.562H475.884V503.09H485.616V486.562Z" fill="#6C63FF"/>
<path id="Vector_163" d="M503.133 436.98H493.401V453.508H503.133V436.98Z" fill="#6C63FF"/>
<path id="Vector_164" d="M475.885 389.465V393.596H479.777V401.86H475.885V405.993H485.616V389.465H475.885Z" fill="#6C63FF"/>
<path id="Vector_165" d="M475.885 515.485V519.617H479.777V527.88H475.885V532.012H485.616V515.485H475.885Z" fill="#6C63FF"/>
<path id="Vector_166" d="M592.666 71.3151H582.934V87.8423H592.666V71.3151Z" fill="#6C63FF"/>
<path id="Vector_167" d="M592.666 201.467H582.934V217.995H592.666V201.467Z" fill="#6C63FF"/>
<path id="Vector_168" d="M596.558 467.969H582.934V470.035H596.558V467.969Z" fill="#6C63FF"/>
<path id="Vector_169" d="M582.933 120.897V125.029H586.827V133.292H582.933V137.424H592.665V120.897H582.933Z" fill="#6C63FF"/>
<path id="Vector_170" d="M582.933 147.753V151.886H586.827V160.15H582.933V164.281H592.665V147.753H582.933Z" fill="#6C63FF"/>
<path id="Vector_171" d="M582.933 174.61V178.743H586.827V187.005H582.933V191.138H592.665V174.61H582.933Z" fill="#6C63FF"/>
<path id="Vector_172" d="M592.666 255.181H582.934V271.708H592.666V255.181Z" fill="#6C63FF"/>
<path id="Vector_173" d="M582.933 228.325V232.456H586.827V240.72H582.933V244.851H592.665V228.325H582.933Z" fill="#6C63FF"/>
<path id="Vector_174" d="M592.666 308.894H582.934V325.422H592.666V308.894Z" fill="#6C63FF"/>
<path id="Vector_175" d="M582.933 282.038V286.169H586.827V294.433H582.933V298.565H592.665V282.038H582.933Z" fill="#6C63FF"/>
<path id="Vector_176" d="M592.666 362.608H582.934V379.135H592.666V362.608Z" fill="#6C63FF"/>
<path id="Vector_177" d="M582.933 335.75V339.883H586.827V348.147H582.933V352.278H592.665V335.75H582.933Z" fill="#6C63FF"/>
<path id="Vector_178" d="M592.666 416.321H582.934V432.849H592.666V416.321Z" fill="#6C63FF"/>
<path id="Vector_179" d="M592.666 486.562H582.934V503.09H592.666V486.562Z" fill="#6C63FF"/>
<path id="Vector_180" d="M582.933 389.465V393.596H586.827V401.86H582.933V405.993H592.665V389.465H582.933Z" fill="#6C63FF"/>
<path id="Vector_181" d="M582.933 515.485V519.617H586.827V527.88H582.933V532.012H592.665V515.485H582.933Z" fill="#6C63FF"/>
<path id="Vector_182" d="M639.378 71.3151H629.646V87.8423H639.378V71.3151Z" fill="#6C63FF"/>
<path id="Vector_183" d="M639.378 201.467H629.646V217.995H639.378V201.467Z" fill="#6C63FF"/>
<path id="Vector_184" d="M643.271 467.969H629.646V470.035H643.271V467.969Z" fill="#6C63FF"/>
<path id="Vector_185" d="M629.646 120.897V125.029H633.539V133.292H629.646V137.424H639.378V120.897H629.646Z" fill="#6C63FF"/>
<path id="Vector_186" d="M629.646 147.753V151.886H633.539V160.15H629.646V164.281H639.378V147.753H629.646Z" fill="#6C63FF"/>
<path id="Vector_187" d="M629.646 174.61V178.743H633.539V187.005H629.646V191.138H639.378V174.61H629.646Z" fill="#6C63FF"/>
<path id="Vector_188" d="M639.378 255.181H629.646V271.708H639.378V255.181Z" fill="#6C63FF"/>
<path id="Vector_189" d="M629.646 228.325V232.456H633.539V240.72H629.646V244.851H639.378V228.325H629.646Z" fill="#6C63FF"/>
<path id="Vector_190" d="M639.378 308.894H629.646V325.422H639.378V308.894Z" fill="#6C63FF"/>
<path id="Vector_191" d="M629.646 282.038V286.169H633.539V294.433H629.646V298.565H639.378V282.038H629.646Z" fill="#6C63FF"/>
<path id="Vector_192" d="M639.378 362.608H629.646V379.135H639.378V362.608Z" fill="#6C63FF"/>
<path id="Vector_193" d="M629.646 335.75V339.883H633.539V348.147H629.646V352.278H639.378V335.75H629.646Z" fill="#6C63FF"/>
<path id="Vector_194" d="M639.378 416.321H629.646V432.849H639.378V416.321Z" fill="#6C63FF"/>
<path id="Vector_195" d="M639.378 486.562H629.646V503.09H639.378V486.562Z" fill="#6C63FF"/>
<path id="Vector_196" d="M629.646 389.465V393.596H633.539V401.86H629.646V405.993H639.378V389.465H629.646Z" fill="#6C63FF"/>
<path id="Vector_197" d="M629.646 515.485V519.617H633.539V527.88H629.646V532.012H639.378V515.485H629.646Z" fill="#6C63FF"/>
<path id="Vector_198" d="M493.402 486.563V490.694H497.294V498.958H493.402V503.089H503.134V486.563H493.402Z" fill="#6C63FF"/>
<path id="Vector_199" d="M493.402 513.42V517.551H497.294V525.815H493.402V529.946H503.134V513.42H493.402Z" fill="#6C63FF"/>
<path id="Vector_200" d="M442.796 201.468V205.599H446.689V213.863H442.796V217.995H452.528V201.468H442.796Z" fill="#6C63FF"/>
<path id="Vector_201" d="M442.796 306.829V310.96H446.689V319.224H442.796V323.355H452.528V306.829H442.796Z" fill="#6C63FF"/>
<path id="Vector_202" d="M442.796 333.685V337.817H446.689V346.081H442.796V350.213H452.528V333.685H442.796Z" fill="#6C63FF"/>
<path id="Vector_203" d="M442.796 387.399V391.53H446.689V399.794H442.796V403.926H452.528V387.399H442.796Z" fill="#6C63FF"/>
<path id="Vector_204" d="M442.796 463.837V467.969H446.689V476.233H442.796V480.364H452.528V463.837H442.796Z" fill="#6C63FF"/>
<path id="Vector_205" d="M442.796 486.563V490.694H446.689V498.958H442.796V503.089H452.528V486.563H442.796Z" fill="#6C63FF"/>
<path id="Vector_206" d="M553.739 75.4469H544.007V91.9742H553.739V75.4469Z" fill="#6C63FF"/>
<path id="Vector_207" d="M553.739 102.304H544.007V118.831H553.739V102.304Z" fill="#6C63FF"/>
<path id="Vector_208" d="M553.739 131.226H540.114V133.292H553.739V131.226Z" fill="#6C63FF"/>
<path id="Vector_209" d="M553.739 263.444H540.114V265.51H553.739V263.444Z" fill="#6C63FF"/>
<path id="Vector_210" d="M553.739 286.169H540.114V288.235H553.739V286.169Z" fill="#6C63FF"/>
<path id="Vector_211" d="M544.007 149.82V153.951H547.9V162.215H544.007V166.346H553.738V149.82H544.007Z" fill="#6C63FF"/>
<path id="Vector_212" d="M544.007 201.468V205.599H547.9V213.863H544.007V217.995H553.738V201.468H544.007Z" fill="#6C63FF"/>
<path id="Vector_213" d="M544.007 306.829V310.96H547.9V319.224H544.007V323.355H553.738V306.829H544.007Z" fill="#6C63FF"/>
<path id="Vector_214" d="M664.681 255.181H654.949V271.708H664.681V255.181Z" fill="#6C63FF"/>
<path id="Vector_215" d="M664.681 282.038H654.949V298.565H664.681V282.038Z" fill="#6C63FF"/>
<path id="Vector_216" d="M664.681 310.96H651.056V313.026H664.681V310.96Z" fill="#6C63FF"/>
<path id="Vector_217" d="M664.681 443.178H651.056V445.244H664.681V443.178Z" fill="#6C63FF"/>
<path id="Vector_218" d="M664.681 465.903H651.056V467.969H664.681V465.903Z" fill="#6C63FF"/>
<path id="Vector_219" d="M654.949 329.554V333.685H658.842V341.949H654.949V346.081H664.681V329.554H654.949Z" fill="#6C63FF"/>
<path id="Vector_220" d="M654.949 381.201V385.334H658.842V393.596H654.949V397.729H664.681V381.201H654.949Z" fill="#6C63FF"/>
<path id="Vector_221" d="M654.949 486.563V490.694H658.842V498.958H654.949V503.089H664.681V486.563H654.949Z" fill="#6C63FF"/>
<path id="Vector_222" d="M695.823 75.4469H686.091V91.9742H695.823V75.4469Z" fill="#6C63FF"/>
<path id="Vector_223" d="M728.911 71.3151H719.179V87.8423H728.911V71.3151Z" fill="#6C63FF"/>
<path id="Vector_224" d="M746.428 71.3151H736.696V87.8423H746.428V71.3151Z" fill="#6C63FF"/>
<path id="Vector_225" d="M746.428 120.897H736.696V137.424H746.428V120.897Z" fill="#6C63FF"/>
<path id="Vector_226" d="M765.891 96.106H756.16V112.633H765.891V96.106Z" fill="#6C63FF"/>
<path id="Vector_227" d="M765.891 122.963H756.16V139.49H765.891V122.963Z" fill="#6C63FF"/>
<path id="Vector_228" d="M746.428 174.61H736.696V191.138H746.428V174.61Z" fill="#6C63FF"/>
<path id="Vector_229" d="M765.891 201.467H756.16V217.995H765.891V201.467Z" fill="#6C63FF"/>
<path id="Vector_230" d="M746.428 302.697H736.696V319.224H746.428V302.697Z" fill="#6C63FF"/>
<path id="Vector_231" d="M728.911 201.467H719.179V217.995H728.911V201.467Z" fill="#6C63FF"/>
<path id="Vector_232" d="M695.823 102.304H686.091V118.831H695.823V102.304Z" fill="#6C63FF"/>
<path id="Vector_233" d="M695.823 360.542H686.091V377.069H695.823V360.542Z" fill="#6C63FF"/>
<path id="Vector_234" d="M695.823 414.256H686.091V430.783H695.823V414.256Z" fill="#6C63FF"/>
<path id="Vector_235" d="M695.823 441.112H686.091V457.64H695.823V441.112Z" fill="#6C63FF"/>
<path id="Vector_236" d="M695.823 131.226H682.198V133.292H695.823V131.226Z" fill="#6C63FF"/>
<path id="Vector_237" d="M748.374 156.017H734.75V158.083H748.374V156.017Z" fill="#6C63FF"/>
<path id="Vector_238" d="M695.823 263.444H682.198V265.51H695.823V263.444Z" fill="#6C63FF"/>
<path id="Vector_239" d="M695.823 286.169H682.198V288.235H695.823V286.169Z" fill="#6C63FF"/>
<path id="Vector_240" d="M748.374 418.387H734.75V420.453H748.374V418.387Z" fill="#6C63FF"/>
<path id="Vector_241" d="M732.803 467.969H719.179V470.035H732.803V467.969Z" fill="#6C63FF"/>
<path id="Vector_242" d="M686.09 149.82V153.951H689.984V162.215H686.09V166.346H695.823V149.82H686.09Z" fill="#6C63FF"/>
<path id="Vector_243" d="M719.179 120.897V125.029H723.071V133.292H719.179V137.424H728.91V120.897H719.179Z" fill="#6C63FF"/>
<path id="Vector_244" d="M756.16 147.753V151.886H760.052V160.15H756.16V164.281H765.891V147.753H756.16Z" fill="#6C63FF"/>
<path id="Vector_245" d="M756.16 228.325V232.456H760.052V240.72H756.16V244.851H765.891V228.325H756.16Z" fill="#6C63FF"/>
<path id="Vector_246" d="M756.16 255.18V259.313H760.052V267.577H756.16V271.708H765.891V255.18H756.16Z" fill="#6C63FF"/>
<path id="Vector_247" d="M756.16 172.545V176.676H760.052V184.94H756.16V189.072H765.891V172.545H756.16Z" fill="#6C63FF"/>
<path id="Vector_248" d="M736.696 96.1058V100.238H740.588V108.501H736.696V112.634H746.428V96.1058H736.696Z" fill="#6C63FF"/>
<path id="Vector_249" d="M746.428 228.324H736.696V244.851H746.428V228.324Z" fill="#6C63FF"/>
<path id="Vector_250" d="M746.428 277.906H736.696V294.433H746.428V277.906Z" fill="#6C63FF"/>
<path id="Vector_251" d="M736.696 253.115V257.246H740.588V265.51H736.696V269.642H746.428V253.115H736.696Z" fill="#6C63FF"/>
<path id="Vector_252" d="M719.179 147.753V151.886H723.071V160.15H719.179V164.281H728.91V147.753H719.179Z" fill="#6C63FF"/>
<path id="Vector_253" d="M719.179 174.61V178.743H723.071V187.005H719.179V191.138H728.91V174.61H719.179Z" fill="#6C63FF"/>
<path id="Vector_254" d="M728.911 255.181H719.179V271.708H728.911V255.181Z" fill="#6C63FF"/>
<path id="Vector_255" d="M719.179 228.325V232.456H723.071V240.72H719.179V244.851H728.91V228.325H719.179Z" fill="#6C63FF"/>
<path id="Vector_256" d="M728.911 308.894H719.179V325.422H728.911V308.894Z" fill="#6C63FF"/>
<path id="Vector_257" d="M719.179 282.038V286.169H723.071V294.433H719.179V298.565H728.91V282.038H719.179Z" fill="#6C63FF"/>
<path id="Vector_258" d="M728.911 362.608H719.179V379.135H728.911V362.608Z" fill="#6C63FF"/>
<path id="Vector_259" d="M746.428 358.476H736.696V375.003H746.428V358.476Z" fill="#6C63FF"/>
<path id="Vector_260" d="M719.179 335.75V339.883H723.071V348.147H719.179V352.278H728.91V335.75H719.179Z" fill="#6C63FF"/>
<path id="Vector_261" d="M756.16 335.75V339.883H760.052V348.147H756.16V352.278H765.891V335.75H756.16Z" fill="#6C63FF"/>
<path id="Vector_262" d="M865.156 96.106H855.424V112.633H865.156V96.106Z" fill="#6C63FF"/>
<path id="Vector_263" d="M865.156 122.963H855.424V139.49H865.156V122.963Z" fill="#6C63FF"/>
<path id="Vector_264" d="M865.156 201.467H855.424V217.995H865.156V201.467Z" fill="#6C63FF"/>
<path id="Vector_265" d="M855.424 147.753V151.886H859.316V160.15H855.424V164.281H865.156V147.753H855.424Z" fill="#6C63FF"/>
<path id="Vector_266" d="M855.424 228.325V232.456H859.316V240.72H855.424V244.851H865.156V228.325H855.424Z" fill="#6C63FF"/>
<path id="Vector_267" d="M855.424 255.18V259.313H859.316V267.577H855.424V271.708H865.156V255.18H855.424Z" fill="#6C63FF"/>
<path id="Vector_268" d="M855.424 172.545V176.676H859.316V184.94H855.424V189.072H865.156V172.545H855.424Z" fill="#6C63FF"/>
<path id="Vector_269" d="M855.424 335.75V339.883H859.316V348.147H855.424V352.278H865.156V335.75H855.424Z" fill="#6C63FF"/>
<path id="Vector_270" d="M728.911 416.321H719.179V432.849H728.911V416.321Z" fill="#6C63FF"/>
<path id="Vector_271" d="M746.428 385.333H736.696V401.86H746.428V385.333Z" fill="#6C63FF"/>
<path id="Vector_272" d="M728.911 486.562H719.179V503.09H728.911V486.562Z" fill="#6C63FF"/>
<path id="Vector_273" d="M746.428 436.98H736.696V453.508H746.428V436.98Z" fill="#6C63FF"/>
<path id="Vector_274" d="M719.179 389.465V393.596H723.071V401.86H719.179V405.993H728.91V389.465H719.179Z" fill="#6C63FF"/>
<path id="Vector_275" d="M719.179 515.485V519.617H723.071V527.88H719.179V532.012H728.91V515.485H719.179Z" fill="#6C63FF"/>
<path id="Vector_276" d="M835.96 71.3151H826.229V87.8423H835.96V71.3151Z" fill="#6C63FF"/>
<path id="Vector_277" d="M835.96 201.467H826.229V217.995H835.96V201.467Z" fill="#6C63FF"/>
<path id="Vector_278" d="M839.853 467.969H826.229V470.035H839.853V467.969Z" fill="#6C63FF"/>
<path id="Vector_279" d="M826.229 120.897V125.029H830.121V133.292H826.229V137.424H835.961V120.897H826.229Z" fill="#6C63FF"/>
<path id="Vector_280" d="M826.229 147.753V151.886H830.121V160.15H826.229V164.281H835.961V147.753H826.229Z" fill="#6C63FF"/>
<path id="Vector_281" d="M826.229 174.61V178.743H830.121V187.005H826.229V191.138H835.961V174.61H826.229Z" fill="#6C63FF"/>
<path id="Vector_282" d="M835.96 255.181H826.229V271.708H835.96V255.181Z" fill="#6C63FF"/>
<path id="Vector_283" d="M826.229 228.325V232.456H830.121V240.72H826.229V244.851H835.961V228.325H826.229Z" fill="#6C63FF"/>
<path id="Vector_284" d="M835.96 308.894H826.229V325.422H835.96V308.894Z" fill="#6C63FF"/>
<path id="Vector_285" d="M826.229 282.038V286.169H830.121V294.433H826.229V298.565H835.961V282.038H826.229Z" fill="#6C63FF"/>
<path id="Vector_286" d="M835.96 362.608H826.229V379.135H835.96V362.608Z" fill="#6C63FF"/>
<path id="Vector_287" d="M826.229 335.75V339.883H830.121V348.147H826.229V352.278H835.961V335.75H826.229Z" fill="#6C63FF"/>
<path id="Vector_288" d="M835.96 416.321H826.229V432.849H835.96V416.321Z" fill="#6C63FF"/>
<path id="Vector_289" d="M835.96 486.562H826.229V503.09H835.96V486.562Z" fill="#6C63FF"/>
<path id="Vector_290" d="M826.229 389.465V393.596H830.121V401.86H826.229V405.993H835.961V389.465H826.229Z" fill="#6C63FF"/>
<path id="Vector_291" d="M826.229 515.485V519.617H830.121V527.88H826.229V532.012H835.961V515.485H826.229Z" fill="#6C63FF"/>
<path id="Vector_292" d="M882.673 71.3151H872.941V87.8423H882.673V71.3151Z" fill="#6C63FF"/>
<path id="Vector_293" d="M882.673 201.467H872.941V217.995H882.673V201.467Z" fill="#6C63FF"/>
<path id="Vector_294" d="M886.566 467.969H872.941V470.035H886.566V467.969Z" fill="#6C63FF"/>
<path id="Vector_295" d="M872.942 120.897V125.029H876.834V133.292H872.942V137.424H882.673V120.897H872.942Z" fill="#6C63FF"/>
<path id="Vector_296" d="M872.942 147.753V151.886H876.834V160.15H872.942V164.281H882.673V147.753H872.942Z" fill="#6C63FF"/>
<path id="Vector_297" d="M872.942 174.61V178.743H876.834V187.005H872.942V191.138H882.673V174.61H872.942Z" fill="#6C63FF"/>
<path id="Vector_298" d="M882.673 255.181H872.941V271.708H882.673V255.181Z" fill="#6C63FF"/>
<path id="Vector_299" d="M872.942 228.325V232.456H876.834V240.72H872.942V244.851H882.673V228.325H872.942Z" fill="#6C63FF"/>
<path id="Vector_300" d="M882.673 308.894H872.941V325.422H882.673V308.894Z" fill="#6C63FF"/>
<path id="Vector_301" d="M872.942 282.038V286.169H876.834V294.433H872.942V298.565H882.673V282.038H872.942Z" fill="#6C63FF"/>
<path id="Vector_302" d="M882.673 362.608H872.941V379.135H882.673V362.608Z" fill="#6C63FF"/>
<path id="Vector_303" d="M872.942 335.75V339.883H876.834V348.147H872.942V352.278H882.673V335.75H872.942Z" fill="#6C63FF"/>
<path id="Vector_304" d="M882.673 416.321H872.941V432.849H882.673V416.321Z" fill="#6C63FF"/>
<path id="Vector_305" d="M882.673 486.562H872.941V503.09H882.673V486.562Z" fill="#6C63FF"/>
<path id="Vector_306" d="M872.942 389.465V393.596H876.834V401.86H872.942V405.993H882.673V389.465H872.942Z" fill="#6C63FF"/>
<path id="Vector_307" d="M872.942 515.485V519.617H876.834V527.88H872.942V532.012H882.673V515.485H872.942Z" fill="#6C63FF"/>
<path id="Vector_308" d="M736.696 486.563V490.694H740.588V498.958H736.696V503.089H746.428V486.563H736.696Z" fill="#6C63FF"/>
<path id="Vector_309" d="M736.696 513.42V517.551H740.588V525.815H736.696V529.946H746.428V513.42H736.696Z" fill="#6C63FF"/>
<path id="Vector_310" d="M686.09 201.468V205.599H689.984V213.863H686.09V217.995H695.823V201.468H686.09Z" fill="#6C63FF"/>
<path id="Vector_311" d="M686.09 306.829V310.96H689.984V319.224H686.09V323.355H695.823V306.829H686.09Z" fill="#6C63FF"/>
<path id="Vector_312" d="M686.09 333.685V337.817H689.984V346.081H686.09V350.213H695.823V333.685H686.09Z" fill="#6C63FF"/>
<path id="Vector_313" d="M686.09 387.399V391.53H689.984V399.794H686.09V403.926H695.823V387.399H686.09Z" fill="#6C63FF"/>
<path id="Vector_314" d="M686.09 463.837V467.969H689.984V476.233H686.09V480.364H695.823V463.837H686.09Z" fill="#6C63FF"/>
<path id="Vector_315" d="M686.09 486.563V490.694H689.984V498.958H686.09V503.089H695.823V486.563H686.09Z" fill="#6C63FF"/>
<path id="Vector_316" d="M797.033 75.4469H787.301V91.9742H797.033V75.4469Z" fill="#6C63FF"/>
<path id="Vector_317" d="M797.033 102.304H787.301V118.831H797.033V102.304Z" fill="#6C63FF"/>
<path id="Vector_318" d="M797.033 131.226H783.409V133.292H797.033V131.226Z" fill="#6C63FF"/>
<path id="Vector_319" d="M797.033 263.444H783.409V265.51H797.033V263.444Z" fill="#6C63FF"/>
<path id="Vector_320" d="M797.033 286.169H783.409V288.235H797.033V286.169Z" fill="#6C63FF"/>
<path id="Vector_321" d="M787.301 149.82V153.951H791.194V162.215H787.301V166.346H797.032V149.82H787.301Z" fill="#6C63FF"/>
<path id="Vector_322" d="M787.301 201.468V205.599H791.194V213.863H787.301V217.995H797.032V201.468H787.301Z" fill="#6C63FF"/>
<path id="Vector_323" d="M787.301 306.829V310.96H791.194V319.224H787.301V323.355H797.032V306.829H787.301Z" fill="#6C63FF"/>
<path id="Vector_324" d="M907.975 255.181H898.244V271.708H907.975V255.181Z" fill="#6C63FF"/>
<path id="Vector_325" d="M907.975 282.038H898.244V298.565H907.975V282.038Z" fill="#6C63FF"/>
<path id="Vector_326" d="M907.975 310.96H894.351V313.026H907.975V310.96Z" fill="#6C63FF"/>
<path id="Vector_327" d="M907.975 443.178H894.351V445.244H907.975V443.178Z" fill="#6C63FF"/>
<path id="Vector_328" d="M907.975 465.903H894.351V467.969H907.975V465.903Z" fill="#6C63FF"/>
<path id="Vector_329" d="M898.243 329.554V333.685H902.137V341.949H898.243V346.081H907.975V329.554H898.243Z" fill="#6C63FF"/>
<path id="Vector_330" d="M898.243 381.201V385.334H902.137V393.596H898.243V397.729H907.975V381.201H898.243Z" fill="#6C63FF"/>
<path id="Vector_331" d="M898.243 486.563V490.694H902.137V498.958H898.243V503.089H907.975V486.563H898.243Z" fill="#6C63FF"/>
</g>
<g id="person">
<path id="Vector_332" d="M936.073 975.537L940.27 938.786L1058.83 906.49L1045.19 863.057C1054.69 834.131 1071.37 819.951 1101.85 834.102L1154.27 868.667C1159.37 872.027 1163.52 876.777 1166.29 882.423C1169.06 888.068 1170.35 894.4 1170.03 900.757V900.757C1169.71 907.139 1167.77 913.31 1164.42 918.62C1161.07 923.93 1156.43 928.181 1150.99 930.924C1092.3 960.451 1017.51 971.749 936.073 975.537Z" fill="#FFB8B8"/>
<path id="Vector_333" d="M943.418 986.674L906.695 981.106L872.347 988.546C870.243 989.002 868.07 988.967 865.98 988.445C863.889 987.922 861.93 986.924 860.239 985.519C858.547 984.114 857.163 982.337 856.183 980.308C855.202 978.28 854.647 976.051 854.558 973.773V973.773C854.458 971.225 854.942 968.69 855.969 966.385C856.996 964.081 858.535 962.075 860.453 960.541L914.276 917.498C918.892 913.807 924.597 911.983 930.366 912.353C936.135 912.723 941.59 915.264 945.754 919.519L959.156 933.218C949.565 939.533 942.434 949.009 938.171 962.173C947.389 967.552 949.138 975.719 943.418 986.674Z" fill="#2F2E41"/>
<path id="Vector_334" d="M978.491 600.83C997.248 600.83 1012.45 584.691 1012.45 564.783C1012.45 544.874 997.248 528.735 978.491 528.735C959.735 528.735 944.53 544.874 944.53 564.783C944.53 584.691 959.735 600.83 978.491 600.83Z" fill="#FFB8B8"/>
<path id="Vector_335" d="M1031.55 635.869L955.484 669.836C961.666 636.888 964.747 606.874 955.484 588.538L1004.27 582.413C1001.85 596.504 1014.19 615.375 1031.55 635.869Z" fill="#FFB8B8"/>
<path id="Vector_336" d="M902.498 974.424L874.169 972.196C856.814 895.382 847.929 822.776 851.807 756.514C852.355 746.841 856.412 737.769 863.126 731.202C869.84 724.635 878.69 721.083 887.817 721.293C896.589 721.504 904.97 725.179 911.326 731.598L947.96 768.601C964.297 784.974 976.979 805.017 985.079 827.262C995.454 856.105 991.73 872.274 966.961 869.528C951.484 867.697 937.249 859.664 927.163 847.07L900.399 814.056L902.498 974.424Z" fill="#FFB8B8"/>
<path id="Vector_337" d="M880.56 1065.7C876.847 1065.45 873.24 1064.28 870.017 1062.31C866.795 1060.33 864.044 1057.6 861.979 1054.31C859.913 1051.03 858.588 1047.28 858.105 1043.37C857.623 1039.45 857.996 1035.47 859.197 1031.73L864.726 1014.52L868.923 971.083C875.388 957.08 884.544 959.175 895.154 969.969C901.899 969.266 903.347 962.107 902.498 952.15L923.768 982.542C925.589 985.143 926.719 988.215 927.04 991.437C927.362 994.659 926.864 997.913 925.598 1000.86L904.191 1050.7C902.151 1055.45 898.798 1059.43 894.577 1062.11C890.356 1064.79 885.468 1066.04 880.56 1065.7V1065.7Z" fill="#2F2E41"/>
<path id="Vector_338" d="M1148.54 864.728C1109.72 888.115 1097.55 888.793 1058.83 905.376L1025.26 885.33C985.825 900.806 958.165 879.591 928.204 848.023C947.81 813.36 939.139 768.316 951.287 768.952L1096.6 817.397L1102.9 834.102L1148.54 864.728Z" fill="#2F2E41"/>
<path id="Vector_339" opacity="0.2" d="M1020.35 941.999C1017.58 940.88 1015.11 939.071 1013.13 936.726C1011.16 934.381 1009.74 931.567 1009 928.521C1008.26 925.475 1008.22 922.285 1008.89 919.22C1009.55 916.154 1010.9 913.302 1012.81 910.903L1036.8 880.876L1053.59 890.899L1044.94 928.306C1044.32 931.013 1043.16 933.548 1041.54 935.743C1039.92 937.937 1037.88 939.742 1035.55 941.037C1033.23 942.332 1030.67 943.087 1028.05 943.253C1025.43 943.419 1022.8 942.992 1020.35 941.999Z" fill="black"/>
<path id="Vector_340" d="M1101.85 828.533C1050.54 852.107 995.293 827.148 948.139 772.293L916.916 638.45C916.547 636.976 916.466 635.437 916.679 633.928C916.892 632.419 917.393 630.973 918.153 629.678C918.912 628.383 919.914 627.267 921.095 626.398C922.277 625.53 923.614 624.927 925.023 624.628L961.254 616.937L979.091 647.006L1014.76 613.596L1052.65 626.742C1057.69 628.49 1062.18 631.658 1065.65 635.907C1069.13 640.156 1071.45 645.326 1072.37 650.866L1101.85 828.533Z" fill="#6C63FF"/>
<path id="Vector_341" d="M1020.35 937.545C1017.58 936.425 1015.11 934.617 1013.13 932.272C1011.16 929.926 1009.74 927.113 1009 924.066C1008.26 921.02 1008.22 917.831 1008.89 914.765C1009.55 911.7 1010.9 908.848 1012.81 906.449L1036.8 876.421L1053.59 886.444L1044.94 923.852C1044.32 926.558 1043.16 929.093 1041.54 931.288C1039.92 933.483 1037.88 935.287 1035.55 936.582C1033.23 937.877 1030.67 938.632 1028.05 938.798C1025.43 938.964 1022.8 938.537 1020.35 937.545V937.545Z" fill="#FFB8B8"/>
<path id="Vector_342" d="M1057.78 895.353L1032.6 877.535L1069.32 773.964L1055.68 628.073L1068.13 636.328C1074.8 640.758 1080.56 646.581 1085.06 653.445C1089.55 660.309 1092.68 668.07 1094.27 676.258L1114.44 780.646C1105.61 828.761 1090.9 871.096 1057.78 895.353Z" fill="#6C63FF"/>
<path id="Vector_343" opacity="0.2" d="M1042.57 729.974L1055.16 796.794L1044.8 835.874L1042.57 729.974Z" fill="black"/>
<path id="Vector_344" d="M945.278 561.691C945.278 561.691 925.707 493.708 985.52 507.966C994.798 510.177 1002.81 515.901 1009.19 523.389C1009.76 524.043 1010.46 524.557 1011.24 524.895C1012.02 525.232 1012.85 525.385 1013.69 525.342C1023.25 525.342 1029.15 561.583 1010.04 577.52C1010.04 577.52 1013.94 556.075 1006.85 548.767C1005.58 547.531 1004.51 546.073 1003.7 544.456C999.086 534.579 983.579 531.337 972.884 532.178C967.424 532.607 966.947 542.711 960.903 541.3C947.15 538.089 942.76 554.999 945.278 561.691Z" fill="#2F2E41"/>
<path id="Vector_345" d="M1005.48 662.595L1005.08 665.673L1002.64 684.666L998.638 715.77L997.636 723.558C997.559 724.152 997.283 724.697 996.857 725.092C996.431 725.486 995.885 725.703 995.319 725.703H968.628C968.063 725.704 967.518 725.487 967.092 725.094C966.667 724.7 966.389 724.157 966.312 723.564L965.292 715.77L961.222 684.666L958.735 665.659L958.335 662.601C958.289 662.25 958.314 661.892 958.409 661.552C958.505 661.212 958.667 660.897 958.887 660.63C959.106 660.362 959.377 660.148 959.681 660.001C959.985 659.854 960.316 659.778 960.65 659.778H1003.16C1003.5 659.778 1003.83 659.854 1004.13 660C1004.43 660.147 1004.71 660.361 1004.92 660.628C1005.14 660.895 1005.31 661.208 1005.4 661.548C1005.5 661.887 1005.53 662.244 1005.48 662.595V662.595Z" fill="#E6E6E6"/>
<path id="Vector_346" d="M963.466 651.537H1000.49C1000.79 651.537 1001.1 651.601 1001.38 651.726C1001.66 651.851 1001.92 652.033 1002.14 652.264C1002.36 652.494 1002.53 652.768 1002.65 653.069C1002.76 653.37 1002.82 653.693 1002.82 654.018V657.296C1002.82 657.955 1002.58 658.586 1002.14 659.051C1001.7 659.516 1001.11 659.778 1000.49 659.778H963.466C962.846 659.778 962.252 659.516 961.813 659.051C961.375 658.586 961.129 657.955 961.129 657.296V654.018C961.129 653.693 961.189 653.37 961.307 653.069C961.424 652.768 961.596 652.494 961.813 652.264C962.03 652.033 962.288 651.851 962.572 651.726C962.855 651.601 963.159 651.537 963.466 651.537V651.537Z" fill="#3F3D56"/>
<path id="Vector_347" d="M1008.82 663.898C990.978 665.966 972.973 665.966 955.127 663.898C954.82 663.898 954.516 663.834 954.233 663.709C953.949 663.585 953.691 663.402 953.474 663.172C953.257 662.941 953.085 662.668 952.967 662.367C952.85 662.066 952.79 661.743 952.79 661.417V658.139C952.79 657.813 952.85 657.49 952.968 657.189C953.085 656.888 953.257 656.615 953.474 656.384C953.691 656.154 953.949 655.971 954.233 655.847C954.516 655.722 954.82 655.658 955.127 655.658C972.959 657.985 990.992 657.985 1008.82 655.658C1009.44 655.658 1010.04 655.919 1010.48 656.384C1010.92 656.85 1011.16 657.481 1011.16 658.139V661.417C1011.16 662.075 1010.92 662.706 1010.48 663.172C1010.04 663.637 1009.44 663.898 1008.82 663.898V663.898Z" fill="#3F3D56"/>
<path id="Vector_348" d="M980.892 701.977C986.465 701.977 990.982 697.182 990.982 691.267C990.982 685.353 986.465 680.558 980.892 680.558C975.32 680.558 970.802 685.353 970.802 691.267C970.802 697.182 975.32 701.977 980.892 701.977Z" fill="white"/>
<path id="Vector_349" d="M1006.83 713.798C1007.14 716.927 1006.73 720.088 1005.65 723.016C1004.57 725.944 1002.84 728.553 1000.61 730.626C998.383 732.698 995.718 734.173 992.841 734.927C989.964 735.68 986.959 735.69 984.077 734.956L948.013 725.766L948.875 705.342L984.232 696.671C986.79 696.044 989.445 696.001 992.02 696.545C994.595 697.089 997.032 698.208 999.169 699.827C1001.31 701.447 1003.09 703.53 1004.42 705.939C1005.74 708.347 1006.56 711.026 1006.83 713.798V713.798Z" fill="#FFB8B8"/>
<path id="Vector_350" d="M958.107 729.417L860.779 732C857.265 732.093 853.775 731.372 850.551 729.887C847.327 728.402 844.447 726.189 842.111 723.401C839.775 720.614 838.04 717.32 837.027 713.748C836.013 710.176 835.746 706.413 836.243 702.72V702.72C837.022 696.934 839.638 691.603 843.659 687.61L889.485 642.108C897.984 633.67 908.574 627.978 920.012 625.701L936.073 622.505L945.516 698.234L890.956 691.553L954.959 699.348L958.107 729.417Z" fill="#6C63FF"/>
</g>
<g id="laptop">
<g id="laptop_2">
<path id="Vector_351" d="M792.293 913H466.91C464.017 913 461.242 911.803 459.196 909.672C457.15 907.541 456 904.65 456 901.637V901.637C573.951 887.359 689.686 887.359 803.203 901.637C803.203 904.65 802.054 907.541 800.008 909.672C797.961 911.803 795.186 913 792.293 913Z" fill="#2F2E41"/>
<path id="Vector_352" d="M803.203 902.305L456 901.637L496.24 831.117L496.432 830.783V675.365C496.432 673.478 496.789 671.61 497.482 669.867C498.175 668.125 499.191 666.541 500.471 665.207C501.752 663.873 503.273 662.815 504.946 662.093C506.619 661.371 508.413 661 510.224 661H747.054C748.865 661 750.658 661.371 752.332 662.093C754.005 662.815 755.526 663.873 756.806 665.207C758.087 666.541 759.103 668.125 759.796 669.867C760.489 671.61 760.846 673.478 760.846 675.365V831.852L803.203 902.305Z" fill="#3F3D56"/>
<path id="Vector_353" d="M509.909 671.026C508.718 671.028 507.576 671.521 506.734 672.398C505.892 673.276 505.418 674.465 505.417 675.705V817.414C505.418 818.654 505.892 819.843 506.734 820.721C507.577 821.598 508.718 822.091 509.909 822.093H749.293C750.484 822.091 751.626 821.598 752.468 820.72C753.311 819.843 753.784 818.654 753.786 817.414V675.705C753.784 674.465 753.311 673.276 752.468 672.399C751.626 671.521 750.484 671.028 749.293 671.026L509.909 671.026Z" fill="white"/>
<path id="Vector_354" d="M511.483 840.809C511.115 840.81 510.755 840.92 510.445 841.127C510.135 841.333 509.888 841.628 509.734 841.976L497.335 870.05C497.2 870.356 497.14 870.692 497.163 871.027C497.185 871.363 497.288 871.687 497.462 871.97C497.636 872.253 497.876 872.487 498.16 872.648C498.443 872.809 498.761 872.894 499.083 872.894H759.83C760.158 872.894 760.481 872.807 760.767 872.64C761.054 872.474 761.295 872.234 761.467 871.943C761.64 871.652 761.738 871.32 761.753 870.979C761.768 870.637 761.698 870.297 761.551 869.992L748.074 841.917C747.915 841.584 747.669 841.303 747.365 841.107C747.061 840.911 746.71 840.808 746.352 840.809L511.483 840.809Z" fill="#2F2E41"/>
<path id="Vector_355" d="M628.639 668.687C630.234 668.687 631.527 667.34 631.527 665.679C631.527 664.018 630.234 662.671 628.639 662.671C627.044 662.671 625.751 664.018 625.751 665.679C625.751 667.34 627.044 668.687 628.639 668.687Z" fill="white"/>
<path id="Vector_356" d="M603.01 878.241C602.586 878.242 602.175 878.387 601.839 878.656C601.503 878.924 601.261 879.299 601.151 879.725L598.041 891.757C597.964 892.054 597.953 892.366 598.011 892.668C598.068 892.97 598.192 893.254 598.371 893.498C598.551 893.743 598.782 893.941 599.047 894.077C599.312 894.213 599.604 894.284 599.899 894.284H659.048C659.355 894.284 659.658 894.207 659.931 894.061C660.203 893.914 660.439 893.702 660.617 893.442C660.795 893.181 660.91 892.88 660.954 892.564C660.997 892.247 660.968 891.925 660.867 891.623L656.869 879.591C656.738 879.197 656.492 878.855 656.166 878.613C655.84 878.371 655.45 878.241 655.049 878.241H603.01Z" fill="#2F2E41"/>
<path id="Vector_357" d="M760.845 828.442V831.117H496.24L496.438 830.782V828.442H760.845Z" fill="#2F2E41"/>
</g>
<g id="Subash Pradhan&#226;&#128;&#168; WEB DEVELOPER">
<path d="M550.797 696.352C550.125 696.096 549.469 695.888 548.829 695.728C548.205 695.568 547.493 695.48 546.693 695.464C545.909 695.432 545.213 695.528 544.605 695.752C543.997 695.976 543.445 696.408 542.949 697.048C542.453 697.672 542.125 698.496 541.965 699.52C541.933 699.696 542.541 699.752 543.789 699.688C545.037 699.608 546.253 699.52 547.437 699.424C548.621 699.328 549.437 699.4 549.885 699.64C551.469 701.048 552.581 702.352 553.221 703.552C553.541 704.128 553.405 704.96 552.813 706.048C552.061 707.408 550.973 708.408 549.549 709.048C547.037 710.2 544.285 709.776 541.293 707.776C540.077 706.96 538.853 705.88 537.621 704.536L538.341 704.176C539.269 704.672 540.013 705.056 540.573 705.328C541.149 705.6 541.869 705.88 542.733 706.168C543.597 706.44 544.357 706.584 545.013 706.6C546.533 706.632 547.781 706.264 548.757 705.496C549.733 704.712 550.285 703.656 550.413 702.328C550.429 702.184 549.853 702.208 548.685 702.4C547.517 702.576 546.341 702.736 545.157 702.88C543.973 703.024 543.077 702.912 542.469 702.544C541.829 702.032 540.829 701.024 539.469 699.52C539.037 698.992 538.813 698.424 538.797 697.816C538.781 697.208 538.981 696.592 539.397 695.968C539.813 695.344 540.325 694.784 540.933 694.288C541.541 693.792 542.253 693.384 543.069 693.064C543.901 692.744 544.725 692.584 545.541 692.584C545.749 692.584 546.141 692.72 546.717 692.992C547.293 693.248 548.085 693.64 549.093 694.168C550.117 694.696 550.789 695.04 551.109 695.2L550.797 696.352ZM563.771 697.552L566.771 698.224V709.72L563.771 709.048V707.848C562.491 709.16 561.307 709.776 560.219 709.696C559.707 709.664 558.795 709.072 557.483 707.92C556.171 706.768 555.475 705.968 555.395 705.52C555.331 705.104 555.299 702.448 555.299 697.552L558.275 698.224C558.195 703.728 558.235 706.648 558.395 706.984C558.715 707.432 559.195 707.576 559.835 707.416C560.491 707.256 561.211 706.8 561.995 706.048C562.795 705.296 563.387 704.472 563.771 703.576V697.552ZM572.793 703.048V707.992C574.873 708.36 576.521 707.728 577.737 706.096C578.617 704.944 579.049 703.64 579.033 702.184C579.017 700.888 578.649 700.064 577.929 699.712C576.905 699.184 575.537 699.88 573.825 701.8C573.489 702.168 573.145 702.584 572.793 703.048ZM572.793 692.656V698.728C573.609 697.992 574.289 697.552 574.833 697.408C575.393 697.264 576.105 697.352 576.969 697.672C577.977 698.072 579.089 698.84 580.305 699.976C580.929 700.552 581.353 701.224 581.577 701.992C581.801 702.76 581.841 703.52 581.697 704.272C581.553 705.024 581.265 705.768 580.833 706.504C580.417 707.224 579.913 707.848 579.321 708.376C578.729 708.888 578.057 709.272 577.305 709.528C576.553 709.784 575.817 709.84 575.097 709.696C573.049 709.296 571.281 708.648 569.793 707.752V691.984L572.793 692.656ZM585.427 700.576L584.131 698.392C585.251 698.104 586.491 697.832 587.851 697.576C589.227 697.32 590.091 697.2 590.443 697.216C590.795 697.232 591.499 697.76 592.555 698.8C593.611 699.824 594.323 700.608 594.691 701.152C594.819 701.344 594.883 701.992 594.883 703.096C594.883 704.184 594.859 705.432 594.811 706.84C594.779 708.248 594.771 709.2 594.787 709.696L591.811 709L591.835 707.776C590.539 709.072 589.483 709.72 588.667 709.72C587.899 709.704 586.923 708.976 585.739 707.536C584.555 706.096 583.963 705.064 583.963 704.44C583.963 703.944 584.299 703.488 584.971 703.072C585.643 702.656 586.459 702.336 587.419 702.112C588.395 701.872 589.259 701.688 590.011 701.56C590.763 701.432 591.403 701.344 591.931 701.296L591.955 700.648C591.971 699.88 591.563 699.464 590.731 699.4C589.963 699.352 588.347 699.696 585.883 700.432H585.859L585.835 700.456H585.811H585.787L585.763 700.48H585.739H585.715L585.691 700.504H585.667H585.643L585.619 700.528H585.595H585.571H585.547L585.523 700.552H585.499H585.475L585.451 700.576H585.427ZM586.627 706.6C586.771 706.824 587.043 706.968 587.443 707.032C587.843 707.096 588.443 706.992 589.243 706.72C590.059 706.432 590.939 705.936 591.883 705.232L591.907 703.12C587.683 704.352 585.923 705.512 586.627 706.6ZM606.203 698.32L605.939 699.616C604.387 699.264 603.363 699.12 602.867 699.184C602.083 699.28 601.467 699.664 601.019 700.336C600.571 700.992 600.411 701.624 600.539 702.232C600.571 702.376 600.939 702.36 601.643 702.184C602.347 702.008 603.115 701.832 603.947 701.656C604.779 701.464 605.315 701.432 605.555 701.56C606.659 702.136 607.403 702.896 607.787 703.84C608.171 704.784 608.211 705.688 607.907 706.552C607.619 707.4 607.019 708.136 606.107 708.76C605.195 709.384 604.099 709.696 602.819 709.696C601.763 709.696 600.779 709.408 599.867 708.832C598.971 708.24 597.915 707.36 596.699 706.192L597.131 705.376C598.219 706.192 599.371 706.744 600.587 707.032C601.803 707.304 602.931 707.192 603.971 706.696C605.027 706.2 605.731 705.288 606.083 703.96C606.099 703.896 606.027 703.872 605.867 703.888C605.691 703.904 605.251 704.008 604.547 704.2C602.323 704.792 600.907 704.968 600.299 704.728L600.083 704.608C599.203 703.936 598.491 703.2 597.947 702.4C597.547 701.856 597.379 701.28 597.443 700.672C597.523 700.064 597.731 699.512 598.067 699.016C598.403 698.504 598.907 698.088 599.579 697.768C600.251 697.432 600.987 697.264 601.787 697.264C602.027 697.264 602.363 697.312 602.795 697.408C603.243 697.504 603.867 697.672 604.667 697.912C605.483 698.136 605.995 698.272 606.203 698.32ZM613.2 692.632V699.304C614.688 697.88 615.976 697.208 617.064 697.288C617.576 697.32 618.472 697.96 619.752 699.208C621.048 700.44 621.736 701.28 621.816 701.728C621.88 702.144 621.911 704.8 621.911 709.696L618.936 709.024C619.032 703.536 618.992 700.632 618.816 700.312C618.512 699.752 618.016 699.592 617.328 699.832C616.656 700.056 615.952 700.472 615.216 701.08C614.496 701.672 613.824 702.344 613.2 703.096V709.696L610.2 709.024V691.96L613.2 692.632ZM633.078 709V692.944C634.534 692.544 636.158 692.28 637.95 692.152C639.758 692.024 640.894 692.12 641.358 692.44C641.838 692.872 642.59 693.6 643.614 694.624C644.638 695.648 645.35 696.392 645.75 696.856C645.99 697.144 646.054 697.632 645.942 698.32C645.83 698.992 645.55 699.704 645.102 700.456C644.654 701.192 644.03 701.88 643.23 702.52C642.43 703.144 641.462 703.56 640.326 703.768C639.19 703.96 637.886 703.84 636.414 703.408L636.438 709.696L633.078 709ZM642.39 695.128C641.542 694.184 639.542 694.016 636.39 694.624L636.414 702.28C637.566 702.408 638.59 702.296 639.486 701.944C640.382 701.576 641.062 701.08 641.526 700.456C641.99 699.832 642.334 699.168 642.558 698.464C642.798 697.744 642.894 697.08 642.846 696.472C642.798 695.864 642.646 695.416 642.39 695.128ZM651.52 698.2V699.976C652.688 698.136 653.68 697.216 654.496 697.216C654.896 697.216 655.568 697.424 656.512 697.84C657.456 698.24 658.248 698.656 658.888 699.088L657.232 701.488C656.24 700.752 655.376 700.352 654.64 700.288C653.92 700.208 653.344 700.352 652.912 700.72C652.48 701.072 652.016 701.648 651.52 702.448V709.696L648.52 709.024V697.528L651.52 698.2ZM661.364 700.576L660.068 698.392C661.188 698.104 662.428 697.832 663.788 697.576C665.164 697.32 666.028 697.2 666.38 697.216C666.732 697.232 667.436 697.76 668.492 698.8C669.548 699.824 670.26 700.608 670.628 701.152C670.756 701.344 670.82 701.992 670.82 703.096C670.82 704.184 670.796 705.432 670.748 706.84C670.716 708.248 670.708 709.2 670.724 709.696L667.748 709L667.772 707.776C666.476 709.072 665.42 709.72 664.604 709.72C663.836 709.704 662.86 708.976 661.676 707.536C660.492 706.096 659.9 705.064 659.9 704.44C659.9 703.944 660.236 703.488 660.908 703.072C661.58 702.656 662.396 702.336 663.356 702.112C664.332 701.872 665.196 701.688 665.948 701.56C666.7 701.432 667.34 701.344 667.868 701.296L667.892 700.648C667.908 699.88 667.5 699.464 666.668 699.4C665.9 699.352 664.284 699.696 661.82 700.432H661.796L661.772 700.456H661.748H661.724L661.7 700.48H661.676H661.652L661.628 700.504H661.604H661.58L661.556 700.528H661.532H661.508H661.484L661.46 700.552H661.436H661.412L661.388 700.576H661.364ZM662.564 706.6C662.708 706.824 662.98 706.968 663.38 707.032C663.78 707.096 664.38 706.992 665.18 706.72C665.996 706.432 666.876 705.936 667.82 705.232L667.844 703.12C663.62 704.352 661.86 705.512 662.564 706.6ZM677.076 707.776C678.34 708.416 679.868 708.104 681.66 706.84V700.096C681.196 699.824 680.548 699.64 679.716 699.544C679.06 699.48 678.42 699.816 677.796 700.552C677.172 701.272 676.7 702.112 676.38 703.072C676.06 704.032 675.94 704.984 676.02 705.928C676.116 706.856 676.468 707.472 677.076 707.776ZM681.66 691.96L684.66 692.632C684.756 703.432 684.756 708.88 684.66 708.976C684.58 708.992 684.164 709.08 683.412 709.24C682.676 709.416 682.204 709.52 681.996 709.552C681.788 709.584 681.356 709.632 680.7 709.696C680.06 709.76 679.548 709.76 679.164 709.696C678.796 709.632 678.332 709.52 677.772 709.36C677.212 709.216 676.676 709 676.164 708.712C675.252 708.216 674.548 707.608 674.052 706.888C673.556 706.168 673.292 705.432 673.26 704.68C673.228 703.928 673.316 703.168 673.524 702.4C673.732 701.616 674.06 700.904 674.508 700.264C674.972 699.608 675.46 699.032 675.972 698.536C676.5 698.04 677.052 697.688 677.628 697.48C678.204 697.256 678.716 697.216 679.164 697.36C679.372 697.424 679.588 697.52 679.812 697.648C680.052 697.76 680.244 697.864 680.388 697.96C680.548 698.056 680.764 698.2 681.036 698.392C681.324 698.584 681.532 698.72 681.66 698.8V691.96ZM690.754 692.632V699.304C692.242 697.88 693.53 697.208 694.618 697.288C695.13 697.32 696.026 697.96 697.306 699.208C698.602 700.44 699.29 701.28 699.37 701.728C699.434 702.144 699.466 704.8 699.466 709.696L696.49 709.024C696.586 703.536 696.546 700.632 696.37 700.312C696.066 699.752 695.57 699.592 694.882 699.832C694.21 700.056 693.506 700.472 692.77 701.08C692.05 701.672 691.378 702.344 690.754 703.096V709.696L687.754 709.024V691.96L690.754 692.632ZM703.107 700.576L701.811 698.392C702.931 698.104 704.171 697.832 705.531 697.576C706.907 697.32 707.771 697.2 708.123 697.216C708.475 697.232 709.179 697.76 710.235 698.8C711.291 699.824 712.003 700.608 712.371 701.152C712.499 701.344 712.562 701.992 712.562 703.096C712.562 704.184 712.539 705.432 712.491 706.84C712.459 708.248 712.451 709.2 712.467 709.696L709.491 709L709.515 707.776C708.219 709.072 707.163 709.72 706.347 709.72C705.579 709.704 704.603 708.976 703.419 707.536C702.235 706.096 701.643 705.064 701.643 704.44C701.643 703.944 701.979 703.488 702.651 703.072C703.323 702.656 704.139 702.336 705.099 702.112C706.075 701.872 706.939 701.688 707.691 701.56C708.443 701.432 709.083 701.344 709.611 701.296L709.635 700.648C709.651 699.88 709.243 699.464 708.411 699.4C707.643 699.352 706.027 699.696 703.562 700.432H703.539L703.515 700.456H703.491H703.467L703.443 700.48H703.419H703.395L703.371 700.504H703.347H703.323L703.299 700.528H703.275H703.251H703.227L703.203 700.552H703.179H703.155L703.131 700.576H703.107ZM704.307 706.6C704.451 706.824 704.723 706.968 705.123 707.032C705.523 707.096 706.123 706.992 706.923 706.72C707.739 706.432 708.619 705.936 709.563 705.232L709.587 703.12C705.363 704.352 703.603 705.512 704.307 706.6ZM718.53 698.2V699.184C719.954 697.856 721.202 697.224 722.274 697.288C722.786 697.32 723.682 697.96 724.962 699.208C726.258 700.44 726.946 701.28 727.026 701.728C727.09 702.144 727.122 704.8 727.122 709.696L724.146 709.024C724.242 703.536 724.202 700.632 724.026 700.312C723.738 699.768 723.258 699.608 722.586 699.832C721.93 700.04 721.242 700.424 720.522 700.984C719.818 701.544 719.154 702.2 718.53 702.952V709.696L715.41 709.024V697.528L718.53 698.2Z" fill="url(#paint0_linear)"/>
<path d="M532.935 778.712L532.959 778.664L526.527 763.016L529.863 763.712L534.279 774.752L538.215 763.016L541.815 763.712L546.231 774.752L550.167 763.016L553.767 763.712L548.439 779.696L544.887 778.712L544.911 778.664L540.423 767.84L536.487 779.696L532.935 778.712ZM557.929 779L557.881 778.952L554.809 778.304V762.992H565.057L566.977 765.152H558.121V769.76H564.097L566.017 771.92H558.145V776.84H566.017L567.937 779H557.929ZM573.285 765.176L573.309 770.576C574.541 770.576 575.605 770.424 576.501 770.12C577.397 769.8 578.053 769.416 578.469 768.968C578.885 768.504 579.189 768.016 579.381 767.504C579.573 766.992 579.637 766.528 579.573 766.112C579.525 765.696 579.413 765.392 579.237 765.2C578.933 764.88 578.445 764.68 577.773 764.6C577.117 764.504 576.413 764.52 575.661 764.648C574.909 764.76 574.117 764.936 573.285 765.176ZM573.309 771.776L573.333 777.752C576.181 778.04 578.269 777.552 579.597 776.288C580.461 775.456 580.773 774.52 580.533 773.48C580.373 772.776 579.973 772.208 579.333 771.776C577.685 772.48 575.677 772.48 573.309 771.776ZM573.333 779.024L569.973 778.28V762.944C571.301 762.576 572.909 762.376 574.797 762.344C576.701 762.312 577.845 762.44 578.229 762.728C578.725 763.048 579.389 763.608 580.221 764.408C581.069 765.208 581.733 765.888 582.213 766.448C582.421 766.784 582.525 767.2 582.525 767.696C582.525 768.192 582.349 768.768 581.997 769.424C581.645 770.064 581.173 770.608 580.581 771.056C581.877 771.808 582.933 772.648 583.749 773.576C584.021 773.896 584.125 774.352 584.061 774.944C583.997 775.536 583.749 776.152 583.317 776.792C582.885 777.432 582.229 778 581.349 778.496C580.485 778.992 579.389 779.304 578.061 779.432C576.749 779.576 575.173 779.44 573.333 779.024ZM598.388 778.976H598.364L595.028 778.28V763.016L595.052 763.04V763.016C595.74 762.792 597.156 762.664 599.3 762.632C601.444 762.6 602.836 762.752 603.476 763.088C605.156 764.256 607.356 766.4 610.076 769.52C610.236 769.712 610.364 770.08 610.46 770.624C610.556 771.168 610.556 771.824 610.46 772.592C610.364 773.36 610.172 774.136 609.884 774.92C609.596 775.704 609.092 776.464 608.372 777.2C607.652 777.936 606.772 778.504 605.732 778.904C604.772 779.24 603.612 779.4 602.252 779.384C600.892 779.384 599.604 779.248 598.388 778.976ZM605.636 766.856C605.076 766.392 604.484 766.032 603.86 765.776C603.252 765.52 602.588 765.376 601.868 765.344C601.164 765.296 600.588 765.288 600.14 765.32C599.692 765.352 599.092 765.416 598.34 765.512L598.388 777.536C599.492 777.68 600.548 777.6 601.556 777.296C602.564 776.976 603.428 776.504 604.148 775.88C604.868 775.256 605.476 774.536 605.972 773.72C606.468 772.888 606.788 772.056 606.932 771.224C607.092 770.392 607.068 769.584 606.86 768.8C606.652 768.016 606.244 767.368 605.636 766.856ZM616.523 779L616.475 778.952L613.403 778.304V762.992H623.651L625.571 765.152H616.715V769.76H622.691L624.611 771.92H616.739V776.84H624.611L626.531 779H616.523ZM633.295 778.712L633.319 778.664L626.887 763.016L630.223 763.712L634.687 774.896L639.055 763.016L642.655 763.712L636.847 779.696L633.295 778.712ZM647.226 779L647.178 778.952L644.106 778.304V762.992H654.354L656.274 765.152H647.418V769.76H653.394L655.314 771.92H647.442V776.84H655.314L657.234 779H647.226ZM662.582 763.976L662.606 776.84H669.998L671.918 779H662.63L659.27 778.304V762.992L662.582 763.976ZM684.672 765.272C683.072 764.216 681.488 764.272 679.92 765.44C678.656 766.4 677.736 767.784 677.16 769.592C676.536 771.608 676.6 773.344 677.352 774.8C677.72 775.536 678.264 776.12 678.984 776.552C680.6 777.528 682.184 777.416 683.736 776.216C685 775.24 685.904 773.84 686.448 772.016C687.04 770 686.928 768.272 686.112 766.832C685.76 766.192 685.28 765.672 684.672 765.272ZM688.416 766.448C689.024 767.04 689.48 767.744 689.784 768.56C690.088 769.36 690.232 770.184 690.216 771.032C690.216 771.864 690.08 772.712 689.808 773.576C689.552 774.44 689.192 775.248 688.728 776C688.28 776.736 687.736 777.4 687.096 777.992C686.456 778.568 685.768 779.008 685.032 779.312C684.296 779.616 683.496 779.744 682.632 779.696C681.768 779.648 680.92 779.384 680.088 778.904C679.96 778.824 679.728 778.696 679.392 778.52C679.072 778.344 678.84 778.224 678.696 778.16C678.568 778.08 678.368 777.96 678.096 777.8C677.824 777.624 677.592 777.472 677.4 777.344C677.224 777.2 677 777.032 676.728 776.84C676.472 776.632 676.208 776.408 675.936 776.168C675.664 775.928 675.376 775.656 675.072 775.352C674.48 774.792 674.04 774.12 673.752 773.336C673.48 772.552 673.352 771.744 673.368 770.912C673.4 770.08 673.544 769.24 673.8 768.392C674.056 767.528 674.408 766.72 674.856 765.968C675.32 765.2 675.864 764.52 676.488 763.928C677.112 763.32 677.768 762.848 678.456 762.512C679.16 762.16 679.912 761.984 680.712 761.984C681.512 761.984 682.296 762.192 683.064 762.608C685.144 763.728 686.928 765.008 688.416 766.448ZM693.114 779V762.944C694.57 762.544 696.194 762.28 697.986 762.152C699.794 762.024 700.93 762.12 701.394 762.44C701.874 762.872 702.626 763.6 703.65 764.624C704.674 765.648 705.386 766.392 705.786 766.856C706.026 767.144 706.09 767.632 705.978 768.32C705.866 768.992 705.586 769.704 705.138 770.456C704.69 771.192 704.066 771.88 703.266 772.52C702.466 773.144 701.498 773.56 700.362 773.768C699.226 773.96 697.922 773.84 696.45 773.408L696.474 779.696L693.114 779ZM702.426 765.128C701.578 764.184 699.578 764.016 696.426 764.624L696.45 772.28C697.602 772.408 698.626 772.296 699.522 771.944C700.418 771.576 701.098 771.08 701.562 770.456C702.026 769.832 702.37 769.168 702.594 768.464C702.834 767.744 702.93 767.08 702.882 766.472C702.834 765.864 702.682 765.416 702.426 765.128ZM711.82 779L711.772 778.952L708.7 778.304V762.992H718.948L720.868 765.152H712.012V769.76H717.988L719.908 771.92H712.036V776.84H719.908L721.828 779H711.82ZM733.632 774.008C733.488 773.736 733.12 773.344 732.528 772.832C730.976 773.408 729.2 773.472 727.2 773.024L727.224 779.696L723.864 779V762.944C725.32 762.544 726.944 762.28 728.736 762.152C730.544 762.024 731.68 762.12 732.144 762.44C732.624 762.872 733.376 763.6 734.4 764.624C735.424 765.648 736.136 766.392 736.536 766.856C736.952 767.368 736.904 768.2 736.392 769.352C735.896 770.504 735.04 771.456 733.824 772.208C735.52 772.928 736.44 773.368 736.584 773.528C736.792 773.832 736.936 774.184 737.016 774.584C737.112 774.968 737.16 775.296 737.16 775.568C737.16 775.84 737.144 776.224 737.112 776.72C737.08 777.216 737.064 777.552 737.064 777.728C737.064 777.888 737.048 778.136 737.016 778.472C737 778.792 736.992 779.032 736.992 779.192C736.992 779.352 737.016 779.552 737.064 779.792C737.112 780.048 737.192 780.248 737.304 780.392C737.416 780.536 737.584 780.688 737.808 780.848C738.032 781.008 738.32 781.144 738.672 781.256C737.408 781.512 736.352 781.304 735.504 780.632C734.672 779.976 734.216 779.008 734.136 777.728C734.136 777.632 734.12 777.336 734.088 776.84C734.072 776.344 734.048 775.984 734.016 775.76C734 775.536 733.96 775.248 733.896 774.896C733.832 774.528 733.744 774.232 733.632 774.008ZM733.224 765.152C732.28 764.256 730.264 764.128 727.176 764.768L727.2 771.488C728.32 771.504 729.328 771.344 730.224 771.008C731.136 770.656 731.832 770.216 732.312 769.688C732.792 769.144 733.16 768.576 733.416 767.984C733.672 767.392 733.776 766.84 733.728 766.328C733.68 765.816 733.512 765.424 733.224 765.152Z" fill="url(#paint1_linear)"/>
</g>
</g>
<g id="lines">
<path id="Vector 4" d="M542 756.5L581.5 734.968H629.5L679.5 716H719.5" stroke="#0A0909"/>
<path id="Vector 5" d="M542 760.5L581.5 738.968H629.5L679.5 720H719.5" stroke="#0A0909"/>
<path id="Vector 8" d="M542 752.5L581.5 730.968H629.5L679.5 712H719.5" stroke="#0A0909"/>
</g>
</g>
<defs>
<linearGradient id="paint0_linear" x1="632.5" y1="685" x2="632.5" y2="809" gradientUnits="userSpaceOnUse">
<stop stop-color="#110DEA"/>
<stop offset="1" stop-color="#51FF6D" stop-opacity="0.97"/>
</linearGradient>
<linearGradient id="paint1_linear" x1="632.5" y1="685" x2="632.5" y2="809" gradientUnits="userSpaceOnUse">
<stop stop-color="#D9633D"/>
<stop offset="0.317708" stop-color="#3D54A9"/>
<stop offset="0.619792" stop-color="#47481E"/>
</linearGradient>
</defs>
</svg>
