<svg width="320" height="131" viewBox="0 0 320 131" fill="none" xmlns="http://www.w3.org/2000/svg">
<path d="M49.4404 69.7119C49.4404 68.3858 48.9553 67.1674 48.1587 66.5092L26.9339 48.9522C26.5748 48.6488 26.173 48.4922 25.7645 48.4678C25.7288 48.4678 25.5756 48.4678 25.5449 48.4678C25.1398 48.4922 24.7364 48.6488 24.3738 48.9522L3.14909 66.5092C2.35757 67.1674 1.86563 68.3858 1.86563 69.7119L1.91159 116.986C1.91159 117.644 2.1499 118.256 2.55162 118.576C2.94483 118.916 3.43166 118.916 3.82486 118.576L16.4382 108.195C17.2365 107.515 17.7216 106.311 17.7216 104.997V82.9115C17.7216 81.5952 18.2068 80.3768 19.0017 79.7211L24.3721 75.2755C24.7721 74.9428 25.2096 74.7813 25.6573 74.7813C26.0947 74.7813 26.5441 74.9428 26.9322 75.2755L32.301 79.7211C33.0959 80.3768 33.5827 81.5952 33.5827 82.9115V104.997C33.5827 106.311 34.0747 107.52 34.8679 108.195L47.4778 118.576C47.8727 118.916 48.368 118.916 48.7595 118.576C49.1493 118.253 49.3962 117.641 49.3962 116.986L49.4404 69.7119Z" fill="white"/>
<path d="M162.773 4.72466C162.376 4.4066 161.891 4.41394 161.498 4.74424C161.106 5.07453 160.865 5.67885 160.865 6.3321V53.1484C160.865 53.6084 160.693 54.0341 160.417 54.2641C160.14 54.494 159.797 54.494 159.52 54.2641L154.204 49.8626C153.411 49.2044 152.435 49.2069 151.642 49.865L130.409 67.4783C129.616 68.1365 129.127 69.3524 129.127 70.6687V105.9C129.127 107.217 129.616 108.432 130.409 109.093L151.641 126.719C152.434 127.377 153.411 127.377 154.206 126.719L175.441 109.093C176.234 108.432 176.722 107.217 176.722 105.9V18.0784C176.722 16.7425 176.22 15.5119 175.408 14.8611L162.773 4.72466ZM160.803 94.3277C160.803 94.6555 160.681 94.9613 160.483 95.1253L153.193 101.166C152.995 101.33 152.75 101.33 152.553 101.166L145.262 95.1253C145.063 94.9613 144.942 94.658 144.942 94.3277V82.2291C144.942 81.9012 145.065 81.5954 145.262 81.4315L152.553 75.3785C152.752 75.2146 152.995 75.2146 153.195 75.3785L160.485 81.4315C160.683 81.5954 160.805 81.9012 160.805 82.2291L160.803 94.3277Z" fill="white"/>
<path d="M238.737 81.9108C239.527 81.2502 240.012 80.0367 240.012 78.7253V70.1865C240.012 68.8727 239.525 67.6592 238.735 66.9986L217.638 49.3926C216.845 48.7296 215.865 48.7271 215.07 49.3877L193.845 67.001C193.052 67.6592 192.563 68.8751 192.563 70.1914V105.416C192.563 106.739 193.058 107.963 193.858 108.618L214.952 125.894C215.73 126.532 216.683 126.54 217.466 125.913L230.224 115.721C230.629 115.398 230.881 114.786 230.883 114.123C230.886 113.46 230.64 112.844 230.24 112.513L208.88 94.8926C208.482 94.5648 208.237 93.9531 208.237 93.295V82.2558C208.237 81.5976 208.482 80.9884 208.879 80.6606L215.526 75.1507C215.921 74.8229 216.411 74.8229 216.806 75.1507L223.456 80.6606C223.853 80.9884 224.098 81.5976 224.098 82.2558V90.9413C224.098 91.6019 224.343 92.2111 224.74 92.539C225.136 92.8693 225.627 92.8668 226.023 92.5365L238.737 81.9108Z" fill="white"/>
<path d="M88.0497 49.2041C88.843 48.5459 89.82 48.5459 90.6132 49.2041L111.843 66.8125C112.636 67.4706 113.125 68.6866 113.125 70.0053V105.251C113.125 106.568 112.636 107.784 111.843 108.444L90.6132 126.067C89.82 126.726 88.8412 126.726 88.048 126.067L66.8233 108.444C66.0301 107.784 65.5415 106.568 65.5415 105.251V70.0053C65.5415 68.689 66.0301 67.4731 66.8233 66.8149L88.0497 49.2041Z" fill="#80BD01"/>
<path d="M279.957 126.569C279.226 126.569 278.499 126.295 277.859 125.762L271.174 120.078C270.177 119.276 270.663 118.992 270.992 118.826C272.323 118.163 272.594 118.008 274.013 116.849C274.161 116.729 274.357 116.775 274.51 116.903L279.646 121.284C279.831 121.434 280.095 121.434 280.266 121.284L300.285 104.677C300.471 104.523 300.592 104.217 300.592 103.899V70.693C300.592 70.3676 300.472 70.0642 300.28 69.9003L280.269 53.3073C280.085 53.1531 279.838 53.1531 279.653 53.3073L259.647 69.9052C259.453 70.0642 259.33 70.3774 259.33 70.693V103.899C259.33 104.217 259.453 104.518 259.645 104.667L265.13 109.22C268.105 111.358 269.926 108.841 269.926 106.311V73.5262C269.926 73.0638 270.185 72.6968 270.509 72.6968H273.047C273.363 72.6968 273.627 73.0614 273.627 73.5262V106.311C273.627 112.019 271.465 115.293 267.7 115.293C266.542 115.293 265.632 115.293 263.089 113.492L257.839 109.149C256.542 108.073 255.74 106.057 255.74 103.899V70.693C255.74 68.5351 256.544 66.5215 257.839 65.4474L277.859 48.8201C279.125 47.7901 280.809 47.7901 282.066 48.8201L302.084 65.4474C303.381 66.524 304.187 68.5351 304.187 70.693V103.899C304.187 106.057 303.38 108.063 302.084 109.149L282.066 125.762C281.425 126.295 280.7 126.569 279.957 126.569Z" fill="#80BD01"/>
<path d="M286.142 103.693C277.382 103.693 275.545 97.9141 275.545 93.0649C275.545 92.605 275.802 92.2355 276.124 92.2355H278.711C279.001 92.2355 279.241 92.534 279.287 92.9401C279.677 96.7275 280.843 98.6384 286.14 98.6384C290.358 98.6384 292.152 97.2658 292.152 94.0509C292.152 92.1964 291.643 90.8214 285.09 89.899C279.612 89.121 276.225 87.3814 276.225 81.0813C276.225 75.2755 279.629 71.8135 285.338 71.8135C291.752 71.8135 294.925 75.0137 295.327 81.8765C295.342 82.1138 295.284 82.3389 295.173 82.5175C295.064 82.6814 294.911 82.7817 294.75 82.7817H292.152C291.883 82.7817 291.645 82.5077 291.59 82.1309C290.967 78.1454 289.451 76.8731 285.338 76.8731C280.734 76.8731 280.197 79.1778 280.197 80.9052C280.197 82.997 280.829 83.6062 287.045 84.7904C293.197 85.9599 296.12 87.6138 296.12 93.8283C296.122 100.101 292.486 103.693 286.142 103.693Z" fill="#80BD01"/>
<path d="M216.042 80.2617C216.193 80.1345 216.382 80.1345 216.533 80.2617L220.609 83.6405C220.76 83.7677 220.855 84.0001 220.855 84.2546V91.0171C220.855 91.2691 220.762 91.504 220.609 91.6287L216.533 95.0075C216.382 95.1348 216.193 95.1348 216.042 95.0075L211.97 91.6287C211.818 91.5015 211.723 91.2691 211.723 91.0171V84.2546C211.723 84.0001 211.817 83.7677 211.97 83.6405L216.042 80.2617Z" fill="#80BD01"/>
</svg>
