<svg width="150" height="150" viewBox="0 0 150 150" fill="none" xmlns="http://www.w3.org/2000/svg">
<path d="M23.1752 79.8226C23.1752 78.3042 22.9478 76.9091 22.5744 76.1555L12.6253 56.052C12.4569 55.7046 12.2686 55.5253 12.0771 55.4973C12.0604 55.4973 11.9885 55.4973 11.9742 55.4973C11.7843 55.5253 11.5952 55.7046 11.4252 56.052L1.47613 76.1555C1.10511 76.9091 0.874512 78.3042 0.874512 79.8226L0.896055 133.953C0.896055 134.707 1.00776 135.407 1.19607 135.774C1.38038 136.163 1.60859 136.163 1.7929 135.774L7.70539 123.887C8.07961 123.108 8.30701 121.73 8.30701 120.226V94.9367C8.30701 93.4295 8.53441 92.0343 8.90703 91.2835L11.4244 86.1932C11.6119 85.8122 11.817 85.6273 12.0268 85.6273C12.2319 85.6273 12.4426 85.8122 12.6245 86.1932L15.1411 91.2835C15.5137 92.0343 15.7419 93.4295 15.7419 94.9367V120.226C15.7419 121.73 15.9725 123.114 16.3443 123.887L22.2552 135.774C22.4403 136.163 22.6725 136.163 22.856 135.774C23.0388 135.404 23.1544 134.704 23.1544 133.953L23.1752 79.8226Z" fill="#333333"/>
<path d="M76.2998 5.40989C76.1139 5.0457 75.8865 5.0541 75.7022 5.4323C75.5186 5.8105 75.4053 6.50247 75.4053 7.25047V60.8569C75.4053 61.3836 75.3248 61.8711 75.1955 62.1344C75.0654 62.3977 74.9051 62.3977 74.775 62.1344L72.2831 57.0945C71.9113 56.3409 71.4541 56.3437 71.0823 57.0973L61.1292 77.2652C60.7574 78.0188 60.5284 79.4112 60.5284 80.9184V121.26C60.5284 122.767 60.7574 124.159 61.1292 124.916L71.0815 145.098C71.4533 145.851 71.9113 145.851 72.2839 145.098L82.2378 124.916C82.6096 124.159 82.8386 122.767 82.8386 121.26V20.7004C82.8386 19.1708 82.6033 17.7616 82.2227 17.0164L76.2998 5.40989ZM75.3766 108.009C75.3766 108.384 75.3192 108.734 75.2266 108.922L71.8092 115.839C71.7166 116.027 71.6017 116.027 71.5092 115.839L68.0917 108.922C67.9984 108.734 67.9417 108.387 67.9417 108.009V94.1554C67.9417 93.78 67.9992 93.4298 68.0917 93.2421L71.5092 86.3112C71.6025 86.1235 71.7166 86.1235 71.81 86.3112L75.2274 93.2421C75.32 93.4298 75.3774 93.78 75.3774 94.1554L75.3766 108.009Z" fill="#333333"/>
<path d="M111.908 93.7911C112.278 93.0347 112.506 91.6451 112.506 90.1435V80.3663C112.506 78.8619 112.277 77.4724 111.907 76.716L102.018 56.5565C101.646 55.7973 101.186 55.7945 100.814 56.5509L90.8648 76.7188C90.4929 77.4724 90.2639 78.8647 90.2639 80.3719V120.705C90.2639 122.221 90.4961 123.621 90.8712 124.372L100.759 144.153C101.123 144.885 101.57 144.893 101.937 144.176L107.918 132.505C108.108 132.135 108.226 131.435 108.226 130.675C108.228 129.916 108.112 129.21 107.925 128.832L97.9127 108.656C97.726 108.28 97.6111 107.58 97.6111 106.826V94.1861C97.6111 93.4325 97.726 92.7349 97.9119 92.3595L101.028 86.0506C101.213 85.6752 101.443 85.6752 101.628 86.0506L104.745 92.3595C104.931 92.7349 105.046 93.4325 105.046 94.1861V104.131C105.046 104.888 105.161 105.585 105.347 105.961C105.533 106.339 105.762 106.336 105.948 105.958L111.908 93.7911Z" fill="#333333"/>
<path d="M41.2733 56.3406C41.6451 55.587 42.1031 55.587 42.475 56.3406L52.4264 76.5029C52.7983 77.2565 53.0273 78.6488 53.0273 80.1588V120.517C53.0273 122.024 52.7983 123.417 52.4264 124.173L42.475 144.352C42.1031 145.106 41.6443 145.106 41.2725 144.352L31.3234 124.173C30.9516 123.417 30.7226 122.024 30.7226 120.517V80.1588C30.7226 78.6516 30.9516 77.2593 31.3234 76.5057L41.2733 56.3406Z" fill="#80BD01"/>
<path d="M131.23 144.927C130.887 144.927 130.546 144.613 130.246 144.002L127.113 137.494C126.645 136.575 126.873 136.25 127.027 136.06C127.651 135.301 127.778 135.124 128.444 133.796C128.513 133.659 128.605 133.712 128.677 133.858L131.084 138.875C131.171 139.046 131.295 139.046 131.374 138.875L140.759 119.859C140.846 119.682 140.902 119.332 140.902 118.968V80.9462C140.902 80.5736 140.846 80.2262 140.756 80.0385L131.376 61.0389C131.29 60.8624 131.174 60.8624 131.087 61.0389L121.709 80.0441C121.618 80.2262 121.561 80.5848 121.561 80.9462V118.968C121.561 119.332 121.618 119.677 121.709 119.848L124.279 125.061C125.674 127.51 126.528 124.627 126.528 121.73V84.1903C126.528 83.6609 126.649 83.2406 126.801 83.2406H127.991C128.139 83.2406 128.263 83.6581 128.263 84.1903V121.73C128.263 128.266 127.249 132.015 125.484 132.015C124.942 132.015 124.515 132.015 123.323 129.953L120.862 124.98C120.254 123.747 119.878 121.439 119.878 118.968V80.9462C119.878 78.4753 120.255 76.1697 120.862 74.9398L130.246 55.9009C130.84 54.7215 131.629 54.7215 132.219 55.9009L141.602 74.9398C142.21 76.1725 142.587 78.4753 142.587 80.9462V118.968C142.587 121.439 142.209 123.736 141.602 124.98L132.219 144.002C131.918 144.613 131.578 144.927 131.23 144.927Z" fill="#80BD01"/>
<path d="M134.129 118.733C130.023 118.733 129.162 112.116 129.162 106.563C129.162 106.036 129.282 105.613 129.433 105.613H130.646C130.782 105.613 130.894 105.955 130.916 106.42C131.098 110.757 131.645 112.945 134.128 112.945C136.105 112.945 136.946 111.373 136.946 107.692C136.946 105.568 136.708 103.994 133.636 102.938C131.068 102.047 129.48 100.055 129.48 92.8413C129.48 86.1934 131.076 82.2292 133.752 82.2292C136.759 82.2292 138.246 85.8936 138.434 93.7518C138.442 94.0235 138.414 94.2812 138.363 94.4858C138.311 94.6735 138.24 94.7883 138.164 94.7883H136.946C136.82 94.7883 136.708 94.4745 136.683 94.0431C136.391 89.4795 135.68 88.0227 133.752 88.0227C131.594 88.0227 131.343 90.6617 131.343 92.6396C131.343 95.0348 131.639 95.7324 134.553 97.0883C137.436 98.4274 138.806 100.321 138.806 107.437C138.807 114.62 137.103 118.733 134.129 118.733Z" fill="#80BD01"/>
<path d="M101.269 91.9027C101.34 91.757 101.429 91.757 101.5 91.9027L103.41 95.7716C103.481 95.9172 103.526 96.1834 103.526 96.4747V104.218C103.526 104.507 103.482 104.776 103.41 104.918L101.5 108.787C101.429 108.933 101.34 108.933 101.269 108.787L99.3609 104.918C99.2899 104.773 99.2452 104.507 99.2452 104.218V96.4747C99.2452 96.1834 99.2891 95.9172 99.3609 95.7716L101.269 91.9027Z" fill="#80BD01"/>
<path d="M149.082 66.2047C149.082 69.6982 148.268 72.5557 147.273 72.5557C146.287 72.5557 145.464 69.7346 145.464 66.2047C145.464 62.6104 146.306 59.8538 147.273 59.8538C148.249 59.8538 149.082 62.6104 149.082 66.2047ZM145.757 66.1879C145.757 69.1463 146.437 71.5304 147.269 71.5304C148.111 71.5304 148.79 69.0931 148.79 66.1879C148.79 63.2324 148.102 60.8791 147.269 60.8791C146.445 60.8791 145.757 63.1959 145.757 66.1879ZM146.594 62.644H147.293C147.532 62.644 148.001 62.644 148.001 64.5266C148.001 65.8377 147.762 66.1039 147.618 66.272C147.897 66.3392 147.915 66.9779 147.953 67.8856C147.973 68.4571 148.002 69.432 148.059 69.7654H147.629C147.618 69.4292 147.551 67.6139 147.551 67.5158C147.523 67.1124 147.484 66.9107 147.341 66.9107H146.987V69.7654H146.595V62.644H146.594V62.644ZM146.977 65.7677H147.293C147.55 65.7677 147.599 65.129 147.599 64.762C147.599 63.787 147.408 63.787 147.302 63.787H146.978V65.7677H146.977Z" fill="#80BD01"/>
</svg>
