<svg width="114" height="111" viewBox="0 0 114 111" fill="none" xmlns="http://www.w3.org/2000/svg">
<path d="M21.9986 16.5C13.4881 17.3072 9.53586 19.8601 3.49864 27C-2.59603 35.6562 3.72307 43.2007 8.99864 55C14.6143 59.3218 18.6479 56.9044 26.4986 49C34.0491 50.4267 34.9473 54.8733 34.9986 64.5C32.5098 67.1193 28.1369 67.712 15.9986 67.5C15.2056 76.4609 16.7359 103.738 26.4986 92C36.2614 80.2622 40.1795 84.3468 45.9986 87C44.3619 95.2788 45.0815 100.207 49.4986 109.5C66.4927 110.87 71.3542 107.385 75.9986 97.5C76.0375 89.4738 76.3414 84.9124 68.9986 78.5C72.3737 70.1715 83.0471 69.078 102.999 67.5C93.682 57.5175 91.0125 53.0964 94.4986 49C101.57 43.1647 105.679 44.0956 112.999 45.5C113.527 29.5304 111.851 23.0783 102.999 19L83.9986 27L75.9986 1C65.6497 4.31946 55.9986 1 49.4986 9.5C42.9987 18 59.4986 32 59.4986 32C55.3393 37.4418 52.5292 39.5989 42.9986 35L40.4986 16.5C36.3224 15.2806 32.9894 14.9936 21.9986 16.5Z" fill="#E82626" stroke="black"/>
</svg>
