<svg width="229" height="228" viewBox="0 0 229 228" fill="none" xmlns="http://www.w3.org/2000/svg">
<path d="M185.214 111.823C192.206 120.883 193.265 127.147 191.628 139.777C188.52 153.896 175.148 154.862 158.46 160.864C148.97 159.472 147.701 153.256 148.443 138.136C140.088 132.122 134.798 135.447 125.081 144.49C124.732 149.391 128.145 154.214 139.486 165.847C131.212 175.085 102.41 199.359 105.25 178.753C108.09 158.148 100.396 158.187 92.3955 155.02C85.5801 164.436 79.9704 168.389 66.5859 172.861C49.6303 157.587 48.6734 149.557 54.3451 135.691C62.3716 128.072 66.6749 123.467 79.8477 124.568C85.1193 113.411 76.4326 101.972 59.7265 81.0308C78.2951 80.6841 85.1833 79.1105 86.1021 71.8424C85.4808 59.4366 80.7788 56.3102 72.6574 50.5007C88.2138 34.9003 96.232 30.4404 108.444 35.2179L117.827 61.2978L151.278 44.5375C157.431 57.7622 169.613 64.0356 167.034 78.4015C164.455 92.7674 135.266 89.9059 135.266 89.9059C133.613 99.1011 134.022 103.878 147.379 108.826L168.254 93.7878C173.307 96.7074 176.651 99.6856 185.214 111.823Z" stroke="#E82626" stroke-width="10"/>
</svg>
