<svg width="229" height="228" viewBox="0 0 229 228" fill="none" xmlns="http://www.w3.org/2000/svg">
<path d="M43.8206 111.823C36.8292 120.883 35.7701 127.147 37.4073 139.777C40.5148 153.896 53.8864 154.862 70.5751 160.864C80.0646 159.472 81.3343 153.256 80.5918 138.136C88.947 132.122 94.237 135.447 103.954 144.49C104.303 149.391 100.89 154.214 89.5486 165.847C97.8227 175.085 126.625 199.359 123.785 178.753C120.944 158.148 128.639 158.187 136.639 155.02C143.455 164.436 149.064 168.389 162.449 172.861C179.405 157.587 180.361 149.557 174.69 135.691C166.663 128.072 162.36 123.467 149.187 124.568C143.916 113.411 152.602 101.972 169.308 81.0308C150.74 80.6841 143.852 79.1105 142.933 71.8424C143.554 59.4366 148.256 56.3102 156.378 50.5007C140.821 34.9003 132.803 30.4404 120.591 35.2179L111.208 61.2978L77.7572 44.5375C71.6039 57.7622 59.4215 64.0356 62.0006 78.4015C64.5797 92.7674 93.7693 89.9059 93.7693 89.9059C95.4223 99.1011 95.0128 103.878 81.6559 108.826L60.781 93.7878C55.7275 96.7074 52.3835 99.6856 43.8206 111.823Z" stroke="#41E826" stroke-width="10"/>
</svg>
