<svg width="114" height="111" viewBox="0 0 114 111" fill="none" xmlns="http://www.w3.org/2000/svg">
<path d="M92.0879 94.2856C100.598 93.4784 104.551 90.9256 110.588 83.7856C116.683 75.1294 110.363 67.5849 105.088 55.7856C99.4723 51.4638 95.4386 53.8812 87.5879 61.7856C80.0374 60.3589 79.1393 55.9123 79.0879 46.2856C81.5767 43.6664 85.9496 43.0736 98.0879 43.2856C98.8809 34.3247 97.3507 7.04781 87.5879 18.7856C77.8251 30.5235 73.9071 26.4389 68.0879 23.7856C69.7246 15.5069 69.0051 10.579 64.5879 1.28564C47.5939 -0.0840378 42.7323 3.40038 38.0879 13.2856C38.049 21.3119 37.7452 25.8732 45.0879 32.2856C41.7128 40.6141 31.0394 41.7076 11.0879 43.2856C20.4045 53.2682 23.074 57.6892 19.5879 61.7856C12.5166 67.621 8.40775 66.6901 1.0879 65.2856C0.559105 81.2552 2.2359 87.7073 11.0879 91.7856L30.0879 83.7856L38.0879 109.786C48.4368 106.466 58.088 109.786 64.5879 101.286C71.0879 92.7856 54.5879 78.7856 54.5879 78.7856C58.7473 73.3438 61.5573 71.1868 71.0879 75.7856L73.5879 94.2856C77.7641 95.505 81.0972 95.792 92.0879 94.2856Z" fill="#2673E8" stroke="black"/>
</svg>
