<svg width="229" height="228" viewBox="0 0 229 228" fill="none" xmlns="http://www.w3.org/2000/svg">
<path d="M185.214 116.355C192.206 107.295 193.265 101.031 191.628 88.4008C188.52 74.2825 175.148 73.3165 158.46 67.3141C148.97 68.7064 147.701 74.9223 148.443 90.0424C140.088 96.0558 134.798 92.7311 125.081 83.6879C124.732 78.7873 128.145 73.9643 139.486 62.3309C131.212 53.0934 102.41 28.8195 105.25 49.4248C108.09 70.0301 100.396 69.9915 92.3955 73.1584C85.5801 63.7426 79.9704 59.7892 66.5859 55.3171C49.6303 70.5908 48.6734 78.6217 54.3451 92.4872C62.3716 100.107 66.6749 104.711 79.8477 103.61C85.1193 114.768 76.4326 126.206 59.7265 147.147C78.2951 147.494 85.1833 149.068 86.1021 156.336C85.4808 168.742 80.7788 171.868 72.6574 177.678C88.2138 193.278 96.232 197.738 108.444 192.96L117.827 166.88L151.278 183.641C157.431 170.416 169.613 164.143 167.034 149.777C164.455 135.411 135.266 138.272 135.266 138.272C133.613 129.077 134.022 124.3 147.379 119.353L168.254 134.39C173.307 131.471 176.651 128.493 185.214 116.355Z" stroke="#2673E8" stroke-width="10"/>
</svg>
