<svg width="114" height="111" viewBox="0 0 114 111" fill="none" xmlns="http://www.w3.org/2000/svg">
<path d="M92.0879 16.5C100.598 17.3072 104.551 19.8601 110.588 27C116.683 35.6562 110.363 43.2007 105.088 55C99.4723 59.3218 95.4386 56.9044 87.5879 49C80.0374 50.4267 79.1393 54.8733 79.0879 64.5C81.5767 67.1193 85.9496 67.712 98.0879 67.5C98.8809 76.4609 97.3507 103.738 87.5879 92C77.8251 80.2622 73.9071 84.3468 68.0879 87C69.7246 95.2788 69.0051 100.207 64.5879 109.5C47.5939 110.87 42.7323 107.385 38.0879 97.5C38.049 89.4738 37.7452 84.9124 45.0879 78.5C41.7128 70.1715 31.0394 69.078 11.0879 67.5C20.4045 57.5175 23.074 53.0964 19.5879 49C12.5166 43.1647 8.40775 44.0956 1.0879 45.5C0.559105 29.5304 2.2359 23.0783 11.0879 19L30.0879 27L38.0879 1C48.4368 4.31946 58.088 1 64.5879 9.5C71.0879 18 54.5879 32 54.5879 32C58.7473 37.4418 61.5573 39.5989 71.0879 35L73.5879 16.5C77.7641 15.2806 81.0972 14.9936 92.0879 16.5Z" fill="#EDFF7C" stroke="black"/>
</svg>
