<svg width="229" height="228" viewBox="0 0 229 228" fill="none" xmlns="http://www.w3.org/2000/svg">
<path d="M43.8206 116.355C36.8292 107.295 35.7701 101.031 37.4073 88.4008C40.5149 74.2825 53.8864 73.3165 70.5751 67.3141C80.0646 68.7064 81.3343 74.9223 80.5918 90.0424C88.947 96.0558 94.237 92.7311 103.954 83.6879C104.303 78.7873 100.89 73.9643 89.5486 62.3309C97.8227 53.0934 126.625 28.8195 123.785 49.4248C120.944 70.0301 128.639 69.9915 136.639 73.1584C143.455 63.7426 149.064 59.7892 162.449 55.3171C179.405 70.5908 180.361 78.6217 174.69 92.4872C166.663 100.107 162.36 104.711 149.187 103.61C143.916 114.768 152.602 126.206 169.308 147.147C150.74 147.494 143.852 149.068 142.933 156.336C143.554 168.742 148.256 171.868 156.378 177.678C140.821 193.278 132.803 197.738 120.591 192.96L111.208 166.88L77.7572 183.641C71.6039 170.416 59.4216 164.143 62.0006 149.777C64.5797 135.411 93.7693 138.272 93.7693 138.272C95.4223 129.077 95.0128 124.3 81.6559 119.353L60.781 134.39C55.7275 131.471 52.3835 128.493 43.8206 116.355Z" stroke="#EDFD8E" stroke-width="10"/>
</svg>
