<svg width="150" height="150" viewBox="0 0 150 150" fill="none" xmlns="http://www.w3.org/2000/svg">
<path d="M74.875 87.4501C81.8062 87.4501 87.425 81.8313 87.425 74.9001C87.425 67.9689 81.8062 62.3501 74.875 62.3501C67.9438 62.3501 62.325 67.9689 62.325 74.9001C62.325 81.8313 67.9438 87.4501 74.875 87.4501Z" fill="#00D8FF"/>
<path d="M74.875 103.65C57.25 103.65 41.85 101.575 30.325 97.6249C22.85 95.0749 16.5 91.6749 11.975 87.7999C7.175 83.6999 4.625 79.2249 4.625 74.8999C4.625 66.5999 13.725 58.4749 29 53.1749C41.5 48.8249 57.8 46.3999 74.85 46.3999C91.6 46.3999 107.675 48.7499 120.1 53.0499C127.375 55.5499 133.5 58.7999 137.85 62.3999C142.575 66.3499 145.075 70.6749 145.075 74.8999C145.075 83.5249 134.9 92.2499 118.5 97.6749C106.9 101.525 91.4 103.65 74.875 103.65ZM74.875 52.3999C58.7 52.3999 42.7 54.7499 31 58.8249C16.95 63.7249 10.65 70.4249 10.65 74.8999C10.65 79.5499 17.425 86.8749 32.275 91.9499C43.175 95.6749 57.925 97.6499 74.875 97.6499C90.775 97.6499 105.6 95.6499 116.625 91.9749C132.05 86.8499 139.1 79.5249 139.1 74.8999C139.1 72.5249 137.3 69.7249 134.025 66.9999C130.25 63.8499 124.75 60.9749 118.175 58.6999C106.35 54.6499 90.975 52.3999 74.875 52.3999Z" fill="#00D8FF"/>
<path d="M46.4 137.45C43.85 137.45 41.6 136.9 39.7 135.8C32.525 131.65 30.025 119.7 33.05 103.825C35.525 90.8001 41.575 75.5001 50.1 60.7251C58.475 46.2251 68.525 33.4751 78.45 24.8501C84.25 19.8001 90.125 16.1001 95.425 14.1501C101.2 12.0251 106.2 12.0251 109.85 14.1251C117.325 18.4251 119.8 31.6251 116.3 48.5251C113.825 60.5251 107.925 75.0001 99.675 89.3251C90.875 104.575 81.375 116.875 72.2 124.9C66.25 130.1 60.125 133.9 54.525 135.875C51.6 136.925 48.85 137.45 46.4 137.45ZM52.675 62.2251L55.275 63.7251C47.2 77.7251 41.225 92.7501 38.925 104.95C36.15 119.575 38.825 128.375 42.675 130.6C43.625 131.15 44.875 131.45 46.4 131.45C51.375 131.45 59.2 128.3 68.25 120.4C76.925 112.825 86 101.025 94.475 86.3501C102.425 72.5751 108.075 58.7251 110.425 47.3501C113.7 31.4251 110.875 21.6751 106.85 19.3501C104.8 18.1751 101.475 18.3251 97.475 19.8001C92.85 21.5001 87.625 24.8251 82.375 29.4001C72.95 37.6001 63.325 49.8001 55.275 63.7501L52.675 62.2251Z" fill="#00D8FF"/>
<path d="M103.35 137.525C96.55 137.525 87.925 133.425 78.925 125.675C68.875 117.025 58.65 104.15 50.1 89.3751C41.7 74.8751 35.7 59.8001 33.175 46.8751C31.7 39.3251 31.425 32.4001 32.375 26.8251C33.425 20.7501 35.9 16.4251 39.575 14.3001C47.025 9.97505 59.7 14.4251 72.6 25.9001C81.75 34.0251 91.35 46.3751 99.625 60.6751C108.45 75.9251 114.375 90.3001 116.725 102.25C118.25 110 118.5 117.2 117.425 123.05C116.275 129.275 113.675 133.7 109.925 135.875C108.05 136.975 105.825 137.525 103.35 137.525ZM55.3 86.3751C63.4 100.375 73.45 113.05 82.85 121.125C94.125 130.825 103.075 132.925 106.95 130.675C110.975 128.35 113.925 118.825 110.875 103.425C108.625 92.1251 102.95 78.3751 94.45 63.7001C86.475 49.9251 77.3 38.1001 68.625 30.4001C56.475 19.6001 46.625 17.1751 42.6 19.5001C40.55 20.6751 39.025 23.6501 38.3 27.8501C37.475 32.7001 37.725 38.9001 39.075 45.7251C41.475 58.0001 47.225 72.4251 55.3 86.3751Z" fill="#00D8FF"/>
</svg>
