<svg width="215" height="453" viewBox="0 0 300 803" fill="none" xmlns="http://www.w3.org/2000/svg">
<g id="Socials">
<path id="Vector" d="M105.155 443.623H95.8L91.349 407.538L105.156 407.539L105.155 443.623Z" fill="#FFB8B8"/>
<path id="Vector_2" d="M107.54 452.692L77.3756 452.69V452.309C77.3756 450.767 77.6792 449.24 78.2693 447.816C78.8593 446.391 79.7242 445.097 80.8144 444.007C81.9047 442.916 83.1991 442.052 84.6236 441.462C86.0481 440.872 87.5748 440.568 89.1167 440.568H89.1174L107.541 440.569L107.54 452.692Z" fill="#2F2E41"/>
<path id="Vector_3" d="M209.662 434.87L200.844 437.993L184.602 405.465L197.617 400.856L209.662 434.87Z" fill="#FFB8B8"/>
<path id="Vector_4" d="M214.939 442.622L186.505 452.692L186.377 452.332C185.862 450.878 185.639 449.338 185.719 447.798C185.8 446.258 186.183 444.75 186.847 443.358C187.511 441.966 188.442 440.719 189.588 439.687C190.733 438.655 192.071 437.859 193.525 437.345L193.525 437.344L210.892 431.194L214.939 442.622Z" fill="#2F2E41"/>
<path id="Vector_5" d="M104.098 431.221C103.888 431.221 103.679 431.202 103.472 431.165L92.0324 429.085C91.2537 428.941 90.5483 428.533 90.0345 427.931C89.5208 427.328 89.23 426.567 89.2109 425.775C87.548 348.77 95.7235 297.022 113.51 259.931C113.826 259.275 114.345 258.737 114.989 258.396C115.633 258.055 116.369 257.93 117.09 258.038L158.228 263.977C158.979 264.086 159.673 264.441 160.202 264.985C160.73 265.53 161.063 266.235 161.149 266.989L164.777 298.964C164.797 299.137 164.833 299.307 164.885 299.473L204.328 417.65C204.597 418.51 204.519 419.441 204.11 420.244C203.702 421.047 202.995 421.658 202.141 421.947L191.482 425.5C190.698 425.757 189.847 425.725 189.084 425.409C188.321 425.093 187.697 424.514 187.325 423.778L133.972 323.176C133.866 322.964 133.697 322.79 133.488 322.679C133.279 322.567 133.041 322.523 132.806 322.552C132.571 322.581 132.351 322.683 132.177 322.842C132.002 323.002 131.88 323.211 131.83 323.442L107.441 428.522C107.276 429.286 106.854 429.971 106.246 430.462C105.638 430.953 104.88 431.221 104.098 431.221Z" fill="#2F2E41"/>
<path id="Vector_6" d="M72.3812 197.851C72.4749 198.262 72.5359 198.681 72.5637 199.102L105.344 218.013L113.311 213.426L121.805 224.546L108.489 234.037C107.414 234.803 106.118 235.2 104.797 235.168C103.477 235.136 102.202 234.676 101.165 233.858L67.3634 207.192C65.8379 207.756 64.1767 207.843 62.6007 207.441C61.0246 207.038 59.6085 206.165 58.5406 204.938C57.4727 203.711 56.8036 202.188 56.6225 200.572C56.4413 198.955 56.7565 197.322 57.5263 195.889C58.296 194.456 59.4838 193.292 60.9316 192.55C62.3794 191.809 64.0186 191.526 65.6312 191.739C67.2439 191.951 68.7534 192.65 69.9592 193.742C71.1649 194.834 72.0097 196.267 72.3812 197.851V197.851Z" fill="#FFB8B8"/>
<path id="Vector_7" d="M105.794 216.122C105.893 215.639 106.095 215.182 106.386 214.784C106.677 214.386 107.051 214.055 107.481 213.814L122.524 205.403C124.523 203.86 127.051 203.173 129.556 203.492C132.06 203.811 134.336 205.11 135.884 207.104C137.433 209.099 138.127 211.626 137.815 214.131C137.502 216.636 136.21 218.916 134.219 220.469L122.226 232.924C121.884 233.279 121.469 233.556 121.009 233.737C120.55 233.918 120.058 233.997 119.565 233.97C119.072 233.943 118.591 233.81 118.154 233.581C117.717 233.351 117.335 233.03 117.034 232.639L106.44 218.908C106.138 218.518 105.924 218.067 105.813 217.586C105.701 217.105 105.695 216.606 105.794 216.122V216.122Z" fill="#6C63FF"/>
<path id="Vector_8" d="M140.824 195.965C151.175 195.965 159.566 187.574 159.566 177.223C159.566 166.873 151.175 158.481 140.824 158.481C130.473 158.481 122.082 166.873 122.082 177.223C122.082 187.574 130.473 195.965 140.824 195.965Z" fill="#FFB8B8"/>
<path id="Vector_9" d="M159.074 268.261C158.888 268.261 158.702 268.245 158.518 268.215L117.958 261.566C117.5 261.491 117.062 261.323 116.67 261.074C116.278 260.825 115.941 260.499 115.679 260.115C115.417 259.732 115.235 259.299 115.145 258.844C115.055 258.388 115.058 257.919 115.154 257.465L117.128 248.162C116.118 246.655 107.893 233.552 117.91 221.245C117.718 216.873 119.24 212.598 122.152 209.331C125.065 206.064 129.137 204.063 133.503 203.754L154.464 202.161C157.16 201.957 159.866 202.403 162.355 203.462C164.843 204.521 167.04 206.162 168.762 208.248C170.483 210.333 171.679 212.801 172.248 215.445C172.817 218.089 172.743 220.831 172.031 223.44L162.422 265.59C162.247 266.348 161.822 267.024 161.214 267.509C160.606 267.994 159.851 268.259 159.074 268.261V268.261Z" fill="#6C63FF"/>
<path id="Vector_10" d="M196.95 303.507C197.638 302.526 198.102 301.406 198.311 300.226C198.519 299.045 198.466 297.834 198.155 296.676C197.844 295.519 197.284 294.444 196.512 293.526C195.741 292.609 194.778 291.872 193.691 291.367L170.598 220.365L157.215 226.715L182.483 295.849C181.756 297.731 181.744 299.815 182.45 301.705C183.157 303.595 184.532 305.16 186.315 306.104C188.098 307.048 190.166 307.305 192.126 306.827C194.086 306.348 195.802 305.167 196.95 303.507V303.507Z" fill="#FFB8B8"/>
<path id="Vector_11" d="M175.706 232.186L157.935 237.554C157.429 237.707 156.897 237.749 156.374 237.677C155.85 237.606 155.349 237.422 154.903 237.139C154.457 236.856 154.077 236.48 153.789 236.037C153.502 235.594 153.313 235.094 153.236 234.572L150.538 216.262C149.773 213.671 150.066 210.882 151.353 208.507C152.641 206.132 154.817 204.364 157.405 203.591C159.993 202.817 162.783 203.101 165.162 204.38C167.541 205.659 169.317 207.829 170.099 210.415L177.968 227.101C178.193 227.578 178.313 228.099 178.318 228.627C178.324 229.155 178.216 229.679 178.001 230.161C177.787 230.644 177.471 231.075 177.075 231.424C176.678 231.773 176.212 232.033 175.706 232.186Z" fill="#6C63FF"/>
<path id="Vector_12" d="M122.606 177.947C126.766 179.533 131.295 179.89 135.653 178.974C140.011 178.059 144.013 175.911 147.185 172.786C145.219 177.979 145.769 200.008 145.769 200.008C145.769 200.008 163.202 191.731 165.568 190.283C179.537 181.734 160.27 144.542 144.242 150.407C141.528 151.401 139.26 152.57 138.162 155.244C135.769 152.292 131.239 151.651 127.754 153.168C124.269 154.684 121.792 157.97 120.46 161.529C119.408 164.402 118.999 167.469 119.262 170.517C119.525 173.564 120.453 176.517 121.981 179.167L122.606 177.947Z" fill="black"/>
<path id="Vector_13" fill-rule="evenodd" clip-rule="evenodd" d="M121.661 18.3271C121.66 14.8242 120.656 11.3948 118.767 8.44498C116.878 5.49512 114.183 3.14832 111.002 1.68238C107.82 0.216437 104.285 -0.307238 100.816 0.173343C97.3458 0.653924 94.0864 2.11863 91.4232 4.39408C88.76 6.66952 86.8045 9.66041 85.7883 13.0127C84.7721 16.3649 84.7377 19.9382 85.6891 23.3094C86.6406 26.6806 88.5381 29.7086 91.157 32.0349C93.7759 34.3613 97.0064 35.8885 100.466 36.4358V23.6274H95.8108V18.3271H100.466V14.2879C100.466 9.69465 103.204 7.1554 107.39 7.1554C108.765 7.17456 110.137 7.29436 111.494 7.51383V12.0252H109.181C108.787 11.9731 108.387 12.0102 108.009 12.1339C107.631 12.2575 107.286 12.4645 107 12.7395C106.713 13.0145 106.491 13.3505 106.352 13.7227C106.212 14.0948 106.158 14.4935 106.194 14.8894V18.328H111.277L110.465 23.6282H106.194V36.4375C110.506 35.7545 114.433 33.5553 117.268 30.2355C120.103 26.9156 121.661 22.693 121.661 18.3271H121.661Z" fill="#3C58BA"/>
<path id="Vector_14" d="M30.0432 40.6734L33.3813 40.0058C32.3542 41.2009 31.2383 42.3168 30.0432 43.3439V43.3439C29.9933 44.0106 29.9933 44.6801 30.0432 45.3468C23.6339 72.853 0 60.7022 0 60.7022C8.61237 60.9025 9.34677 57.3641 9.34677 57.3641C4.33958 56.6297 3.33813 53.3583 3.33813 53.3583C3.78738 53.5953 4.30827 53.6582 4.80103 53.535C5.29378 53.4118 5.72376 53.1112 6.00864 52.6907C4.53955 52.3571 3.2472 51.4888 2.3833 50.2546C1.5194 49.0205 1.14581 47.5089 1.33527 46.0144C2.29915 46.7103 3.42556 47.1471 4.60663 47.2829C4.00577 46.5485 -1.06821 40.4731 2.00287 37.3353C2.00287 37.3353 5.74158 44.0115 15.5557 44.6124L16.2233 44.4789C16.1098 43.998 16.0648 43.5035 16.0898 43.0101C16.0898 41.1509 16.8283 39.3679 18.143 38.0532C19.4576 36.7386 21.2406 36 23.0998 36V36C27.7732 36 28.7747 38.6705 28.7747 38.6705L32.1128 36.6676C32.046 36.6677 31.7122 40.0058 30.0432 40.6734Z" fill="#76E5FD"/>
<path id="Vector_15" d="M111.965 79H97.8683C95.2534 79.0076 92.7478 80.0498 90.8988 81.8988C89.0498 83.7478 88.0076 86.2534 88 88.8683V102.965C88.0076 105.58 89.0498 108.086 90.8988 109.935C92.7478 111.784 95.2534 112.826 97.8683 112.833H111.965C114.58 112.826 117.086 111.784 118.935 109.935C120.784 108.086 121.826 105.58 121.833 102.965V88.8683C121.826 86.2534 120.784 83.7478 118.935 81.8988C117.086 80.0498 114.58 79.0076 111.965 79V79Z" fill="url(#paint0_linear)"/>
<path id="Vector_16" d="M105.106 98.2201C104.546 98.2189 104.01 97.9958 103.616 97.5997C103.221 97.2036 102.999 96.667 103 96.1078C103.001 95.5486 103.223 95.0124 103.619 94.6172C104.014 94.222 104.551 94 105.11 94C105.669 94 106.206 94.222 106.601 94.6172C106.997 95.0124 107.219 95.5486 107.22 96.1078C107.221 96.667 106.999 97.2036 106.604 97.5997C106.21 97.9958 105.674 98.2189 105.115 98.2201H105.106Z" fill="white"/>
<path id="Vector_17" d="M105.458 90.8192C106.574 90.8192 107.664 91.15 108.591 91.7696C109.519 92.3892 110.242 93.2699 110.668 94.3004C111.095 95.3308 111.207 96.4646 110.989 97.5585C110.772 98.6524 110.234 99.6572 109.446 100.446C108.657 101.235 107.652 101.772 106.559 101.989C105.465 102.207 104.331 102.095 103.3 101.668C102.27 101.241 101.389 100.519 100.77 99.5913C100.15 98.664 99.8192 97.5737 99.8193 96.4583C99.8193 95.7178 99.9651 94.9845 100.249 94.3003C100.532 93.6161 100.947 92.9945 101.471 92.4709C101.995 91.9472 102.616 91.5318 103.3 91.2484C103.985 90.9651 104.718 90.8192 105.458 90.8192ZM105.458 88C103.786 88 102.15 88.4961 100.759 89.4255C99.3682 90.3549 98.2841 91.6759 97.6439 93.2215C97.0037 94.767 96.8362 96.4677 97.1625 98.1085C97.4889 99.7492 98.2945 101.256 99.4774 102.439C100.66 103.622 102.167 104.428 103.808 104.754C105.449 105.081 107.15 104.913 108.695 104.273C110.241 103.633 111.562 102.549 112.491 101.158C113.421 99.7666 113.917 98.1313 113.917 96.4584C113.917 94.2151 113.026 92.0637 111.439 90.4774C109.853 88.8912 107.702 88 105.458 88Z" fill="white"/>
<path id="Vector_18" d="M41.5084 128.071C37.2862 128.071 33.1926 129.524 29.9154 132.186C26.6382 134.848 24.3769 138.557 23.5113 142.69C22.6457 146.822 23.2286 151.127 25.162 154.88C27.0954 158.634 30.2616 161.608 34.1287 163.302C34.0515 161.888 34.1591 160.47 34.4489 159.083C34.8019 157.589 36.813 149.06 36.813 149.06C36.4113 148.145 36.2098 147.154 36.222 146.154C36.222 143.429 37.7981 141.393 39.7681 141.393C40.1195 141.388 40.4679 141.458 40.7899 141.599C41.112 141.739 41.4001 141.947 41.635 142.209C41.8699 142.47 42.0461 142.779 42.1517 143.114C42.2573 143.449 42.2898 143.803 42.2471 144.151C42.2471 145.834 41.1718 148.346 40.6218 150.677C40.5122 151.109 40.5057 151.561 40.6027 151.996C40.6998 152.431 40.8977 152.837 41.1805 153.181C41.4633 153.525 41.8231 153.798 42.2308 153.978C42.6385 154.158 43.0827 154.239 43.5277 154.215C47.0082 154.215 49.3558 149.742 49.3558 144.439C49.3558 140.408 46.6387 137.396 41.7053 137.396C40.5246 137.349 39.3469 137.544 38.2437 137.967C37.1405 138.39 36.1348 139.033 35.2879 139.857C34.441 140.681 33.7705 141.668 33.3172 142.759C32.8639 143.85 32.6373 145.022 32.6511 146.204C32.5964 147.514 33.0292 148.798 33.866 149.807C34.0128 149.929 34.1174 150.093 34.1646 150.278C34.2118 150.462 34.1992 150.657 34.1287 150.833C34.0384 151.17 33.8414 151.983 33.7511 152.311C33.7353 152.41 33.6961 152.504 33.6367 152.585C33.5773 152.667 33.4995 152.732 33.4096 152.777C33.3197 152.822 33.2203 152.845 33.1198 152.844C33.0193 152.843 32.9205 152.818 32.8317 152.771C30.2624 151.72 29.0639 148.913 29.0639 145.744C29.0639 140.523 33.4719 134.26 42.206 134.26C49.2244 134.26 53.846 139.341 53.846 144.792C53.846 152.007 49.8319 157.392 43.9216 157.392C43.0416 157.415 42.1697 157.218 41.3855 156.818C40.6012 156.418 39.9295 155.828 39.4315 155.102C39.4315 155.102 38.3644 159.338 38.1345 160.158C37.71 161.553 37.088 162.88 36.2875 164.099C38.8166 164.846 41.4766 165.04 44.0874 164.669C46.6981 164.297 49.1984 163.369 51.4188 161.946C53.6391 160.523 55.5275 158.64 56.9559 156.423C58.3844 154.206 59.3193 151.708 59.6975 149.099C60.0757 146.489 59.8882 143.828 59.1477 141.297C58.4073 138.766 57.1312 136.424 55.406 134.43C53.6808 132.436 51.547 130.835 49.1491 129.738C46.7511 128.641 44.1453 128.072 41.5083 128.071L41.5084 128.071Z" fill="#FA1717"/>
</g>
<defs>
<linearGradient id="paint0_linear" x1="104.917" y1="79" x2="104.917" y2="112.833" gradientUnits="userSpaceOnUse">
<stop stop-color="#4720E2"/>
<stop offset="0.510417" stop-color="#96203C"/>
<stop offset="1" stop-color="#E2C320" stop-opacity="0.92"/>
</linearGradient>
</defs>
</svg>
