<svg width="879" height="681" viewBox="0 0 879 681" fill="none" xmlns="http://www.w3.org/2000/svg">
<path d="M407.155 671.623H397.8L393.349 635.538L407.156 635.539L407.155 671.623Z" fill="#FFB8B8"/>
<path d="M409.54 680.692L379.376 680.69V680.309C379.376 678.767 379.679 677.24 380.269 675.816C380.859 674.391 381.724 673.097 382.814 672.007C383.905 670.916 385.199 670.052 386.624 669.462C388.048 668.872 389.575 668.568 391.117 668.568H391.117L409.541 668.569L409.54 680.692Z" fill="#2F2E41"/>
<path d="M511.662 662.87L502.844 665.993L486.602 633.465L499.617 628.856L511.662 662.87Z" fill="#FFB8B8"/>
<path d="M516.939 670.622L488.505 680.692L488.377 680.332C487.862 678.878 487.639 677.338 487.719 675.798C487.8 674.258 488.183 672.75 488.847 671.358C489.511 669.966 490.442 668.719 491.588 667.687C492.733 666.655 494.071 665.859 495.525 665.345L495.525 665.344L512.892 659.194L516.939 670.622Z" fill="#2F2E41"/>
<path d="M406.098 659.221C405.888 659.221 405.679 659.202 405.472 659.165L394.032 657.085C393.254 656.941 392.548 656.533 392.035 655.931C391.521 655.328 391.23 654.567 391.211 653.775C389.548 576.77 397.724 525.022 415.51 487.931C415.826 487.275 416.345 486.737 416.989 486.396C417.633 486.055 418.369 485.93 419.09 486.038L460.228 491.977C460.979 492.086 461.673 492.441 462.202 492.985C462.73 493.53 463.063 494.235 463.149 494.989L466.777 526.964C466.797 527.137 466.833 527.307 466.885 527.473L506.328 645.65C506.597 646.51 506.519 647.441 506.11 648.244C505.702 649.047 504.995 649.658 504.141 649.947L493.482 653.5C492.698 653.757 491.847 653.725 491.084 653.409C490.321 653.093 489.697 652.514 489.325 651.778L435.972 551.176C435.866 550.964 435.697 550.79 435.488 550.679C435.279 550.567 435.041 550.523 434.806 550.552C434.571 550.581 434.351 550.683 434.177 550.842C434.002 551.002 433.88 551.211 433.83 551.442L409.441 656.522C409.276 657.286 408.854 657.971 408.246 658.462C407.638 658.953 406.88 659.221 406.098 659.221Z" fill="#2F2E41"/>
<path d="M374.381 425.851C374.475 426.262 374.536 426.681 374.564 427.102L407.344 446.013L415.311 441.426L423.805 452.546L410.489 462.037C409.414 462.803 408.118 463.2 406.797 463.168C405.477 463.136 404.202 462.676 403.165 461.858L369.363 435.192C367.838 435.756 366.177 435.843 364.601 435.441C363.025 435.038 361.609 434.165 360.541 432.938C359.473 431.711 358.804 430.188 358.622 428.572C358.441 426.955 358.757 425.322 359.526 423.889C360.296 422.456 361.484 421.292 362.932 420.55C364.379 419.809 366.019 419.526 367.631 419.739C369.244 419.951 370.753 420.65 371.959 421.742C373.165 422.834 374.01 424.267 374.381 425.851V425.851Z" fill="#FFB8B8"/>
<path d="M407.794 444.122C407.893 443.639 408.095 443.182 408.386 442.784C408.677 442.386 409.051 442.055 409.481 441.814L424.524 433.403C426.523 431.86 429.051 431.173 431.556 431.492C434.06 431.811 436.336 433.11 437.884 435.104C439.433 437.099 440.127 439.626 439.815 442.131C439.502 444.636 438.21 446.916 436.219 448.469L424.226 460.924C423.884 461.279 423.469 461.556 423.009 461.737C422.55 461.918 422.058 461.997 421.565 461.97C421.072 461.943 420.591 461.81 420.154 461.581C419.717 461.351 419.335 461.03 419.034 460.639L408.44 446.908C408.138 446.518 407.924 446.067 407.813 445.586C407.701 445.105 407.695 444.606 407.794 444.122V444.122Z" fill="#6C63FF"/>
<path d="M442.824 423.965C453.175 423.965 461.566 415.574 461.566 405.223C461.566 394.873 453.175 386.481 442.824 386.481C432.473 386.481 424.082 394.873 424.082 405.223C424.082 415.574 432.473 423.965 442.824 423.965Z" fill="#FFB8B8"/>
<path d="M461.074 496.261C460.888 496.261 460.702 496.245 460.518 496.215L419.958 489.566C419.5 489.491 419.062 489.323 418.67 489.074C418.278 488.825 417.941 488.499 417.679 488.115C417.417 487.732 417.235 487.299 417.145 486.844C417.055 486.388 417.058 485.919 417.154 485.465L419.128 476.162C418.118 474.655 409.893 461.552 419.91 449.245C419.718 444.873 421.24 440.598 424.152 437.331C427.065 434.064 431.137 432.063 435.503 431.754L456.464 430.161C459.16 429.957 461.866 430.403 464.355 431.462C466.843 432.521 469.04 434.162 470.762 436.248C472.483 438.333 473.679 440.801 474.248 443.445C474.817 446.089 474.743 448.831 474.031 451.44L464.422 493.59C464.247 494.348 463.822 495.024 463.214 495.509C462.606 495.994 461.851 496.259 461.074 496.261V496.261Z" fill="#6C63FF"/>
<path d="M498.95 531.507C499.638 530.526 500.102 529.406 500.311 528.226C500.519 527.045 500.466 525.834 500.155 524.676C499.844 523.519 499.284 522.444 498.512 521.526C497.741 520.609 496.778 519.872 495.691 519.367L472.598 448.365L459.215 454.715L484.483 523.849C483.756 525.731 483.744 527.815 484.45 529.705C485.157 531.595 486.532 533.16 488.315 534.104C490.098 535.048 492.166 535.305 494.126 534.827C496.086 534.348 497.802 533.167 498.95 531.507V531.507Z" fill="#FFB8B8"/>
<path d="M477.706 460.186L459.935 465.554C459.429 465.707 458.897 465.749 458.374 465.677C457.85 465.606 457.349 465.422 456.903 465.139C456.457 464.856 456.077 464.48 455.789 464.037C455.502 463.594 455.313 463.094 455.236 462.572L452.538 444.262C451.773 441.671 452.066 438.882 453.353 436.507C454.641 434.132 456.817 432.364 459.405 431.591C461.993 430.817 464.783 431.101 467.162 432.38C469.541 433.659 471.317 435.829 472.099 438.415L479.968 455.101C480.193 455.578 480.313 456.099 480.318 456.627C480.324 457.155 480.216 457.679 480.001 458.161C479.787 458.644 479.471 459.075 479.075 459.424C478.678 459.773 478.212 460.033 477.706 460.186Z" fill="#6C63FF"/>
<path d="M424.606 405.947C428.766 407.533 433.295 407.89 437.653 406.974C442.011 406.059 446.013 403.911 449.185 400.786C447.219 405.979 447.769 428.008 447.769 428.008C447.769 428.008 465.202 419.731 467.568 418.283C481.537 409.734 462.27 372.542 446.242 378.407C443.528 379.401 441.26 380.57 440.162 383.244C437.769 380.292 433.239 379.651 429.754 381.168C426.269 382.684 423.792 385.97 422.46 389.529C421.408 392.402 420.999 395.469 421.262 398.517C421.525 401.564 422.453 404.517 423.981 407.167L424.606 405.947Z" fill="black"/>
<path fill-rule="evenodd" clip-rule="evenodd" d="M423.661 246.327C423.66 242.824 422.656 239.395 420.767 236.445C418.878 233.495 416.183 231.148 413.002 229.682C409.82 228.216 406.285 227.693 402.816 228.173C399.346 228.654 396.086 230.119 393.423 232.394C390.76 234.67 388.805 237.66 387.788 241.013C386.772 244.365 386.738 247.938 387.689 251.309C388.641 254.681 390.538 257.709 393.157 260.035C395.776 262.361 399.006 263.888 402.466 264.436V251.627H397.811V246.327H402.466V242.288C402.466 237.695 405.204 235.155 409.39 235.155C410.765 235.175 412.137 235.294 413.494 235.514V240.025H411.181C410.787 239.973 410.387 240.01 410.009 240.134C409.631 240.257 409.286 240.464 409 240.739C408.713 241.014 408.491 241.351 408.352 241.723C408.212 242.095 408.158 242.494 408.194 242.889V246.328H413.277L412.465 251.628H408.194V264.437C412.506 263.755 416.433 261.555 419.268 258.235C422.103 254.916 423.661 250.693 423.661 246.327H423.661Z" fill="#3C58BA"/>
<path d="M332.043 268.673L335.381 268.006C334.354 269.201 333.238 270.317 332.043 271.344V271.344C331.993 272.011 331.993 272.68 332.043 273.347C325.634 300.853 302 288.702 302 288.702C310.612 288.902 311.347 285.364 311.347 285.364C306.34 284.63 305.338 281.358 305.338 281.358C305.787 281.595 306.308 281.658 306.801 281.535C307.294 281.412 307.724 281.111 308.009 280.691C306.54 280.357 305.247 279.489 304.383 278.255C303.519 277.02 303.146 275.509 303.335 274.014C304.299 274.71 305.426 275.147 306.607 275.283C306.006 274.548 300.932 268.473 304.003 265.335C304.003 265.335 307.742 272.012 317.556 272.612L318.223 272.479C318.11 271.998 318.065 271.504 318.09 271.01C318.09 269.151 318.828 267.368 320.143 266.053C321.458 264.739 323.241 264 325.1 264V264C329.773 264 330.775 266.671 330.775 266.671L334.113 264.668C334.046 264.668 333.712 268.006 332.043 268.673Z" fill="#76E5FD"/>
<path d="M413.965 307H399.868C397.253 307.008 394.748 308.05 392.899 309.899C391.05 311.748 390.008 314.253 390 316.868V330.965C390.008 333.58 391.05 336.086 392.899 337.935C394.748 339.784 397.253 340.826 399.868 340.833H413.965C416.58 340.826 419.086 339.784 420.935 337.935C422.784 336.086 423.826 333.58 423.833 330.965V316.868C423.826 314.253 422.784 311.748 420.935 309.899C419.086 308.05 416.58 307.008 413.965 307V307Z" fill="url(#paint0_linear)"/>
<path d="M407.106 326.22C406.546 326.219 406.01 325.996 405.616 325.6C405.221 325.204 404.999 324.667 405 324.108C405.001 323.549 405.223 323.012 405.619 322.617C406.014 322.222 406.551 322 407.11 322C407.669 322 408.206 322.222 408.601 322.617C408.997 323.012 409.219 323.549 409.22 324.108C409.221 324.667 408.999 325.204 408.604 325.6C408.21 325.996 407.674 326.219 407.115 326.22H407.106Z" fill="white"/>
<path d="M407.458 318.819C408.574 318.819 409.664 319.15 410.591 319.77C411.519 320.389 412.242 321.27 412.668 322.3C413.095 323.331 413.207 324.465 412.989 325.559C412.772 326.652 412.234 327.657 411.446 328.446C410.657 329.235 409.652 329.772 408.559 329.989C407.465 330.207 406.331 330.095 405.3 329.668C404.27 329.241 403.389 328.519 402.77 327.591C402.15 326.664 401.819 325.574 401.819 324.458C401.819 323.718 401.965 322.984 402.249 322.3C402.532 321.616 402.947 320.994 403.471 320.471C403.995 319.947 404.616 319.532 405.3 319.248C405.985 318.965 406.718 318.819 407.458 318.819ZM407.458 316C405.786 316 404.15 316.496 402.759 317.425C401.368 318.355 400.284 319.676 399.644 321.221C399.004 322.767 398.836 324.468 399.163 326.108C399.489 327.749 400.294 329.256 401.477 330.439C402.66 331.622 404.167 332.428 405.808 332.754C407.449 333.081 409.15 332.913 410.695 332.273C412.241 331.633 413.562 330.549 414.491 329.158C415.421 327.767 415.917 326.131 415.917 324.458C415.917 322.215 415.026 320.064 413.439 318.477C411.853 316.891 409.702 316 407.458 316Z" fill="white"/>
<path d="M343.508 356.071C339.286 356.071 335.193 357.524 331.915 360.186C328.638 362.848 326.377 366.557 325.511 370.69C324.646 374.822 325.229 379.127 327.162 382.88C329.095 386.634 332.262 389.608 336.129 391.302C336.051 389.888 336.159 388.47 336.449 387.083C336.802 385.589 338.813 377.06 338.813 377.06C338.411 376.145 338.21 375.154 338.222 374.154C338.222 371.429 339.798 369.393 341.768 369.393C342.119 369.388 342.468 369.458 342.79 369.599C343.112 369.739 343.4 369.947 343.635 370.209C343.87 370.47 344.046 370.779 344.152 371.114C344.257 371.449 344.29 371.803 344.247 372.151C344.247 373.834 343.172 376.346 342.622 378.677C342.512 379.109 342.506 379.561 342.603 379.996C342.7 380.431 342.898 380.837 343.18 381.181C343.463 381.525 343.823 381.798 344.231 381.978C344.639 382.158 345.083 382.239 345.528 382.215C349.008 382.215 351.356 377.742 351.356 372.439C351.356 368.408 348.639 365.396 343.705 365.396C342.525 365.349 341.347 365.544 340.244 365.967C339.141 366.39 338.135 367.033 337.288 367.857C336.441 368.681 335.771 369.668 335.317 370.759C334.864 371.85 334.637 373.022 334.651 374.204C334.596 375.514 335.029 376.798 335.866 377.807C336.013 377.929 336.117 378.093 336.165 378.278C336.212 378.462 336.199 378.657 336.129 378.833C336.038 379.17 335.841 379.983 335.751 380.311C335.735 380.41 335.696 380.504 335.637 380.585C335.577 380.667 335.499 380.732 335.41 380.777C335.32 380.822 335.22 380.845 335.12 380.844C335.019 380.843 334.921 380.818 334.832 380.771C332.262 379.72 331.064 376.913 331.064 373.744C331.064 368.523 335.472 362.26 344.206 362.26C351.224 362.26 355.846 367.341 355.846 372.792C355.846 380.007 351.832 385.392 345.922 385.392C345.042 385.415 344.17 385.218 343.385 384.818C342.601 384.418 341.929 383.828 341.432 383.102C341.432 383.102 340.364 387.338 340.135 388.158C339.71 389.553 339.088 390.88 338.288 392.099C340.817 392.846 343.477 393.04 346.087 392.669C348.698 392.297 351.198 391.369 353.419 389.946C355.639 388.523 357.528 386.64 358.956 384.423C360.384 382.206 361.319 379.708 361.698 377.099C362.076 374.489 361.888 371.828 361.148 369.297C360.407 366.766 359.131 364.424 357.406 362.43C355.681 360.436 353.547 358.835 351.149 357.738C348.751 356.641 346.145 356.072 343.508 356.071L343.508 356.071Z" fill="#FA1717"/>
<defs>
<linearGradient id="paint0_linear" x1="406.917" y1="307" x2="406.917" y2="340.833" gradientUnits="userSpaceOnUse">
<stop stop-color="#4720E2"/>
<stop offset="0.510417" stop-color="#96203C"/>
<stop offset="1" stop-color="#E2C320" stop-opacity="0.92"/>
</linearGradient>
</defs>
</svg>
