<svg width="86" height="82" viewBox="0 0 86 82" fill="none" xmlns="http://www.w3.org/2000/svg">
<path d="M38.2447 8.63525C39.7415 4.02869 46.2585 4.0287 47.7553 8.63526L53.1031 25.0942C53.7725 27.1543 55.6923 28.5491 57.8584 28.5491H75.1644C80.008 28.5491 82.0219 34.7472 78.1033 37.5942L64.1025 47.7664C62.3501 49.0397 61.6168 51.2965 62.2861 53.3566L67.634 69.8156C69.1307 74.4222 63.8583 78.2528 59.9398 75.4058L45.9389 65.2336C44.1865 63.9603 41.8135 63.9603 40.0611 65.2336L26.0602 75.4058C22.1417 78.2528 16.8693 74.4221 18.366 69.8156L23.7139 53.3566C24.3832 51.2965 23.6499 49.0397 21.8975 47.7664L7.89666 37.5942C3.97809 34.7472 5.99198 28.5491 10.8356 28.5491H28.1416C30.3077 28.5491 32.2275 27.1543 32.8969 25.0942L38.2447 8.63525Z" stroke="url(#paint0_diamond)" stroke-width="10"/>
<defs>
<radialGradient id="paint0_diamond" cx="0" cy="0" r="1" gradientUnits="userSpaceOnUse" gradientTransform="translate(43 44) rotate(90) scale(50)">
<stop stop-color="#FF7C7C"/>
<stop offset="0.479167" stop-color="#7CE7FF" stop-opacity="0.95"/>
<stop offset="1" stop-color="#FF7CEA"/>
</radialGradient>
</defs>
</svg>
