<svg width="264" height="252" viewBox="0 0 264 252" fill="none" xmlns="http://www.w3.org/2000/svg">
<path d="M128.676 169.861C124.299 164.133 122.245 161.888 119.06 159.023C128.266 158.085 133.351 158.127 142.225 159.494L151.403 167.505L159.707 176.929L166.263 185.882L171.945 200.961L171.508 214.626L167.574 224.521L153.588 237.715L141.35 244.312C134.987 246.53 131.418 247.763 124.742 248.081H133.483C137.95 247.995 140.271 247.18 144.41 245.725C150.218 243.765 152.16 242.782 155.773 241.013C160.434 238.196 162.256 236.505 165.389 233.474L170.197 228.291C172.657 225.125 173.823 223.298 175.004 219.809C177.025 214.881 177.936 212.293 178.501 208.5C179.079 202.427 179.251 199.022 178.064 192.95C176.443 187.414 174.574 184.567 169.759 180.227C166.398 178.055 164.476 176.415 161.018 173.159C155.594 168.795 153.024 166.031 150.092 159.965C152.913 160.686 154.736 161.245 158.833 162.793C163.252 164.834 165.694 166.104 169.759 169.39C172.119 171.449 173.547 172.907 176.752 177.4C179.119 180.666 180.059 182.639 181.123 186.353C182.256 190.258 182.689 192.757 182.871 198.133C182.997 202.536 182.869 205.008 181.997 209.442C181.318 213.369 180.55 215.925 178.501 221.223C175.345 226.608 173.236 229.608 168.448 234.888C162.483 240.205 158.642 242.671 151.403 246.668C145.368 248.624 141.629 249.555 134.357 250.909C126.921 251.14 122.396 250.914 114.252 250.437C109.711 249.631 107.051 248.993 101.578 246.668C95.6074 244.012 92.3497 242.072 86.7175 237.715C81.117 233.449 78.3262 230.589 74.0427 224.521C71.2515 219.813 70.011 217.112 67.9238 212.27C63.8358 214.485 62.852 217.564 61.8049 224.05C59.4817 213.767 57.4613 207.856 57.8714 198.133C58.3808 191.008 58.8438 187.377 60.4937 182.583C63.24 175.814 64.7142 172.74 67.0497 170.332C66.4737 174.043 66.7666 176.624 71.8574 184.94C74.8532 190.147 77.0551 192.757 81.9098 196.72C82.9687 199.017 82.8996 200.367 81.9098 202.845C81.4918 201.238 81.1997 200.354 79.7245 199.076C77.6842 198.685 76.7623 198.878 75.7909 200.489C74.2579 201.599 74.8707 202.706 77.5392 205.201L84.9693 207.558C89.6025 211.045 91.3885 213.65 92.8364 219.338C89.4765 215.892 87.4472 214.142 83.221 211.798C78.135 210.836 75.9191 210.705 74.0427 211.798C78.0618 220.417 81.4699 225.131 92.8364 233.003C97.5774 236.908 101.81 238.763 114.252 241.013C126.033 241.075 132.245 239.724 142.225 233.474C149.545 226.364 154.807 220.751 155.773 213.683C156.74 206.615 157.44 203.29 154.899 198.133C153.951 201.152 153.163 202.685 151.403 205.201V193.421C150.56 187.959 149.597 185.546 147.032 182.583C146.267 187.237 144.751 188.948 140.913 191.065C142.503 186.832 142.693 184.46 140.913 180.227C139.065 175.197 137.874 173.13 135.669 169.861C135.433 174.622 135.069 176.942 132.609 178.343C131.855 174.778 131.095 172.892 128.676 169.861Z" fill="#447D0B" stroke="#F85B1A"/>
<path d="M63.9369 137.179C52.2636 132.504 46.7944 128.988 39.4614 120.687C39.8348 128.068 41.9653 131.49 46.8915 137.179C54.7073 146.615 60.3955 149.862 71.8041 153.671C85.4536 156.77 91.1414 157.655 97.1537 157.441C109.521 156.579 116.273 156.725 128.185 157.441C141.276 156.696 148.109 156.672 157.468 158.855C165.494 160.81 169.994 162.419 178.01 167.337C185.336 173.453 187.423 178.252 190.685 187.127L188.937 172.991C186.625 167.338 184.465 164.257 179.759 158.855C175.631 153.899 172.95 151.143 162.276 146.603C154.471 143.646 147.417 142.472 131.682 140.949H98.902C85.5168 140.597 77.9124 139.987 63.9369 137.179Z" fill="#447D0B" stroke="#F85B1A"/>
<path d="M35.6707 94.2993C27.296 88.1986 23.4384 83.7572 16.877 75.4509C18.4058 84.0199 20.0772 88.6783 24.7441 96.6553C33.5554 109.812 40.7921 115.066 58.835 119.745C76.4989 122.742 84.0815 123.166 95.9853 123.043C96.9804 128.032 98.0796 130.477 100.793 134.352C94.5831 135.951 91.1638 136.197 85.0588 136.708C95.1063 139.209 100.62 138.893 110.408 137.65C106.29 132.827 104.698 130.024 102.541 124.928C98.1606 117.096 97.4396 113.084 96.8595 106.079C84.479 107.955 74.4206 106.993 59.2721 104.666C48.1784 101.946 43.4323 99.3771 35.6707 94.2993Z" fill="#447D0B"/>
<path d="M116.527 137.65C106.699 127.305 102.43 120.837 100.793 106.079H120.898C133.256 107.014 134.011 108.925 140.129 111.263L151.492 119.745C156.053 126.67 156.919 133.49 161.982 140.949C155.329 132.927 151.408 128.609 140.129 124.928C135.538 122.249 131.677 121.956 123.083 123.043C126.932 129.026 129.941 132.268 138.38 137.65H116.527Z" fill="#447D0B"/>
<path d="M35.6707 94.2993C27.296 88.1986 23.4384 83.7572 16.877 75.4509C18.4058 84.0199 20.0772 88.6783 24.7441 96.6553C33.5554 109.812 40.7921 115.066 58.835 119.745C76.4989 122.742 84.0815 123.166 95.9853 123.043C96.9804 128.032 98.0796 130.477 100.793 134.352C94.5831 135.951 91.1638 136.197 85.0588 136.708C95.1063 139.209 100.62 138.893 110.408 137.65C106.29 132.827 104.698 130.024 102.541 124.928C98.1606 117.096 97.4396 113.084 96.8595 106.079C84.479 107.955 74.4206 106.993 59.2721 104.666C48.1784 101.946 43.4323 99.3771 35.6707 94.2993Z" stroke="#F85B1A"/>
<path d="M116.527 137.65C106.699 127.305 102.43 120.837 100.793 106.079H120.898C133.256 107.014 134.011 108.925 140.129 111.263L151.492 119.745C156.053 126.67 156.919 133.49 161.982 140.949C155.329 132.927 151.408 128.609 140.129 124.928C135.538 122.249 131.677 121.956 123.083 123.043C126.932 129.026 129.941 132.268 138.38 137.65H116.527Z" stroke="#F85B1A"/>
<path d="M18.1883 52.8329C9.25588 45.7684 5.57874 41.965 1.14286 35.3982C0.476454 43.7429 2.07954 48.3805 7.26174 56.6026C12.5262 65.1666 16.2376 68.9825 23.8701 74.5085C34.9929 80.64 42.5367 83.2498 59.2722 85.8175C75.4969 87.6856 85.6014 88.0686 97.7338 87.7023C96.5838 91.7225 95.8678 94.1198 93.8002 99.9537C92.101 101.832 89.6542 102.591 84.1848 103.723L97.7338 104.666C97.644 99.4285 97.9204 96.7768 99.9191 93.3568C102.724 86.8302 104.418 83.2974 108.66 78.2782C115.258 73.2674 119.056 71.201 126.143 69.7964C127.201 70.543 127.329 71.0754 127.017 72.1525C123.024 72.5937 120.307 73.9291 115.216 76.8645C110.576 79.8769 108.192 82.6084 104.29 89.1159C101.669 94.5163 101.463 97.7846 101.667 103.723H116.527C116.499 98.415 116.827 95.5946 120.461 91.9432C122.536 87.6519 125.315 85.6895 134.884 83.4614C140.353 80.1624 142.072 79.8825 144.062 80.6342C137.31 83.5713 135.897 86.3255 134.884 91.9432C140.566 87.6537 144.049 86.4332 151.493 89.1159C157.921 92.7863 161.367 95.9025 167.227 103.723C169.517 109.02 170.451 112.178 168.538 119.744L175.968 116.917C179.781 114.415 182.125 114.162 186.458 114.561C182.675 107.924 179.963 104.945 173.783 101.367C165.763 95.5421 161.481 92.2381 161.982 84.8751C163.64 88.0519 164.98 89.8975 168.538 93.3568C176.408 97.9631 181.242 100.077 191.265 102.31C196.624 103.825 198.587 106.209 200.007 113.148C203.006 109.593 204.051 107.335 203.503 102.31C201.022 96.6176 200.872 93.8379 201.318 89.1159C189.509 89.4474 183.271 88.9109 173.783 84.8751C169.553 80.3787 167.285 77.8964 167.227 74.9797C169.983 74.3603 171.478 74.4937 173.783 78.2782C176.194 81.1179 177.941 82.7493 182.524 85.8175C185.163 77.3917 184.672 74.3512 179.902 72.1525C168.746 65.7014 165.295 61.0286 164.167 50.9481C163.288 53.1932 162.633 54.4478 158.486 56.6026C155.516 54.3073 154.056 52.8919 152.804 49.5345C150.864 43.0644 150.8 39.9857 151.493 34.927C149.321 37.4456 148.287 39.8149 146.685 45.2936C143.614 37.5521 143.194 33.6889 144.062 27.3877C145.593 15.5673 147.361 10.089 151.055 1C146.011 7.5726 143.424 11.8645 139.692 21.7332C137.749 30.2415 137.9 35.6905 138.818 45.7648C139.71 52.6296 139.406 56.6635 145.811 62.2571C150.992 67.9981 150.036 69.229 149.744 72.1525L141.44 62.7283C136.377 56.5609 134.517 52.9227 134.884 45.7648C132.274 49.0676 131.744 52.3812 131.825 59.901C127.843 57.1012 126.852 55.2764 125.706 51.8905C124.807 55.9071 124.941 58.6164 126.143 64.1419C123.182 62.1771 121.854 60.971 120.461 58.4874C120.35 60.214 120.366 61.9203 120.461 65.5555C108.141 68.2223 83.7115 68.3947 82.8736 68.3828C82.0357 68.3709 62.3417 68.1981 48.3457 65.5555C35.1136 61.9599 27.4802 60.1466 18.1883 52.8329Z" fill="#447D0B" stroke="#F85B1A"/>
<path d="M214.382 229.228C214.528 235.46 213.065 241.193 210.663 251C214.241 245.29 216.364 242.161 218.41 235.557C220.997 230.412 221.787 228.393 222.903 225.177C224.899 219.427 225.752 216.113 226.622 209.987C227.72 204.545 228.165 201.497 228.171 196.063C228.206 192.036 228.138 190.095 227.861 187.203C227.188 182.73 226.719 180.839 225.692 178.595L222.129 173.025C223.595 176.784 224.264 179.048 224.143 184.418C224.273 187.505 223.95 188.934 222.748 191C221.546 191.891 220.82 192.032 219.34 191C217.689 187.564 217.53 185.695 217.635 182.392C217.859 178.222 218.118 175.746 218.875 171C219.38 166.106 219.456 164.149 219.34 161.633C219.042 157.061 218.724 155.245 217.945 153.025C215.66 149.921 214.868 149.622 213.762 149.987C215.243 151.713 215.735 153.015 216.086 156.063C215.786 161.887 215.225 162.786 213.762 161.633C211.838 160.213 211.037 158.587 210.663 156.063C209.702 150.717 209.407 147.87 209.889 143.405C210.607 135.218 211.269 131.268 213.762 127.456C217.239 118.557 219.493 115.813 223.523 111C219.481 113.578 217.206 115.179 212.987 121.127C210.072 125.14 208.548 127.881 206.17 134.291C204.62 138.79 203.908 142.483 202.761 149.987C200.926 159.442 201.849 164.974 205.24 175.051C203.486 174.085 202.769 173.156 201.832 171C199.886 167.034 199.251 164.76 198.888 160.62C198.074 166.801 197.999 170.57 199.508 178.595C201.519 185.05 203.306 188.242 205.86 193.278C208.415 198.315 211.128 205.937 212.368 213.025C213.607 220.114 214.46 222.947 214.382 229.228Z" fill="url(#paint0_radial)" stroke="#F85B1A"/>
<path d="M214.346 142.25L213.247 148.063L218.741 138.965C222.234 135.726 224.144 134.011 226.614 132.899C230.019 131.291 231.94 130.673 235.404 130.372C239.901 130.569 242.141 131.32 245.658 133.91C243.563 133.312 242.021 133.972 238.883 136.185C237.391 137.319 236.426 139.167 234.671 142.755C237.658 139.942 239.568 139.293 243.461 139.975C246.358 141.187 247.587 142.356 249.504 144.777C251.011 147.734 251.802 149.406 252.25 152.611C252.576 155.623 252.596 157.383 252.25 160.699C251.666 164.021 250.906 166.221 246.757 172.324C241.669 177.539 237.935 179.103 230.643 180.916C235.245 181.066 237.853 181.121 243.461 180.158C246.62 178.898 248.187 177.838 250.786 175.609C255.517 171.418 258.118 168.989 260.674 161.457C262.812 156.419 263.577 153.257 263.237 146.293C263.169 140.058 262.393 136.578 259.758 130.372C257.328 126.166 255.671 124.014 251.884 120.769C247.398 118.248 244.71 117.608 239.616 117.736C235.811 117.845 233.297 118.617 227.713 122.032C224.104 124.399 222.104 126.863 218.557 132.394C216.962 135.305 216.045 137.355 214.346 142.25Z" fill="url(#paint1_radial)" stroke="#F85B1A"/>
<g clip-path="url(#clip0)">
<path d="M137.364 205C137.364 191.193 127.58 180 115.51 180C103.441 180 93.6572 191.193 93.6572 205C93.6572 218.807 103.441 230 115.51 230C127.58 230 137.364 218.807 137.364 205Z" fill="#F5AA38"/>
<path d="M114.226 203.933L114.609 201.857L115.606 203.771L117.216 203.609L116.092 205.198L116.705 207.209L115.12 206.431L113.715 207.631L113.919 205.555L112.513 204.355L114.226 203.933Z" fill="#EE1515" stroke="#E71515"/>
<path d="M127.837 206.862L128.221 204.786L129.217 206.7L130.828 206.537L129.703 208.127L130.317 210.138L128.732 209.36L127.326 210.56L127.531 208.484L126.125 207.283L127.837 206.862Z" fill="#EE1515" stroke="#E71515"/>
<path d="M100.989 206.076L101.372 204L102.369 205.914L103.98 205.752L102.855 207.341L103.468 209.352L101.884 208.574L100.478 209.774L100.682 207.698L99.2766 206.498L100.989 206.076Z" fill="#EE1515" stroke="#E71515"/>
<path d="M108.045 216.79L108.428 214.714L109.425 216.628L111.035 216.466L109.91 218.055L110.524 220.067L108.939 219.288L107.533 220.488L107.738 218.412L106.332 217.212L108.045 216.79Z" fill="#EE1515" stroke="#E71515"/>
<path d="M98.4968 203.689C99.8593 204.929 102.156 204.221 103.627 202.107C105.098 199.993 105.186 197.273 103.824 196.032C102.461 194.792 100.164 195.5 98.6934 197.614C97.2223 199.728 97.1343 202.448 98.4968 203.689Z" fill="url(#paint2_linear)"/>
<path d="M111.63 193.395C115.125 191.169 117.211 187.828 116.288 185.932C115.366 184.037 111.784 184.305 108.29 186.531C104.795 188.757 102.709 192.098 103.632 193.993C104.554 195.889 108.136 195.621 111.63 193.395Z" fill="url(#paint3_linear)"/>
<path d="M127.122 204.274C128.708 203.888 129.336 200.041 128.525 195.681C127.715 191.32 125.773 188.098 124.188 188.484C122.602 188.87 121.974 192.717 122.785 197.077C123.595 201.437 125.537 204.659 127.122 204.274Z" fill="url(#paint4_linear)"/>
<path d="M123.139 222.295C125.309 220.574 126.492 218.228 125.781 217.054C125.07 215.88 122.734 216.323 120.564 218.044C118.394 219.765 117.211 222.111 117.922 223.285C118.633 224.459 120.969 224.016 123.139 222.295Z" fill="url(#paint5_linear)"/>
<path d="M126.851 217.713C127.822 218.464 129.35 217.82 130.263 216.274C131.177 214.728 131.13 212.866 130.158 212.114C129.187 211.363 127.659 212.008 126.746 213.554C125.832 215.099 125.879 216.962 126.851 217.713Z" fill="url(#paint6_linear)"/>
<path d="M122.655 194.647L123.038 192.571L124.035 194.485L125.645 194.323L124.521 195.913L125.134 197.924L123.549 197.145L122.144 198.345L122.348 196.269L120.942 195.069L122.655 194.647Z" fill="#EE1515" stroke="#E71515"/>
<path d="M112.665 191.647L113.048 189.571L114.045 191.485L115.655 191.323L114.531 192.913L115.144 194.924L113.559 194.145L112.154 195.345L112.358 193.269L110.952 192.069L112.665 191.647Z" fill="#EE1515" stroke="#E71515"/>
<path d="M120.282 215.362L120.666 213.286L121.662 215.2L123.273 215.037L122.148 216.627L122.762 218.638L121.177 217.86L119.771 219.06L119.976 216.984L118.57 215.783L120.282 215.362Z" fill="#EE1515" stroke="#E71515"/>
</g>
<defs>
<radialGradient id="paint0_radial" cx="0" cy="0" r="1" gradientUnits="userSpaceOnUse" gradientTransform="translate(220.274 116.04) rotate(92.9806) scale(135.143 28.7825)">
<stop stop-color="#F2DD92"/>
<stop offset="0.988796" stop-color="#DF1715" stop-opacity="0.99"/>
</radialGradient>
<radialGradient id="paint1_radial" cx="0" cy="0" r="1" gradientUnits="userSpaceOnUse" gradientTransform="translate(238.72 117.721) rotate(90.3976) scale(63.2815 50.0673)">
<stop stop-color="#F7FD08"/>
<stop offset="1" stop-color="#C94712" stop-opacity="0.74"/>
</radialGradient>
<linearGradient id="paint2_linear" x1="103.824" y1="196.032" x2="97.5977" y2="202.87" gradientUnits="userSpaceOnUse">
<stop stop-color="#FCF9F9"/>
<stop offset="1" stop-color="#F5AA38"/>
</linearGradient>
<linearGradient id="paint3_linear" x1="108.29" y1="186.531" x2="112.364" y2="192.928" gradientUnits="userSpaceOnUse">
<stop stop-color="#EEEAEA"/>
<stop offset="1" stop-color="#F5AA38"/>
</linearGradient>
<linearGradient id="paint4_linear" x1="117.009" y1="200.357" x2="132.389" y2="198.299" gradientUnits="userSpaceOnUse">
<stop offset="0.442708" stop-color="#F5AA38"/>
<stop offset="1" stop-color="#FCF9F9"/>
</linearGradient>
<linearGradient id="paint5_linear" x1="120.564" y1="218.044" x2="123.627" y2="221.908" gradientUnits="userSpaceOnUse">
<stop stop-color="#F5AA38"/>
<stop offset="1" stop-color="#FCF9F9"/>
</linearGradient>
<linearGradient id="paint6_linear" x1="130.158" y1="212.114" x2="126.211" y2="217.218" gradientUnits="userSpaceOnUse">
<stop stop-color="#F5AA38"/>
<stop offset="1" stop-color="#FCF9F9"/>
</linearGradient>
<clipPath id="clip0">
<rect width="43.7063" height="50" fill="white" transform="translate(93.6572 180)"/>
</clipPath>
</defs>
</svg>
