<svg width="2319" height="2452" viewBox="0 0 2319 2452" fill="none" xmlns="http://www.w3.org/2000/svg">
<path d="M1404.51 889.404C1385.03 894.085 1375.13 902.096 1358.72 923.021C1341.59 948.027 1352.85 966.383 1360.09 996.453C1371.03 1006.38 1381.06 998.705 1401.85 975.195C1418.29 976.787 1418.56 988.441 1414.89 1014.23C1408.25 1021.99 1398.17 1024.87 1370.93 1027.89C1365.61 1052.15 1358.32 1124.81 1384.92 1090.46C1411.53 1056.11 1418.74 1065.9 1430.8 1071.29C1423.85 1093.97 1423.53 1106.97 1429.82 1130.57C1467.54 1129.22 1479.86 1118.44 1494.21 1090.57C1497.46 1069.04 1499.94 1056.73 1485.93 1041.71C1496.8 1018.38 1521.27 1012.3 1566.81 1002.17C1549.76 978.163 1545.49 967.101 1554.95 955.089C1573.17 937.356 1582.05 938.637 1597.98 940.237C1605.46 897.272 1604.22 880.472 1585.9 872.157L1539.97 899.22L1532.19 831.889C1507.58 843.847 1487.16 837.802 1469.18 862.509C1451.2 887.216 1482.84 919.867 1482.84 919.867C1471.33 935.684 1464.16 942.297 1444.51 932.787L1446.16 883.935C1437.24 881.901 1429.85 882.117 1404.51 889.404Z" fill="#E82626" stroke="black" stroke-width="3"/>
<path d="M1563.45 1379.36C1582.15 1366.42 1592.81 1364.91 1612.02 1369.31C1632.72 1376.75 1626.2 1403.19 1625.74 1436.65C1617.8 1455.22 1607.09 1457.14 1583.36 1454.28C1568.71 1470.19 1570.84 1480.92 1579.44 1500.91C1587.07 1502.06 1596.84 1495.78 1622.27 1474.5C1632.06 1491.67 1653.51 1550.69 1622.28 1543.18C1591.04 1535.67 1586.46 1550.84 1576.58 1566.31C1587.52 1580.62 1590.46 1592.04 1589.55 1618.84C1554.9 1650.84 1541.49 1651.98 1522.73 1639.51C1515.39 1622.99 1510.62 1614.08 1520.32 1588.22C1505.65 1576.79 1482.13 1592.85 1438.57 1623.83C1449.21 1587.2 1450.84 1573.48 1439.77 1570.99C1419.56 1571.06 1411.73 1580.04 1397.54 1595.51C1381.97 1563.4 1379.68 1547.18 1394.68 1523.55L1442.04 1507.48L1435.4 1440C1460.25 1429.1 1477.63 1405.67 1499.05 1412.09C1520.46 1418.5 1498.29 1475.77 1498.29 1475.77C1512 1479.88 1519.89 1479.52 1535.85 1453.65L1524.39 1411.11C1532.1 1401.42 1538.88 1395.11 1563.45 1379.36Z" fill="#EDFF7C" stroke="black" stroke-width="3"/>
<path d="M1895.7 758.038C1896.61 734.642 1892.33 724.083 1878.79 708.408C1862.01 692.788 1843.75 711.302 1816.64 727.531C1805.56 743.65 1809.53 754.453 1824.15 775.03C1818.72 796.087 1808.84 799.193 1788.04 800.686C1783.16 794.178 1783.24 782.182 1787.48 748.622C1768.38 747.689 1709.03 755.745 1731.33 781.066C1753.62 806.386 1743.59 817.782 1736.05 834.229C1718.69 830.87 1707.83 833.55 1686.39 847.056C1678.14 894.191 1684.15 907.131 1704.04 918.573C1721.36 917.554 1731.11 917.753 1747.24 896.57C1764.16 904.724 1763.2 934.054 1760.4 988.946C1784.85 961.809 1795.22 953.814 1802.98 962.869C1813.37 981.583 1810.08 993.064 1804.77 1013.48C1839.08 1012.7 1853.53 1007.16 1865.09 982.138L1853.74 930.777L1912.35 905.029C1908.41 876.907 1918.57 849.782 1902.25 833.02C1885.93 816.258 1850.57 863.801 1850.57 863.801C1840.12 853.075 1836.34 845.616 1849.23 818.644L1889.94 809.141C1893.87 797.434 1895.53 788.187 1895.7 758.038Z" fill="#E82626" stroke="black" stroke-width="3"/>
<path d="M1541.04 1217.95C1559.91 1205.56 1570.51 1204.41 1589.44 1209.51C1609.77 1217.72 1602.65 1244.15 1601.35 1277.85C1593 1296.3 1582.34 1297.87 1558.89 1294.16C1543.97 1309.69 1545.81 1320.58 1553.83 1341.03C1561.36 1342.45 1571.2 1336.45 1596.95 1315.89C1606.22 1333.53 1626 1393.76 1595.23 1385.11C1564.45 1376.46 1559.53 1391.6 1549.34 1406.85C1559.83 1421.65 1562.46 1433.27 1560.88 1460.25C1525.73 1491.31 1512.4 1491.99 1494.13 1478.78C1487.26 1461.87 1482.76 1452.72 1493.03 1426.99C1478.78 1414.97 1455.05 1430.34 1411.1 1460.07C1422.57 1423.51 1424.53 1409.74 1413.62 1406.85C1393.59 1406.23 1385.6 1415 1371.15 1430.11C1356.52 1397.2 1354.65 1380.78 1370.12 1357.48L1417.47 1342.91L1412.59 1274.66C1437.5 1264.53 1455.31 1241.52 1476.38 1248.72C1497.45 1255.93 1474.03 1312.89 1474.03 1312.89C1487.51 1317.51 1495.34 1317.41 1511.81 1291.89L1501.52 1248.61C1509.41 1239.11 1516.29 1232.98 1541.04 1217.95Z" fill="#41E826" stroke="black" stroke-width="3"/>
<path d="M1561.05 1069.64C1563.57 1045.99 1560.1 1034.95 1547.92 1018.01C1532.54 1000.87 1513.34 1018.23 1485.62 1032.58C1473.63 1048.06 1476.77 1059.32 1489.68 1081.32C1482.89 1102.25 1472.98 1104.63 1452.48 1104.53C1448.15 1097.56 1449.06 1085.4 1455.55 1051.7C1436.88 1049.28 1378.09 1052.84 1398.21 1080.24C1418.32 1107.64 1407.68 1118.42 1399.15 1134.51C1382.35 1129.76 1371.51 1131.63 1349.54 1143.66C1338.18 1190.82 1343.17 1204.4 1361.89 1217.54C1378.94 1217.85 1388.5 1218.81 1405.79 1198.58C1421.83 1208.16 1418.85 1237.83 1412.28 1293.26C1438.15 1267.65 1448.88 1260.34 1455.86 1270.13C1464.76 1289.91 1460.74 1301.29 1454.11 1321.58C1487.82 1323.45 1502.38 1318.96 1515.46 1294.48L1507.89 1241.52L1567.17 1219.96C1565.26 1191.14 1577.12 1164.43 1562.27 1146.17C1547.42 1127.91 1509.43 1173.37 1509.43 1173.37C1499.93 1161.69 1496.73 1153.83 1511.26 1127.48L1551.85 1121.01C1556.53 1109.44 1558.79 1100.19 1561.05 1069.64Z" fill="#2673E8" stroke="black" stroke-width="3"/>
<path d="M1665.81 1098.59C1654.68 1084.4 1653.77 1073.39 1658.73 1049.99C1666.58 1023.44 1690.79 1017.45 1721.76 1001.29C1738.61 1000.81 1739.91 1011.66 1736.16 1039.28C1750.23 1047.53 1760.28 1039.83 1779.2 1020.37C1780.61 1011.38 1775.24 1003.73 1756.69 986.254C1773.05 966.901 1828.73 913.808 1820.34 952.029C1811.94 990.25 1825.79 987.742 1839.68 990.943C1853.44 971.729 1864.16 962.791 1888.95 950.45C1917.02 972.741 1917.46 986.984 1905.04 1013.89C1889.39 1030.24 1880.91 1039.94 1857.39 1042.12C1846.13 1064 1859.93 1081.97 1886.64 1114.6C1853.18 1121.11 1840.54 1126.15 1837.73 1139.6C1836.87 1161.88 1844.83 1166.05 1858.51 1174C1828.04 1207.18 1812.9 1217.8 1791.69 1213.02L1778.98 1168.75L1716.13 1209.71C1707.17 1187.71 1686.25 1180.21 1693.18 1153.37C1700.12 1126.53 1752.17 1122.46 1752.17 1122.46C1756.61 1105.29 1756.63 1096.76 1733.4 1092.03L1693.44 1125.89C1684.82 1122.2 1679.28 1117.86 1665.81 1098.59Z" fill="#41E826" stroke="black" stroke-width="3"/>
<path d="M1506.85 695.315C1508.21 672.068 1504.1 661.711 1490.75 646.543C1474.12 631.521 1455.37 650.423 1427.74 667.311C1416.26 683.629 1420.05 694.237 1434.4 714.24C1428.53 735.296 1418.51 738.662 1397.52 740.743C1392.72 734.424 1393.03 722.515 1397.94 689.084C1378.71 688.707 1318.72 698.411 1340.72 722.901C1362.72 747.391 1352.38 758.991 1344.47 775.532C1327.03 772.698 1316.03 775.669 1294.17 789.692C1284.96 836.713 1290.78 849.384 1310.61 860.168C1328.08 858.658 1337.91 858.575 1354.57 837.086C1371.48 844.693 1369.95 873.831 1366.09 928.394C1391.25 900.756 1401.86 892.523 1409.5 901.287C1419.63 919.563 1416.1 931.052 1410.36 951.47C1444.95 949.708 1459.62 943.796 1471.75 918.625L1461.28 867.974L1520.85 840.731C1517.41 812.933 1528.17 785.717 1512.04 769.55C1495.9 753.382 1459.35 801.589 1459.35 801.589C1449.02 791.244 1445.35 783.948 1458.86 756.806L1500.08 746.203C1504.27 734.47 1506.11 725.244 1506.85 695.315Z" fill="#2673E8" stroke="black" stroke-width="3"/>
<path d="M1824.49 547.566C1843.67 536.417 1854.11 536.065 1872.36 542.708C1891.81 552.623 1883.34 578.946 1880.17 613.111C1870.96 631.224 1860.43 631.999 1837.68 626.42C1822.19 641.059 1823.37 652.277 1830.08 673.686C1837.37 675.706 1847.35 670.372 1873.73 651.449C1881.81 670.099 1897.78 732.865 1868.13 721.698C1838.48 710.531 1832.81 725.538 1821.97 740.263C1831.41 756.119 1833.33 768.132 1830.26 795.439C1794.09 824.308 1781 823.978 1763.85 809.135C1758.08 791.41 1754.18 781.765 1765.69 756.394C1752.41 743.071 1728.31 756.874 1683.59 783.708C1696.88 747.425 1699.59 733.571 1689.07 729.794C1669.48 727.614 1661.16 735.923 1646.16 750.163C1633.69 715.582 1632.79 698.736 1649.24 676.243L1696.43 665.085L1695.5 595.313C1720.47 586.936 1739.21 564.909 1759.44 573.862C1779.66 582.814 1753.52 638.919 1753.52 638.919C1766.46 644.653 1774.13 645.161 1791.7 620.482L1784.06 575.69C1792.33 566.639 1799.41 560.937 1824.49 547.566Z" fill="#41E826" stroke="black" stroke-width="3"/>
<path d="M1599.61 1282.9C1582.03 1298.57 1571.23 1301.97 1550.78 1301.37C1528.38 1298.19 1531.53 1272.04 1527.48 1240.39C1533.18 1221.4 1543.98 1217.6 1568.89 1215.91C1581.88 1198.19 1578.23 1188.45 1566.63 1171.18C1558.6 1171.52 1549.35 1179.25 1525.94 1204.03C1513.51 1189.65 1483.35 1137.94 1516.64 1139.24C1549.94 1140.54 1552.62 1125.38 1560.74 1108.95C1547.49 1097.48 1542.9 1087.25 1540.22 1061.8C1571.69 1025.19 1585.41 1021.63 1606.47 1029.92C1616.3 1044.15 1622.44 1051.68 1615.91 1077.87C1632.61 1085.94 1654.75 1066.43 1695.57 1029.13C1689.53 1065.66 1689.7 1078.91 1701.47 1079.21C1722.35 1075.4 1729.23 1065.48 1741.79 1048.26C1762.23 1075.67 1766.8 1090.54 1754.5 1115.61L1707.73 1139.54L1723.73 1201.98C1699.51 1216.87 1684.73 1242.19 1661.73 1240.1C1638.73 1238.01 1653.89 1179.88 1653.89 1179.88C1639.17 1178.54 1631.07 1180.34 1618.07 1207.7L1635.68 1245.71C1629.02 1256.28 1622.87 1263.5 1599.61 1282.9Z" fill="#EDFF7C" stroke="black" stroke-width="3"/>
<path d="M1626.21 605.33C1644.83 592.16 1655.51 590.501 1674.84 594.598C1695.7 601.697 1689.45 628.141 1689.35 661.475C1681.58 680.099 1670.85 682.177 1647.01 679.674C1632.48 695.743 1634.73 706.407 1643.58 726.196C1651.25 727.222 1660.98 720.819 1686.28 699.245C1696.29 716.202 1718.46 774.685 1687.03 767.668C1655.6 760.65 1651.18 775.833 1641.42 791.397C1652.57 805.487 1655.64 816.825 1655.01 843.535C1620.6 875.935 1607.14 877.271 1588.19 865.131C1580.63 848.774 1575.75 839.969 1585.2 814.059C1570.36 802.893 1546.93 819.244 1503.55 850.762C1513.83 814.108 1515.32 800.412 1504.19 798.101C1483.9 798.475 1476.14 807.535 1462.07 823.157C1446.1 791.399 1443.61 775.275 1458.41 751.513L1505.76 734.794L1498.36 667.656C1523.19 656.426 1540.37 632.825 1561.93 638.899C1583.5 644.973 1561.87 702.358 1561.87 702.358C1575.68 706.25 1583.59 705.77 1599.32 679.761L1587.35 637.549C1594.99 627.781 1601.72 621.389 1626.21 605.33Z" fill="#EDFF7C" stroke="black" stroke-width="3"/>
<path d="M646.586 942.866C628.668 942.277 618.356 949.09 599.64 970.04C579.422 995.902 585.279 1022.84 585.14 1063.22C592.524 1079.41 602.877 1073.06 625.953 1050.31C639.89 1057.81 637.638 1072.61 628.939 1103.96C621.52 1111.54 612.15 1111.82 587.841 1106.54C578.046 1135.4 556.194 1224.73 586.635 1190.22C617.075 1155.72 621.25 1170.49 630.571 1181.32C619.697 1207.64 616.643 1223.95 617.062 1255.85C650.115 1266.73 663.115 1257.23 681.53 1226.82C688.947 1200.72 693.732 1185.99 684.772 1162.36C699.201 1136.53 721.747 1137.01 763.465 1139.41C753.786 1103.41 752.44 1088.02 763.223 1076.01C782.833 1059.69 790.276 1064.27 803.769 1071.61C819.438 1019.85 821.953 998.219 807.813 981.605L762.143 1000.46L769.768 912.836C745.841 919.727 729.394 905.28 708.501 930.48C687.607 955.681 708.114 1007.47 708.114 1007.47C694.741 1023.6 687.096 1029.56 672.062 1010.99L683.932 949.856C676.616 944.311 670.15 942.117 646.586 942.866Z" fill="#E82626" stroke="black" stroke-width="3"/>
<path d="M1072.26 1765.78C1092.88 1763.89 1105.22 1756.55 1128.19 1735.71C1153.22 1710.38 1148.24 1687.6 1151.07 1652.25C1143.63 1639.08 1131.27 1646.02 1103.15 1669.01C1087.58 1664.33 1091.15 1651.07 1103.26 1622.49C1112.32 1614.86 1123.14 1613.36 1150.82 1614.72C1164.03 1588.16 1195.13 1507.09 1157.75 1541.35C1120.36 1575.61 1116.52 1563.25 1106.49 1555.02C1120.77 1530.54 1125.37 1515.87 1127 1488.01C1089.6 1482.93 1073.98 1492.98 1050.73 1522.05C1040.45 1545.88 1033.96 1559.4 1042.73 1578.88C1024.39 1603.4 998.418 1606.01 950.467 1609.5C959.249 1639.69 959.784 1652.98 946.555 1664.93C922.862 1681.83 914.581 1678.82 899.507 1674.21C878.014 1721.59 873.684 1740.85 888.892 1753.49L942.805 1730.88L928.219 1808.55C956.266 1799.32 974.278 1809.75 1000.04 1784.91C1025.8 1760.06 1005.57 1717.51 1005.57 1717.51C1022.06 1701.6 1031.27 1695.36 1047.38 1709.59L1029.65 1764.66C1037.72 1768.54 1045.03 1769.59 1072.26 1765.78Z" fill="#E82626" stroke="black" stroke-width="3"/>
<path d="M895.857 1511.33C915.365 1508.15 926.404 1499.79 946.212 1476.76C967.524 1448.93 960.441 1425.52 959.528 1388.57C951.068 1375.3 939.972 1383.25 915.469 1408.83C900.11 1404.86 902.17 1390.86 910.806 1360.4C918.677 1351.93 928.863 1349.74 955.447 1349.53C965.341 1321.12 986.757 1234.93 954.552 1272.78C922.347 1310.62 917.416 1297.99 906.991 1290.01C918.126 1263.7 921.017 1248.16 919.72 1219.08C883.476 1215.98 869.584 1227.36 850.354 1258.98C842.973 1284.37 838.157 1298.83 848.527 1318.58C833.512 1345.18 808.973 1349.41 763.525 1355.86C775.005 1386.77 776.875 1400.56 765.462 1413.77C744.559 1432.75 736.341 1430.1 721.47 1426.19C705.788 1476.76 703.623 1497.05 719.444 1509.31L768.629 1482.62L762.646 1564.3C788.492 1553.04 806.766 1562.84 828.83 1535.48C850.895 1508.11 827.22 1465.01 827.22 1465.01C841.342 1447.49 849.501 1440.46 866.346 1454.32L855.046 1512.67C863.151 1516.23 870.243 1516.89 895.857 1511.33Z" fill="#E82626" stroke="black" stroke-width="3"/>
<path d="M821.897 1134.22C803.381 1148.56 793.268 1149.46 775.568 1142.3C756.693 1131.24 764.781 1099.1 767.709 1057.75C776.553 1035.48 786.743 1034.06 808.8 1039.73C823.738 1021.36 822.542 1007.88 815.959 982.373C808.887 980.274 799.25 987.17 773.789 1011.21C765.887 989.095 750.155 914.137 778.911 926.231C807.667 938.325 813.094 919.963 823.526 901.702C814.319 883.016 812.411 868.617 815.271 835.541C850.172 799.047 862.85 798.839 879.52 815.945C885.181 837.056 888.993 848.507 877.959 879.639C890.868 895.093 914.147 877.329 957.336 842.894C944.619 887.268 942.06 904.102 952.263 908.17C971.237 909.892 979.259 899.485 993.726 881.616C1005.94 922.745 1006.89 943.02 991.049 970.911L945.403 986.554L946.597 1070.66C922.457 1081.92 904.402 1109.35 884.781 1099.49C865.159 1089.63 890.238 1020.76 890.238 1020.76C877.681 1014.44 870.253 1014.18 853.342 1044.76L860.927 1098.43C852.964 1109.73 846.132 1116.93 821.897 1134.22Z" fill="#41E826" stroke="black" stroke-width="3"/>
<path d="M741.541 1131.65C747.48 1104.68 745.461 1092.26 735.272 1073.47C721.809 1054.57 699.54 1075.01 668.885 1092.36C654.321 1110.41 655.968 1123.08 666.192 1147.59C656.223 1171.63 645.658 1174.71 624.5 1175.37C621.011 1167.6 623.672 1153.75 635.132 1115.22C616.199 1113.16 554.994 1119.42 571.892 1149.8C588.79 1180.18 576.283 1192.83 565.193 1211.43C548.521 1206.66 537.062 1209.2 512.68 1223.69C494.283 1277.7 497.521 1292.95 514.992 1307.18C532.559 1306.89 542.287 1307.62 563 1283.99C578.208 1294.28 570.938 1328.09 556.326 1391.33C586.657 1361.25 598.77 1352.55 604.596 1363.41C610.988 1385.55 605.224 1398.64 595.514 1421.94C630.057 1422.8 645.725 1417.15 662.687 1388.85L662.354 1328.96L726.619 1302.23C728.713 1269.56 744.735 1238.76 731.982 1218.56C719.229 1198.37 673.581 1251.46 673.581 1251.46C665.415 1238.53 663.229 1229.73 681.948 1199.24L724.783 1190.36C731.24 1177.04 734.889 1166.45 741.541 1131.65Z" fill="#2673E8" stroke="black" stroke-width="3"/>
<path d="M1095.99 1392.61C1115.8 1387.89 1126.71 1378.83 1145.89 1354.77C1166.39 1325.91 1158.03 1303.72 1155.34 1267.85C1146.05 1255.64 1135.07 1264.3 1111.2 1291.24C1095.29 1288.66 1088.13 1272.83 1108.54 1251C1128.95 1229.18 1121.66 1230.27 1149.31 1230.2L1103.17 1168.87L1038.39 1209.01C1024.28 1236.15 999.363 1242.32 953.147 1252.38C966.364 1281.5 968.934 1294.76 957.877 1308.58C937.381 1328.79 928.843 1326.9 913.434 1324.33C899.782 1374.84 898.529 1394.77 915.305 1405.38L964.387 1375.3L962.138 1455.27C988.062 1442.16 1007.23 1450.17 1028.52 1421.7C1049.81 1393.23 1023.53 1353.28 1023.53 1353.28C1037.15 1335.05 1045.17 1327.53 1063.07 1339.61L1054.27 1397.33C1062.74 1400.11 1070.03 1400.16 1095.99 1392.61Z" fill="#2673E8" stroke="black" stroke-width="3"/>
<path d="M894.073 1840.7C913.892 1835.99 910.289 1821.71 929.472 1797.65C949.968 1768.79 953.999 1771.02 951.31 1735.15C942.02 1722.94 933.153 1712.39 909.285 1739.33C893.374 1736.76 874.208 1723.09 894.613 1701.26C915.019 1679.44 924.919 1674.47 953.238 1678.59L901.257 1616.97L836.477 1657.11C822.369 1684.24 797.45 1690.41 751.234 1700.48C764.451 1729.59 767.021 1742.86 755.964 1756.67C735.468 1776.88 726.93 1774.99 711.521 1772.43C697.869 1822.94 696.615 1842.87 713.392 1853.47L762.474 1823.39L760.225 1903.37C786.149 1890.26 805.319 1898.27 826.607 1869.8C847.895 1841.33 821.615 1801.37 821.615 1801.37C835.239 1783.15 843.258 1775.62 861.159 1787.7L852.361 1845.42C860.826 1848.2 868.117 1848.26 894.073 1840.7Z" fill="#41E826" stroke="black" stroke-width="3"/>
<path d="M685.69 1947.54C706.811 1944.14 719.08 1936.11 741.484 1914.21C765.738 1887.81 759.258 1866.17 760.063 1831.77C751.612 1819.61 739.303 1827.25 711.729 1851.63C695.412 1848.28 698.304 1835.19 709.06 1806.63C717.929 1798.57 728.983 1796.3 757.566 1795.5C769.575 1768.82 796.764 1688.06 760.318 1724.04C723.872 1760.01 719.184 1748.35 708.364 1741.16C721.606 1716.4 725.466 1701.86 725.478 1674.8C686.672 1672.73 671.191 1683.64 648.992 1713.51C639.83 1737.33 633.955 1750.91 644.144 1769.07C626.719 1794.18 600.139 1798.68 550.979 1805.7C561.822 1834.22 563.165 1847.03 550.259 1859.59C526.874 1877.74 518.169 1875.46 502.374 1872.15C483.073 1919.59 479.764 1938.54 496.175 1949.61L550.332 1923.64L539.949 1999.85C568.274 1988.79 587.44 1997.51 612.479 1971.53C637.519 1945.54 614.158 1905.94 614.158 1905.94C630.184 1889.3 639.294 1882.57 656.729 1895.1L641.76 1949.7C650.299 1952.83 657.889 1953.29 685.69 1947.54Z" fill="#2673E8" stroke="black" stroke-width="3"/>
<path d="M987.017 1063.69C967.014 1075.92 956.888 1075.71 940.178 1066.61C922.752 1053.5 934.478 1022.38 942.157 981.505C953.492 960.296 963.754 960.007 984.955 968.104C1001.88 951.454 1002.25 937.897 998.674 911.753C991.91 908.879 981.563 914.681 953.556 935.815C948.282 912.904 941.352 836.481 968.449 851.716C995.546 866.951 1003.04 849.258 1015.49 832.22C1008.53 812.585 1008.3 798.027 1014.95 765.391C1053.75 732.9 1066.34 734.096 1080.88 752.986C1084.05 774.645 1086.51 786.476 1071.98 816.27C1082.98 833.096 1108.1 817.977 1154.88 788.455C1137.15 831.255 1132.67 847.743 1142.31 852.926C1160.91 856.743 1170.06 847.264 1186.46 831.064C1193.81 873.393 1192.41 893.697 1173.49 919.73L1126.46 930.258L1117.92 1014.18C1092.7 1022.73 1071.64 1048.06 1053.34 1036.06C1035.04 1024.06 1067.84 958.223 1067.84 958.223C1056.13 950.539 1048.8 949.46 1028.51 978.05L1029.83 1032.36C1020.63 1042.73 1013.03 1049.16 987.017 1063.69Z" fill="#EDFF7C" stroke="black" stroke-width="3"/>
<path d="M1011.37 1608.55C990.524 1622.6 979.759 1623.71 961.702 1617.35C942.752 1607.32 954.178 1576.64 960.98 1537.34C972.32 1515.99 983.213 1514.39 1006.01 1519.23C1023.44 1501.44 1023.38 1488.68 1018.71 1464.65C1011.43 1462.83 1000.63 1469.61 971.576 1493.04C965.211 1472.25 955.313 1401.53 984.608 1412.3C1013.9 1423.06 1021.28 1405.51 1033.94 1387.93C1025.89 1370.43 1025.17 1356.82 1031.15 1325.37C1071.3 1289.9 1084.71 1289.39 1100.79 1305.21C1104.88 1325.09 1107.88 1335.86 1093.43 1365.67C1105.68 1380.01 1131.86 1362.59 1180.58 1328.86C1163.17 1371.27 1158.95 1387.3 1169.37 1390.91C1189.26 1392.07 1198.67 1382.01 1215.55 1364.7C1224.77 1403.42 1223.95 1422.63 1204.72 1449.47L1155.09 1465.43L1148.81 1545.19C1122.3 1556.46 1100.76 1582.93 1080.92 1574.06C1061.07 1565.19 1093.75 1499.23 1093.75 1499.23C1081.04 1493.55 1073.22 1493.49 1052.61 1522.91L1055.81 1573.64C1046.39 1584.55 1038.52 1591.55 1011.37 1608.55Z" fill="#EDFF7C" stroke="black" stroke-width="3"/>
<path d="M541.859 1458.96C536.016 1438.89 537.863 1425.04 547.469 1397.17C560.199 1366.01 581.588 1364 610.963 1350.9C624.982 1354.06 623.491 1367.8 613.889 1401.19C623.559 1414.54 633.665 1407.25 653.866 1387.37C657.147 1376.55 654.518 1365.87 643.33 1340.07C661.391 1319.74 719.856 1266.4 703.921 1311.88C687.986 1357.36 700.006 1357.35 710.712 1364.41C726.597 1343.68 737.552 1335 760.919 1325.25C778.829 1359.13 775.836 1376.88 759.249 1407.45C742.479 1424.2 733.197 1434.33 713.272 1431.78C698.821 1456.37 705.979 1481.71 720.334 1528.11C691.187 1528.71 679.567 1532.12 674.076 1548.16C668.117 1575.57 673.703 1582.52 683.122 1595.42C650.154 1629.73 635.16 1639.51 618.786 1628.84L618.72 1571.16L557.201 1607.87C554.991 1578.61 539.499 1564.64 551.543 1532.94C563.587 1501.23 607.504 1507.82 607.504 1507.82C615.216 1487.53 617.245 1476.98 599.181 1465.93L558.233 1498.95C551.984 1492.45 548.433 1485.84 541.859 1458.96Z" fill="#EDFF7C" stroke="black" stroke-width="3"/>
</svg>
