<svg width="1046" height="1119" viewBox="0 0 1046 1119" fill="none" xmlns="http://www.w3.org/2000/svg">
<path d="M595.635 583.231C586.164 587.898 580.704 593.222 570.787 606.051C560.069 621.101 563.135 629.438 563.016 644.37C566.901 648.326 572.382 643.165 584.606 628.483C591.966 627.448 590.758 633.523 586.124 647.453C582.193 652.272 577.24 654.928 564.395 659.609C559.184 672.921 547.531 711.824 563.662 690.801C579.794 669.778 581.984 674.087 586.899 675.541C581.121 688.212 579.488 695.058 579.673 706.711C597.134 701.712 604.017 694.664 613.786 678.43C617.737 666.782 620.283 660.046 615.574 653.77C623.23 640.313 635.149 634.342 657.2 623.856C652.124 613.218 651.43 607.908 657.144 600.538C667.529 589.175 671.458 588.836 678.583 587.863C686.925 564.502 688.279 555.84 680.823 553.567L656.658 572.97L660.788 538.577C648.132 547.64 639.454 546.796 628.38 561.785C617.306 576.775 628.088 590.284 628.088 590.284C621.001 599.88 616.953 604.161 609.026 601.413L615.37 575.629C611.509 575.578 608.093 576.531 595.635 583.231Z" fill="#E82626" stroke="black" stroke-width="3"/>
<path d="M620.641 716.983C630.7 708.077 635.761 706.077 644.071 706.197C652.718 707.739 646.706 722.335 642.67 739.914C636.9 750.549 631.769 752.775 621.21 753.971C612.669 763.973 612.418 769.356 614.079 778.852C617.447 778.584 622.647 774.182 636.75 760.144C639.276 768.025 642.371 796.51 628.899 796.126C615.427 795.743 611.592 804.212 605.288 813.443C608.675 819.694 608.718 825.345 605.233 839.489C585.681 860.195 579.394 862.318 572.216 857.919C570.736 850.095 569.566 845.969 576.974 831.317C571.553 826.997 558.923 838.087 535.398 859.273C544.467 838.871 546.786 831.495 541.993 831.451C532.711 833.788 528.091 839.382 519.815 849.099C516.343 834.046 517.143 825.81 526.726 811.726L550.291 797.92L554.962 763.315C567.611 754.778 578.261 740.527 587.353 741.454C596.445 742.381 579.727 774.906 579.727 774.906C585.545 775.502 589.204 774.414 599.485 759.047L599.089 738.062C603.737 732.108 607.568 728.029 620.641 716.983Z" fill="#EDFF7C" stroke="black" stroke-width="3"/>
<path d="M848.438 335.736C850.558 323.569 849.335 318.82 844.183 312.908C837.514 307.538 827.686 319.943 813.906 332.575C807.587 342.613 808.645 347.537 813.946 355.797C809.893 367.478 805.076 370.638 795.302 374.697C793.507 372.126 794.415 365.948 798.821 348.031C790.013 350.575 761.839 364.112 770.365 373.594C778.891 383.076 773.399 390.522 768.701 400.167C760.875 401.19 755.633 404.286 744.689 414.621C737.434 440.149 739.287 445.848 747.702 448.579C755.823 445.314 760.341 443.872 769.375 430.433C776.651 431.943 774.075 447.168 768.786 475.821C782.12 458.005 787.522 452.254 790.47 455.679C793.943 463.651 791.581 470.071 787.631 481.404C803.633 475.572 810.751 470.438 817.941 455.748L816.392 431.151L845.505 408.639C845.713 394.812 852.409 379.262 846.039 373.232C839.668 367.203 819.783 397.233 819.783 397.233C815.703 393.376 814.487 390.141 822.438 374.239L842.051 362.91C844.729 356.271 846.17 351.256 848.438 335.736Z" fill="#E82626" stroke="black" stroke-width="3"/>
<path d="M625.485 640.483C635.556 631.842 640.551 630.034 648.653 630.552C657.043 632.541 650.752 647.2 646.302 665.005C640.365 675.62 635.295 677.655 624.96 678.379C616.338 688.213 615.936 693.712 617.279 703.513C620.572 703.398 625.772 699.139 639.938 685.436C642.172 693.624 644.359 722.934 631.23 721.902C618.1 720.87 614.113 729.358 607.694 738.51C610.816 745.071 610.693 750.858 606.881 765.173C587.206 785.444 581.012 787.319 574.139 782.475C572.923 774.394 571.903 770.115 579.555 755.465C574.394 750.786 561.751 761.54 538.187 782.113C547.628 761.656 550.105 754.215 545.431 753.943C562.43 734.576 568.687 731.805 577.398 732.908C585.336 724.42 584.908 720.656 580.779 714.635C574.323 712.399 568.996 713.09 554.503 720.007L560.069 684.801C572.657 676.661 583.46 662.576 592.302 663.956C601.143 665.337 583.887 697.843 583.887 697.843C589.545 698.729 593.146 697.789 603.622 682.544L603.848 661.04C608.555 655.165 612.411 651.171 625.485 640.483Z" fill="#2673E8" stroke="black" stroke-width="3"/>
<path d="M667.464 463.129C669.945 450.617 668.948 445.591 664.227 439.079C658.033 433.028 648.155 445.251 634.48 457.436C628.053 467.44 628.885 472.638 633.662 481.602C629.346 493.474 624.613 496.427 615.094 499.971C613.467 497.17 614.566 490.805 619.45 472.468C610.913 474.502 583.408 486.626 591.231 497.086C599.054 507.546 593.514 514.911 588.655 524.621C581.116 525.14 575.977 527.997 565.105 537.988C557.21 564.047 558.776 570.106 566.742 573.533C574.647 570.701 579.031 569.516 588.186 556.161C595.105 558.239 592.074 573.902 585.948 603.348C599.386 585.738 604.776 580.13 607.476 583.899C610.511 592.436 608.011 598.952 603.806 610.47C619.361 605.515 626.373 600.669 633.806 585.884L633.228 560.181L661.965 538.784C662.675 524.411 669.667 508.696 663.782 501.979C657.898 495.261 637.729 525.125 637.729 525.125C633.961 520.827 632.914 517.376 641.123 501.383L660.34 490.96C663.152 484.238 664.719 479.121 667.464 463.129Z" fill="#41E826" stroke="black" stroke-width="3"/>
<path d="M745.903 497.362C744.373 489.723 746.474 483.904 753.866 471.635C763.196 457.738 774.842 454.914 791.665 446.818C798.939 446.794 797.037 452.537 789.207 467.052C793.33 471.594 799.34 467.672 811.78 457.671C814.409 452.951 813.853 448.841 809.912 439.369C821.238 429.388 844.704 422.196 844.704 422.196C851.557 427.25 852.219 432.059 846.95 444.664C832.913 446.485 820.464 454.762 810.216 467.657C804.1 475.499 805.219 478.887 810.874 484.122C825.232 470.038 831.937 466.101 840.12 470.219C845.191 477.909 854.761 485.638 836.194 508.845C820.496 511.818 813.984 514.299 809.75 521.356C804.355 533.09 806.797 535.4 810.821 539.781C790.37 556.862 781.536 562.253 773.599 559.439L778.184 535.92L736.386 568.651C737.544 556.924 736.169 540.682 745.176 526.625C754.183 512.567 760.944 523.161 760.944 523.161C766.711 514.163 777.252 497.938 768.437 495.124L751.491 512.135C748.656 510.072 747.279 507.71 745.903 497.362Z" fill="#41E826" stroke="black" stroke-width="3"/>
<path d="M684.738 365.766C688.527 353.394 688.069 348.305 684.071 341.508C678.56 335.083 667.456 346.724 652.586 358.101C645.144 367.728 645.42 372.979 649.214 382.233C643.671 393.856 638.657 396.528 628.829 399.505C627.511 396.606 629.276 390.302 636.068 372.245C627.375 373.771 598.777 384.262 605.437 395.195C612.098 406.129 605.817 413.168 599.964 422.594C592.422 422.663 587.015 425.215 575.161 434.564C564.561 460.168 565.474 466.324 573.022 470.229C581.172 467.867 585.651 466.942 596.157 454.125C602.807 456.618 598.138 472.11 588.936 501.209C604.146 484.389 610.093 479.1 612.375 483.032C614.485 491.755 611.311 498.127 605.916 509.401C621.887 505.371 629.364 500.94 638.312 486.589L640.461 460.836L671.264 441.14C673.491 426.8 682.099 411.493 676.967 404.42C671.835 397.347 648.643 426.026 648.643 426.026C645.356 421.501 644.683 417.986 654.528 402.472L674.716 393.189C678.22 386.631 680.318 381.604 684.738 365.766Z" fill="#2673E8" stroke="black" stroke-width="3"/>
<path d="M835.298 248.752C843.831 242.172 847.896 241.227 854.256 242.923C860.745 246.039 854.79 258.817 850.075 274.816C844.672 283.863 840.532 285.009 832.326 284.141C824.855 292.056 824.167 297.142 824.566 306.516C827.172 306.901 831.565 303.692 843.672 292.986C844.883 300.984 844.63 328.742 834.336 325.812C824.042 322.883 820.322 330.231 814.637 337.837C816.658 344.444 816.17 349.842 812.195 362.67C795.296 378.699 790.28 379.528 785.182 373.966C784.767 366.222 784.251 362.064 791.281 349.497C787.522 344.346 776.817 352.52 756.827 368.252C765.66 350.517 768.118 343.923 764.447 342.97C757.116 343.432 753.057 347.889 745.816 355.583C744.542 340.564 745.914 332.861 754.56 321.25L773.9 312.566L780.67 280.448C791.155 274.712 800.634 263.145 807.52 265.76C814.406 268.374 798.59 296.216 798.59 296.216C802.996 297.891 805.902 297.55 815.201 284.848L816.831 264.757C820.943 259.962 824.257 256.801 835.298 248.752Z" fill="#41E826" stroke="black" stroke-width="3"/>
<path d="M681.52 617.769C671.32 627.477 665.945 630.148 656.785 631.492C647.113 631.627 652.299 617.545 655.017 601.147C660.324 590.644 665.755 587.76 677.262 584.847C685.683 574.425 685.432 569.576 682.67 561.389C678.989 562.217 673.696 567.055 659.548 582.052C655.993 575.458 649.79 550.569 664.659 548.557C679.529 546.545 682.918 538.315 688.953 528.972C684.611 523.983 684.009 518.945 686.456 505.71C705.949 483.808 712.662 480.814 720.996 483.486C723.394 490.213 725.087 493.691 718.37 508.067C724.762 510.975 737.578 498.868 761.397 475.843C753.416 495.642 751.587 502.632 756.869 501.833C766.857 498.125 771.395 492.324 779.552 482.202C784.852 495.034 784.78 502.527 775.612 516.775L751.025 533.218L749.28 564.927C736.191 574.76 725.866 589.343 715.765 590.105C705.664 590.866 720.877 558.908 720.877 558.908C714.413 559.393 710.491 561.003 700.682 576.519L703.177 595.184C698.646 601.312 694.828 605.623 681.52 617.769Z" fill="#EDFF7C" stroke="black" stroke-width="3"/>
<path d="M750.481 291.052C760.399 281.809 765.486 279.584 773.972 279.259C782.859 280.306 777.294 294.897 773.862 312.299C768.39 323.004 763.24 325.454 752.51 327.186C744.184 337.419 744.138 342.696 746.206 351.891C749.633 351.45 754.768 346.87 768.613 332.393C771.499 339.965 775.773 367.649 762.008 367.992C748.243 368.335 744.661 376.819 738.587 386.18C742.289 392.112 742.554 397.634 739.552 411.648C720.406 432.934 714.073 435.345 706.574 431.426C704.757 423.855 703.402 419.884 710.388 405.163C704.686 401.229 692.23 412.743 669.049 434.71C677.506 414.28 679.584 406.945 674.69 407.157C665.308 409.936 660.812 415.651 652.745 425.593C648.612 411.06 649.106 402.965 658.336 388.684L681.847 373.931L685.259 339.849C697.836 330.828 708.147 316.328 717.463 316.75C726.78 317.172 710.989 349.863 710.989 349.863C716.951 350.135 720.644 348.878 730.535 333.305L729.309 312.809C733.819 306.74 737.57 302.548 750.481 291.052Z" fill="#EDFF7C" stroke="black" stroke-width="3"/>
<path d="M308.603 425.626C301.531 426.688 296.936 430.384 287.965 440.795C278.037 453.435 278.385 464.623 275.364 482.052C277.108 488.491 281.685 484.995 292.519 473.487C297.503 475.696 295.521 482.248 289.765 496.406C286.262 500.221 282.521 501.028 273.255 500.538C267.247 513.704 252.009 553.84 266.63 536.722C281.252 519.604 281.825 525.669 284.731 529.656C278.48 541.807 276.07 549.064 273.893 562.796C286.22 565.06 292.08 560.008 301.625 545.539C306.488 533.736 309.469 527.033 307.647 517.495C315.273 505.297 324.192 503.846 340.581 501.819C339.382 487.001 339.977 480.46 345.142 474.487C354.127 466.01 356.746 467.44 361.565 469.613C371.589 446.136 374.176 436.623 369.781 430.495L350.261 441.98L359.724 403.627C349.717 408.356 344.246 403.332 334.099 415.737C323.951 428.141 328.291 448.972 328.291 448.972C321.796 456.914 318.323 460.044 313.716 453.141L322.92 425.898C320.422 424.044 318.016 423.572 308.603 425.626Z" fill="#E82626" stroke="black" stroke-width="3"/>
<path d="M417.201 749.313C425.529 746.985 430.969 742.912 441.62 732.238C453.418 719.472 453.116 710.012 456.836 694.558C454.847 689.424 449.43 693.323 436.577 705.307C430.735 704.429 433.129 698.449 440.035 685.23C444.192 681.275 448.599 679.835 459.493 678.387C466.686 665.963 484.993 628.708 467.631 646.232C450.269 663.756 449.653 658.706 446.273 655.894C453.742 644.286 456.646 637.619 459.337 625.484C444.861 626.037 437.92 631.52 426.554 645.766C420.722 656.799 417.151 663.109 419.203 670.867C410.116 682.792 399.613 685.823 380.316 690.849C381.585 703.229 380.822 708.92 374.691 715.048C364.041 724.077 360.974 723.387 355.327 722.506C343.312 744.522 340.178 753.146 345.289 757.481L368.358 743.768L356.862 778.342C368.678 772.3 375.064 775.478 387.118 762.869C399.172 750.26 394.266 733.39 394.266 733.39C401.982 725.318 406.097 721.952 411.449 726.905L400.364 751.963C403.284 753.04 406.11 752.957 417.201 749.313Z" fill="#E82626" stroke="black" stroke-width="3"/>
<path d="M365.84 652.516C373.82 649.714 378.818 645.296 388.375 633.908C398.882 620.338 397.788 610.76 400.139 594.89C397.754 589.79 392.765 594.03 381.156 606.863C375.348 606.281 377.194 600.09 382.861 586.319C386.608 582.089 390.814 580.394 401.386 578.35C407.401 565.37 422.235 526.62 406.667 545.31C391.099 564.001 390.069 558.911 386.515 556.239C392.869 544.071 395.158 537.156 396.779 524.708C382.614 526.033 376.262 531.962 366.304 547.01C361.508 558.507 358.534 565.095 361.201 572.854C353.285 585.429 343.23 589.058 324.709 595.176C326.998 607.664 326.728 613.476 321.225 620.014C311.531 629.735 308.462 629.197 302.844 628.602C292.903 651.564 290.553 660.476 295.935 664.602L317.427 649.476L309.052 685.147C320.142 678.394 326.679 681.279 337.451 667.854C348.222 654.43 341.986 637.58 341.986 637.58C348.88 628.986 352.637 625.355 358.308 630.095L349.536 656.094C352.493 657.031 355.26 656.798 365.84 652.516Z" fill="#E82626" stroke="black" stroke-width="3"/>
<path d="M364.166 495.289C355.76 502.832 351.678 503.966 345.175 502.176C338.492 498.793 344.064 484.336 348.264 466.285C353.411 456.028 357.562 454.666 365.904 455.494C373.185 446.472 373.7 440.747 372.959 430.228C370.305 429.842 365.972 433.524 354.095 445.765C352.582 436.805 351.84 405.628 362.371 408.733C372.901 411.838 376.405 403.519 381.889 394.876C379.605 387.493 379.905 381.422 383.469 366.945C400.009 348.641 405.059 347.62 410.422 353.774C411.119 362.464 411.792 367.124 405.124 381.362C409.116 387.08 419.664 377.708 439.343 359.683C431.035 379.757 428.782 387.206 432.535 388.212C439.943 387.561 443.893 382.483 450.95 373.713C452.78 390.556 451.667 399.232 443.329 412.425L424.054 422.525L418.352 458.715C407.938 465.345 398.754 478.504 391.687 475.692C384.619 472.88 399.637 441.329 399.637 441.329C395.114 439.527 392.183 439.962 383.222 454.393L382.293 476.984C378.301 482.443 375.059 486.053 364.166 495.289Z" fill="#41E826" stroke="black" stroke-width="3"/>
<path d="M332.445 500.08C336.784 488.011 336.894 482.805 334.228 475.447C330.27 468.284 319.926 478.737 306.479 488.471C299.37 497.324 299.094 502.671 301.353 512.493C295.63 523.592 291.208 525.696 282.758 527.533C281.943 524.441 284.016 518.272 291.397 500.809C284.03 501.312 259.266 508.505 263.745 520.369C268.224 532.233 262.329 538.606 256.559 547.445C250.288 546.612 245.552 548.548 234.805 556.591C223.534 581.236 223.699 587.576 229.592 592.432C236.589 591.018 240.398 590.618 250.359 578.904C255.643 582.223 250.272 597.344 239.825 625.694C254.079 610.492 259.528 605.85 261.044 610.104C261.956 619.186 258.706 625.254 253.139 636.019C266.793 633.853 273.43 630.264 282.244 616.81L286.51 591.002L313.992 574.755C317.223 560.508 325.847 546.046 322.266 538.273C318.685 530.499 296.66 556.749 296.66 556.749C294.366 551.775 294.145 548.136 303.817 533.613L321.479 526.636C325.021 520.418 327.248 515.581 332.445 500.08Z" fill="#2673E8" stroke="black" stroke-width="3"/>
<path d="M454.03 586.611C462.246 583.121 467.241 578.412 476.626 566.624C486.884 552.671 485.193 543.715 486.76 528.438C483.968 523.857 478.972 528.397 467.515 541.768C461.386 541.826 459.709 535.523 469.415 524.61C479.121 513.697 476.148 514.703 487.131 512.643L473.314 489.579L444.642 511.651C437.047 524.39 426.698 528.882 407.607 536.618C410.717 548.205 410.763 553.738 405.359 560.507C395.735 570.73 392.483 570.543 386.553 570.568C377.422 593.358 375.461 602.045 381.344 605.388L403.043 588.808L396.277 623.47C407.534 615.912 414.558 617.959 425.102 604.115C435.647 590.271 428.145 574.967 428.145 574.967C434.894 566.105 438.631 562.272 444.852 566.166L437.119 591.709C440.277 592.287 443.168 591.776 454.03 586.611Z" fill="#2673E8" stroke="black" stroke-width="3"/>
<path d="M340.942 794.718C349.158 791.229 348.776 785.334 358.161 773.546C368.419 759.592 369.856 760.26 371.423 744.984C368.63 740.403 365.884 736.504 354.427 749.875C348.298 749.933 341.691 745.446 351.397 734.533C361.103 723.619 365.399 720.751 376.342 720.45L360.226 697.686L331.554 719.758C323.959 732.498 313.61 736.989 294.519 744.725C297.629 756.312 297.675 761.846 292.271 768.615C282.647 778.837 279.395 778.65 273.465 778.676C264.334 801.465 262.373 810.152 268.256 813.495L289.955 796.916L283.189 831.578C294.446 824.019 301.47 826.066 312.014 812.222C322.559 798.379 315.057 783.074 315.057 783.074C321.806 774.212 325.543 770.379 331.764 774.274L324.032 799.817C327.189 800.395 330.08 799.883 340.942 794.718Z" fill="#41E826" stroke="black" stroke-width="3"/>
<path d="M250.348 856.102C258.984 853.088 264.446 848.719 274.951 837.631C286.52 824.463 285.537 815.602 288.383 800.708C285.92 796.081 280.471 800.283 267.731 812.821C261.498 812.575 263.607 806.717 269.976 793.609C274.09 789.479 278.646 787.688 290.055 785.247C296.783 772.856 313.511 736.025 296.396 754.218C279.282 772.411 278.277 767.726 274.508 765.418C281.584 753.767 284.185 747.213 286.177 735.541C270.92 737.497 263.971 743.339 252.962 757.856C247.574 768.803 244.244 775.088 246.956 782.176C238.193 794.286 227.308 798.176 207.271 804.815C209.482 816.324 209.075 821.749 203.027 828.116C192.408 837.659 189.119 837.314 183.09 837.047C171.941 858.93 169.235 867.346 174.94 870.913L198.352 855.737L188.632 889.372C200.692 882.52 207.663 884.873 219.514 871.827C231.365 858.781 224.998 843.412 224.998 843.412C232.583 835.06 236.695 831.488 242.698 835.612L232.744 860.263C235.905 860.985 238.885 860.627 250.348 856.102Z" fill="#2673E8" stroke="black" stroke-width="3"/>
<path d="M434.914 452.742C426.073 459.486 422.067 460.137 416.1 457.439C410.143 453.066 417.085 438.779 423.136 420.586C429.195 410.605 433.291 409.727 441.115 411.662C449.059 403.237 450.202 397.362 450.702 386.349C448.226 385.606 443.692 388.868 431.018 400.041C430.606 390.546 433.467 358.091 443.108 362.672C452.75 367.254 457.027 359.072 463.221 350.808C461.897 342.85 462.876 336.588 467.915 322.022C485.708 305.158 490.619 304.75 495.006 311.83C494.674 320.939 494.78 325.862 486.822 339.78C489.957 346.229 501.042 337.863 521.784 321.694C511.601 341.457 508.611 348.898 512.058 350.426C519.165 350.706 523.495 345.945 531.197 337.754C531.008 355.472 528.96 364.332 519.536 376.95L500.084 384.946L490.533 421.772C479.89 427.31 469.667 439.783 463.28 435.952C456.892 432.122 474.756 401.313 474.756 401.313C470.668 398.858 467.837 398.931 457.68 412.754L454.215 436.082C449.801 441.232 446.311 444.561 434.914 452.742Z" fill="#EDFF7C" stroke="black" stroke-width="3"/>
<path d="M404.57 685.967C395.26 693.56 390.904 694.829 384.201 693.411C377.412 690.478 384.203 676.402 389.79 658.952C395.861 648.912 400.304 647.422 409 647.836C417.228 638.88 418.143 633.383 418.055 623.358C415.296 623.109 410.51 626.826 397.251 639.067C396.25 630.568 397.513 600.79 408.356 603.283C419.198 605.776 423.418 597.663 429.736 589.15C427.823 582.194 428.536 576.375 433.223 562.371C451.769 544.121 457.133 542.916 462.355 548.559C462.518 556.836 462.918 561.261 454.992 575.178C458.804 580.465 470.482 571.026 492.304 552.901C482.274 572.472 479.424 579.696 483.294 580.488C491.107 579.531 495.583 574.497 503.559 565.792C504.376 581.815 502.641 590.16 493.03 603.153L472.152 613.682L463.801 648.545C452.444 655.355 441.95 668.353 434.721 665.984C427.492 663.614 445.309 632.767 445.309 632.767C440.683 631.248 437.581 631.796 427.237 646L424.783 667.645C420.238 673.044 416.601 676.643 404.57 685.967Z" fill="#EDFF7C" stroke="black" stroke-width="3"/>
<path d="M229.114 655.926C228.268 647.698 230.018 641.59 235.88 628.86C243.223 614.489 251.864 612.051 264.491 604.242C269.826 604.576 268.224 610.611 261.96 625.717C264.819 630.768 269.367 626.88 278.849 616.82C280.947 611.912 280.687 607.498 278.139 597.193C286.804 587.099 313.938 559.797 304.27 580.584C294.602 601.371 299.376 600.482 303.109 602.744C310.939 592.635 315.927 588.087 325.922 582.164C330.545 595.465 328.054 603.338 319.222 617.742C311.332 626.2 306.903 631.251 299.178 631.613C291.634 643.282 292.615 653.687 294.907 672.647C283.289 675.044 278.425 677.37 275.066 684.693C270.687 696.95 272.395 699.537 275.188 704.411C259.576 721.631 252.904 726.949 247.185 723.553L251.395 698.677L224.27 719.029C225.542 706.569 220.416 701.683 227.526 687.124C234.637 672.565 251.593 672.181 251.593 672.181C256.146 662.862 257.727 658.16 251.365 654.722L232.68 671.971C230.675 669.629 229.75 667.039 229.114 655.926Z" fill="#EDFF7C" stroke="black" stroke-width="3"/>
</svg>
