<svg width="1020" height="1103" viewBox="0 0 1020 1103" fill="none" xmlns="http://www.w3.org/2000/svg">
<path d="M636.786 427.797C628.327 431.026 623.619 435.202 615.267 445.563C606.317 457.802 609.683 465.41 610.525 478.522C614.369 482.356 619.107 478.325 629.473 466.548C636.211 466.316 635.482 471.543 632.085 483.359C628.758 487.232 624.348 489.11 612.771 492.041C608.802 503.26 600.507 536.374 614.081 519.384C627.655 502.395 629.955 506.383 634.592 508.114C630.057 518.716 628.984 524.582 629.898 534.84C645.723 532.055 651.637 526.495 659.635 513.128C662.545 503.255 664.469 497.57 659.715 491.622C665.937 480.501 676.575 476.351 696.294 469.166C690.923 459.35 689.943 454.619 694.756 448.669C703.633 439.64 707.245 439.703 713.769 439.504C719.993 419.742 720.693 412.255 713.654 409.572L692.55 424.397L694.176 394.553C683.053 401.353 674.976 399.812 665.693 411.965C656.41 424.118 667.239 436.983 667.239 436.983C661.298 444.763 657.828 448.152 650.325 445.007L654.547 422.933C650.974 422.532 647.877 423.056 636.786 427.797Z" fill="#E82626" stroke="black" stroke-width="3"/>
<path d="M647.191 643.905C655.858 636.878 660.413 635.506 668.16 636.226C676.333 638.21 671.881 650.501 669.503 665.54C664.967 674.393 660.364 675.956 650.626 676.219C643.458 684.315 643.647 688.993 645.94 697.401C649.055 697.416 653.551 693.96 665.58 682.754C668.551 689.817 673.67 714.898 661.095 713.568C648.521 712.238 645.616 719.344 640.47 726.932C644.115 732.637 644.599 737.57 642.465 749.653C625.886 766.274 620.199 767.662 613.17 763.293C611.177 756.357 609.764 752.671 615.51 740.434C610.123 736.265 599.234 745.007 578.993 761.753C585.835 744.623 587.416 738.359 582.949 737.966C574.49 739.319 570.628 743.859 563.684 751.725C559.27 738.335 559.368 731.208 567.185 719.627L588.042 709.323L589.674 679.476C600.782 672.962 609.579 661.315 618.117 662.796C626.656 664.276 613.643 691.419 613.643 691.419C619.108 692.369 622.43 691.691 630.795 679.042L628.779 660.703C632.638 655.852 635.886 652.576 647.191 643.905Z" fill="#EDFF7C" stroke="black" stroke-width="3"/>
<path d="M858.448 351.183C863.667 340.824 864.314 335.682 862.662 327.337C859.813 318.692 849.298 325.147 836.034 329.701C828.633 335.8 827.819 341.018 828.842 351.661C822.465 360.527 818.219 360.932 810.335 359.532C809.918 356.141 812.454 350.791 821.009 336.223C814.251 333.909 790.954 331.608 793.783 345.133C796.612 358.658 790.576 362.751 784.394 369.347C778.774 366.122 774.26 366.239 763.632 370.141C750.781 390.374 750.265 396.751 755.117 403.838C761.634 405.103 765.144 406.161 775.442 398.303C779.902 403.627 773.423 416.631 760.933 440.869C775.505 431.178 780.953 428.638 781.886 433.453C781.761 442.845 778.165 447.646 771.965 456.237C784.62 459.298 791.039 458.26 800.477 448.232L807.074 424.164L833.797 418.489C838.237 405.537 847.608 394.432 845.166 385.323C842.724 376.214 819.915 393.936 819.915 393.936C818.351 388.106 818.532 384.399 828.863 373.633L845.673 373.435C849.551 368.597 852.087 364.631 858.448 351.183Z" fill="#E82626" stroke="black" stroke-width="3"/>
<path d="M648.362 572.948C657.061 566.153 661.569 564.945 669.154 565.996C677.122 568.351 672.416 580.676 669.671 595.882C664.976 604.705 660.415 606.106 650.849 605.973C643.593 613.917 643.65 618.685 645.671 627.335C648.728 627.479 653.236 624.147 665.35 613.238C668.073 620.547 672.411 646.282 660.105 644.411C647.799 642.54 644.753 649.652 639.495 657.162C642.917 663.117 643.257 668.158 640.832 680.366C624.103 696.598 618.483 697.777 611.703 693.042C609.937 685.902 608.65 682.093 614.626 669.876C609.452 665.412 598.525 673.86 578.199 690.07C585.383 672.918 587.106 666.609 582.732 666.026C574.392 667.054 570.476 671.515 563.446 679.235C559.479 665.427 559.77 658.179 567.759 646.715L588.514 637.087L590.932 606.781C602.013 600.609 610.967 589.118 619.307 590.976C627.648 592.834 614.133 619.92 614.133 619.92C619.471 621.111 622.75 620.558 631.307 608.03L629.83 589.285C633.751 584.507 637.028 581.307 648.362 572.948Z" fill="#41E826" stroke="black" stroke-width="3"/>
<path d="M686.848 504.22C691.117 493.496 691.262 488.418 688.751 480.514C684.994 472.469 674.954 480.063 661.933 486.155C655.021 493.011 654.715 498.186 656.816 508.402C651.221 517.819 646.948 518.746 638.798 518.375C638.036 515.131 640.079 509.613 647.318 494.38C640.22 492.979 616.322 493.668 620.545 506.458C624.768 519.248 619.043 523.984 613.421 531.172C607.389 528.742 602.814 529.423 592.406 534.55C581.367 555.828 581.478 562.09 587.115 568.37C593.863 568.781 597.534 569.369 607.213 560.438C612.276 565.053 606.99 578.505 596.717 603.631C610.556 592.383 615.838 589.23 617.266 593.793C618.075 602.937 614.9 608.054 609.458 617.183C622.621 618.569 629.039 616.755 637.627 605.823L641.93 581.602L668.514 572.731C671.734 559.586 680.147 547.616 676.758 539.07C673.368 530.523 651.962 550.61 651.962 550.61C649.791 545.141 649.606 541.515 659.028 529.755L676.088 527.451C679.545 522.262 681.726 518.09 686.848 504.22Z" fill="#2673E8" stroke="black" stroke-width="3"/>
<path d="M708.342 511.242C704.613 505.601 704.953 500.719 708.556 489.899C713.57 477.471 724.086 473.203 738.099 463.929C745.177 462.611 745.009 467.397 741.637 480.036C746.984 482.816 751.689 478.705 760.874 468.739C762.051 464.614 760.304 461.531 753.689 454.9C761.795 445.148 788.552 417.689 782.544 435.387C776.536 453.085 782.492 451.055 788.091 451.584C795.102 442.064 800.17 437.353 811.345 430.197C821.627 438.366 820.881 444.728 813.931 457.613C806.316 465.969 802.137 470.877 792.157 473.391C786.017 483.944 790.616 491.103 799.657 504.002C785.238 509.109 779.621 512.193 777.566 518.414C775.751 528.464 778.808 529.816 784.011 532.489C769.099 549.369 762.075 555.123 753.518 554.361L751.089 535.331L722.128 557.813C719.818 548.526 711.561 546.525 716.212 534.031C720.864 521.537 742.901 516.312 742.901 516.312C745.88 508.314 746.447 504.489 737.037 503.885L718.116 521.683C714.75 520.592 712.716 519.009 708.342 511.242Z" fill="#41E826" stroke="black" stroke-width="3"/>
<path d="M708.872 332.018C712.232 321.439 711.821 316.743 708.261 309.893C703.357 303.122 693.493 311.791 680.281 319.576C673.671 327.041 673.92 331.853 677.3 340.898C672.381 350.498 667.925 352.067 659.19 353.092C658.015 350.235 659.58 344.817 665.605 329.592C657.878 329.492 632.459 334.131 638.389 345.189C644.319 356.246 638.74 361.561 633.543 369.115C626.838 367.891 622.033 369.284 611.5 375.745C602.094 397.168 602.911 402.91 609.624 407.741C616.869 406.989 620.85 406.914 630.182 397.077C636.096 400.474 631.957 413.734 623.797 438.568C637.307 425.902 642.591 422.117 644.622 426.075C646.504 434.35 643.687 439.59 638.899 448.899C653.096 447.967 659.74 445.223 667.685 433.728L669.576 410.727L696.948 398.112C698.918 385.48 706.559 373.06 701.991 365.766C697.423 358.473 676.825 380.537 676.825 380.537C673.9 375.87 673.298 372.566 682.04 360.169L699.982 355.191C703.092 349.839 704.954 345.635 708.872 332.018Z" fill="#2673E8" stroke="black" stroke-width="3"/>
<path d="M846.952 239.616C855.698 233.361 860.09 232.521 867.29 234.309C874.777 237.488 869.516 249.852 865.958 265.388C860.922 274.117 856.468 275.153 847.316 274.136C839.88 281.716 839.644 286.672 841.05 295.84C843.969 296.27 848.49 293.225 860.758 283.012C862.919 290.852 865.501 317.971 853.829 314.897C842.158 311.823 838.807 318.927 833.312 326.242C836.225 332.74 836.242 338.004 833.174 350.457C816.161 365.773 810.706 366.48 804.502 360.941C803.247 353.364 802.248 349.291 808.718 337.156C804.036 332.045 793.054 339.812 772.598 354.773C780.526 337.626 782.562 331.233 778.409 330.225C770.359 330.526 766.336 334.798 759.132 342.167C756.177 327.465 756.898 319.966 765.251 308.798L785.716 300.71L789.884 269.464C800.874 264.075 810.151 252.967 818.025 255.663C825.899 258.359 811.3 285.241 811.3 285.241C816.339 286.968 819.514 286.695 828.475 274.474L828.205 254.875C832.253 250.275 835.587 247.253 846.952 239.616Z" fill="#41E826" stroke="black" stroke-width="3"/>
<path d="M668.614 598.265C660.241 606.444 655.499 608.672 646.986 609.741C637.825 609.777 640.852 597.835 641.225 583.901C644.848 575.006 649.614 572.596 660.143 570.211C666.733 561.411 665.841 557.281 662.119 550.291C658.736 550.965 654.364 555.039 642.955 567.687C638.694 562.045 629.457 540.812 643.299 539.222C657.14 537.632 659.249 530.655 663.719 522.753C658.926 518.471 657.677 514.179 658.219 502.935C673.771 484.455 679.739 481.962 688.008 484.305C691.189 490.049 693.264 493.023 688.824 505.203C695.282 507.731 705.815 497.532 725.323 478.132C720.413 494.916 719.617 500.85 724.523 500.214C733.503 497.14 737.029 492.24 743.409 483.693C750.165 494.658 751.105 501.033 744.322 513.085L723.2 526.877L725.811 553.85C714.713 562.11 706.876 574.437 697.392 575.002C687.908 575.567 698.046 548.493 698.046 548.493C691.976 548.853 688.47 550.191 681.249 563.316L686.129 579.222C682.653 584.399 679.61 588.037 668.614 598.265Z" fill="#EDFF7C" stroke="black" stroke-width="3"/>
<path d="M760.247 278.485C768.898 271.359 773.472 269.917 781.287 270.493C789.547 272.316 785.206 284.59 782.988 299.552C778.521 308.416 773.901 310.049 764.091 310.484C756.964 318.643 757.21 323.28 759.62 331.581C762.759 331.541 767.249 328.032 779.239 316.7C782.316 323.655 787.771 348.447 775.084 347.352C762.397 346.256 759.553 353.357 754.458 360.977C758.198 366.572 758.744 371.458 756.737 383.484C740.226 400.269 734.512 401.747 727.376 397.538C725.286 390.692 723.818 387.061 729.464 374.818C723.987 370.777 713.117 379.644 692.918 396.619C699.61 379.502 701.128 373.259 696.622 372.949C688.114 374.442 684.275 379.014 677.372 386.942C672.764 373.736 672.779 366.664 680.519 355.035L701.416 344.441L702.707 314.8C713.823 308.139 722.55 296.428 731.173 297.745C739.795 299.062 727.003 326.222 727.003 326.222C732.521 327.067 735.86 326.335 744.141 313.637L741.892 295.479C745.724 290.597 748.957 287.289 760.247 278.485Z" fill="#EDFF7C" stroke="black" stroke-width="3"/>
<path d="M316.798 431.413C309.343 432.319 304.584 436.05 295.388 446.672C285.243 459.597 285.934 471.3 283.238 489.43C285.269 496.209 290.013 492.687 301.151 480.971C306.49 483.424 304.581 490.215 298.896 504.846C295.297 508.733 291.361 509.469 281.538 508.689C275.557 522.277 260.583 563.785 275.568 546.316C290.553 528.846 291.334 535.201 294.525 539.453C288.258 551.972 285.916 559.487 284.007 573.776C297.121 576.498 303.179 571.386 312.867 556.539C317.674 544.344 320.637 537.424 318.433 527.402C326.155 514.873 335.553 513.614 352.845 511.967C351.148 496.447 351.59 489.627 356.885 483.534C366.152 474.933 368.966 476.502 374.13 478.912C384.065 454.664 386.529 444.796 381.7 438.265L361.368 449.706L370.279 409.894C359.822 414.548 353.887 409.14 343.502 421.812C333.118 434.484 338.312 456.381 338.312 456.381C331.666 464.494 328.079 467.666 323.004 460.318L331.961 432.111C329.264 430.1 326.703 429.538 316.798 431.413Z" fill="#E82626" stroke="black" stroke-width="3"/>
<path d="M441.084 772.844C449.833 770.651 455.475 766.55 466.442 755.701C478.564 742.699 477.971 732.804 481.464 716.758C479.21 711.336 473.588 715.255 460.327 727.41C454.119 726.323 456.48 720.142 463.41 706.526C467.696 702.512 472.32 701.133 483.811 699.934C491.067 687.156 509.373 648.747 491.499 666.562C473.625 684.377 472.827 679.081 469.168 676.045C476.74 664.128 479.622 657.244 482.121 644.638C466.812 644.799 459.623 650.33 448.002 664.891C442.146 676.254 438.548 682.746 440.943 690.913C431.668 703.115 420.637 705.981 400.354 710.677C402.055 723.653 401.411 729.579 395.097 735.806C384.083 744.937 380.817 744.127 374.813 743.044C362.729 765.707 359.661 774.63 365.196 779.308L389.221 765.641L378.047 801.445C390.381 795.47 397.233 798.976 409.63 786.145C422.027 773.314 416.348 755.541 416.348 755.541C424.283 747.327 428.542 743.927 434.35 749.258L423.338 775.128C426.46 776.338 429.449 776.332 441.084 772.844Z" fill="#E82626" stroke="black" stroke-width="3"/>
<path d="M386.926 657.196C395.292 654.498 400.455 650.024 410.244 638.397C420.975 624.517 419.542 614.476 421.573 597.957C418.901 592.557 413.742 596.846 401.823 609.924C395.658 609.148 397.434 602.73 403.035 588.501C406.881 584.188 411.284 582.538 422.416 580.707C428.41 567.313 442.997 527.241 427.055 546.327C411.114 565.412 409.877 560.064 406.037 557.168C412.413 544.634 414.637 537.473 415.994 524.509C401.037 525.487 394.484 531.499 384.376 546.94C379.631 558.818 376.672 565.618 379.719 573.804C371.702 586.719 361.162 590.222 341.733 596.082C344.515 609.2 344.397 615.267 338.76 621.942C328.778 631.822 325.514 631.171 319.549 630.388C309.688 654.1 307.457 663.346 313.273 667.814L335.588 652.624L327.751 689.664C339.296 682.926 346.299 686.13 357.315 672.409C368.33 658.689 361.244 640.899 361.244 640.899C368.294 632.116 372.166 628.429 378.306 633.546L369.769 660.466C372.926 661.531 375.849 661.366 386.926 657.196Z" fill="#E82626" stroke="black" stroke-width="3"/>
<path d="M377.623 505.822C368.942 513.464 364.653 514.532 357.718 512.472C350.546 508.744 356.028 493.795 359.953 475.05C365.107 464.479 369.462 463.175 378.317 464.281C385.764 455.061 386.144 449.093 385.057 438.077C382.236 437.597 377.755 441.321 365.536 453.772C363.675 444.364 361.991 411.758 373.229 415.307C384.466 418.855 387.935 410.262 393.491 401.387C390.86 393.604 391.003 387.268 394.359 372.24C411.34 353.586 416.656 352.664 422.511 359.251C423.5 368.353 424.346 373.243 417.698 387.932C422.088 394.023 432.984 384.532 453.297 366.26C445.08 387.001 442.91 394.722 446.912 395.88C454.735 395.414 458.77 390.22 465.988 381.258C468.411 398.914 467.483 407.949 459.036 421.498L438.923 431.499L433.929 469.158C423.097 475.787 413.754 489.276 406.192 486.133C398.629 482.99 413.617 450.448 413.617 450.448C408.777 448.434 405.687 448.804 396.617 463.629L396.285 487.214C392.216 492.803 388.888 496.483 377.623 505.822Z" fill="#41E826" stroke="black" stroke-width="3"/>
<path d="M391.171 777.953C390.189 787.704 387.115 794.302 378.522 807.461C368.105 822.122 359.043 822.623 344.862 828.269C339.674 826.45 342.586 819.894 352.1 804.094C350.395 797.48 345.05 800.758 333.475 809.854C330.322 814.971 329.604 820.15 329.842 832.762C319.067 842.116 286.272 866.427 300.398 844.965C314.524 823.503 309.618 823.25 306.436 819.629C296.48 829.225 290.555 833.15 279.387 837.32C277.763 820.684 281.959 812.24 293.851 797.942C303.502 790.272 308.987 785.616 316.687 787.272C326.705 775.793 328.035 763.487 329.959 740.927C341.949 741.273 347.261 739.889 352.191 732.315C359.217 719.305 358.103 715.852 356.424 709.46C375.626 693.723 383.382 689.361 388.274 694.828L378.629 722.488L409.88 706.22C405.875 720.299 409.854 727.331 399.625 742.272C389.396 757.212 372.585 753.102 372.585 753.102C366.036 762.665 363.439 767.681 368.955 773.37L391.196 758.425C392.657 761.674 392.997 764.92 391.171 777.953Z" fill="#41E826" stroke="black" stroke-width="3"/>
<path d="M344.181 509.916C348.427 497.427 348.393 491.99 345.359 484.222C340.963 476.622 330.314 487.249 316.359 497.035C309.089 506.082 308.95 511.663 311.625 521.993C305.886 533.429 301.266 535.5 292.374 537.177C291.421 533.921 293.439 527.534 300.749 509.495C292.965 509.809 266.958 516.613 272.04 529.142C277.123 541.67 271.067 548.161 265.213 557.233C258.551 556.181 253.593 558.068 242.449 566.164C231.226 591.597 231.584 598.229 237.962 603.474C245.328 602.197 249.349 601.889 259.556 589.933C265.244 593.554 259.995 609.203 249.752 638.532C264.403 623.054 270.038 618.36 271.765 622.849C272.992 632.367 269.727 638.616 264.143 649.706C278.534 647.836 285.457 644.276 294.4 630.469L298.173 603.619L326.797 587.431C329.807 572.633 338.52 557.767 334.505 549.539C330.491 541.312 307.931 568.112 307.931 568.112C305.359 562.847 305.021 559.038 314.841 544.138L333.337 537.354C336.907 530.958 339.125 525.966 344.181 509.916Z" fill="#2673E8" stroke="black" stroke-width="3"/>
<path d="M475.382 603.857C483.979 600.447 489.131 595.669 498.726 583.619C509.183 569.331 507.136 559.922 508.354 544.001C505.266 539.133 500.108 543.733 488.366 557.378C481.879 557.262 483.385 550.977 488.46 536.874C492.243 532.382 496.755 530.368 508.291 527.503C513.823 514.155 526.875 474.558 511.257 494.325C495.64 514.091 494.054 509.127 489.882 506.759C495.86 494.191 497.793 487.154 498.501 474.682C482.922 477.121 476.401 483.502 466.681 499.213C462.371 510.993 459.651 517.761 463.284 525.242C455.612 538.338 444.786 542.734 424.799 550.269C428.426 562.469 428.634 568.253 423.108 575.173C413.215 585.58 409.767 585.29 403.49 585.146C394.481 608.701 392.656 617.724 398.98 621.388L421.472 604.685L415.308 640.717C427.007 633.141 434.502 635.483 445.265 621.318C456.028 607.153 447.646 590.942 447.646 590.942C454.535 581.874 458.38 577.975 465.078 582.225L457.628 608.698C460.987 609.394 464.033 608.942 475.382 603.857Z" fill="#2673E8" stroke="black" stroke-width="3"/>
<path d="M267.534 879.646C276.589 876.745 282.245 872.337 293.046 861.05C304.914 847.621 303.617 838.332 306.201 822.847C303.461 817.94 297.813 822.175 284.688 834.912C278.083 834.475 280.147 828.413 286.511 814.897C290.747 810.7 295.519 808.959 307.525 806.736C314.291 793.98 330.937 755.968 313.344 774.489C295.751 793.01 294.552 788.084 290.497 785.565C297.652 773.592 300.216 766.816 301.988 754.675C285.893 756.279 278.706 762.185 267.47 777.04C262.082 788.326 258.738 794.799 261.814 802.285C252.886 814.689 241.475 818.442 220.456 824.802C223.128 836.895 222.853 842.553 216.634 849.033C205.668 858.701 202.177 858.246 195.787 857.793C184.615 880.343 181.994 889.061 188.135 892.953L212.481 877.766L203.161 912.64C215.73 905.827 223.177 908.487 235.347 895.193C247.516 881.899 240.333 865.653 240.333 865.653C248.122 857.143 252.372 853.528 258.845 858.011L249.019 883.488C252.386 884.334 255.53 884.045 267.534 879.646Z" fill="#2673E8" stroke="black" stroke-width="3"/>
<path d="M451.29 463.393C442.125 470.187 437.904 470.752 431.509 467.76C425.077 463.018 432.014 448.287 437.895 429.446C444.021 419.189 448.332 418.389 456.67 420.637C464.836 412.061 465.877 405.954 466.089 394.457C463.447 393.609 458.741 396.889 445.647 408.2C444.937 398.265 447.031 364.427 457.369 369.493C467.707 374.559 471.999 366.131 478.317 357.673C476.687 349.317 477.543 342.801 482.457 327.722C500.807 310.609 505.993 310.324 510.841 317.85C510.753 327.361 511.007 332.51 502.984 346.827C506.488 353.658 517.981 345.233 539.472 328.932C529.263 349.294 526.312 356.984 530.005 358.68C537.536 359.178 541.983 354.327 549.9 345.987C550.211 364.5 548.298 373.702 538.685 386.618L518.324 394.414L509.274 432.628C498.167 438.109 487.705 450.85 480.833 446.663C473.962 442.475 491.983 410.79 491.983 410.79C487.586 408.107 484.59 408.102 474.238 422.255L471.241 446.537C466.717 451.793 463.118 455.171 451.29 463.393Z" fill="#EDFF7C" stroke="black" stroke-width="3"/>
<path d="M425.888 706.274C416.251 713.941 411.676 715.142 404.54 713.467C397.269 710.206 404.052 695.691 409.464 677.613C415.601 667.295 420.262 665.865 429.479 666.549C437.931 657.426 438.741 651.707 438.358 641.226C435.431 640.887 430.471 644.634 416.789 657.046C415.485 648.134 415.964 617.048 427.513 619.966C439.062 622.883 443.295 614.526 449.738 605.811C447.513 598.485 448.1 592.424 452.658 577.923C471.765 559.383 477.408 558.279 483.099 564.327C483.51 572.983 484.061 577.619 476.071 591.936C480.259 597.571 492.349 588.043 514.927 569.728C504.874 589.893 502.065 597.362 506.185 598.301C514.428 597.525 519.021 592.393 527.213 583.525C528.54 600.295 526.943 608.968 517.144 622.27L495.346 632.673L487.511 668.869C475.685 675.659 464.95 688.942 457.229 686.257C449.508 683.572 467.481 651.846 467.481 651.846C462.54 650.125 459.272 650.608 448.731 665.156L446.757 687.707C442.102 693.219 438.355 696.875 425.888 706.274Z" fill="#EDFF7C" stroke="black" stroke-width="3"/>
<path d="M239.288 669.821C238.155 661.196 239.832 654.864 245.67 641.728C253.029 626.919 262.107 624.62 275.248 616.822C280.905 617.325 279.384 623.587 273.188 639.194C276.36 644.555 281.063 640.623 290.81 630.382C292.889 625.313 292.487 620.692 289.493 609.848C298.374 599.549 326.311 571.795 316.676 593.243C307.041 614.69 312.069 613.898 316.085 616.37C324.083 606.03 329.232 601.42 339.642 595.517C344.919 609.552 342.509 617.71 333.575 632.509C325.466 641.122 320.923 646.273 312.756 646.429C305.106 658.408 306.444 669.31 309.417 689.192C297.188 691.363 292.105 693.653 288.761 701.21C284.479 713.895 286.361 716.648 289.458 721.822C273.428 739.37 266.519 744.736 260.367 741.021L264.106 715.144L235.979 735.633C236.966 722.647 231.399 717.393 238.506 702.381C245.614 687.37 263.552 687.457 263.552 687.457C268.103 677.848 269.641 672.98 262.807 669.203L243.525 686.693C241.335 684.187 240.282 681.454 239.288 669.821Z" fill="#EDFF7C" stroke="black" stroke-width="3"/>
</svg>
