<svg width="1015" height="1095" viewBox="0 0 1015 1095" fill="none" xmlns="http://www.w3.org/2000/svg">
<path d="M581.095 536.1C571.902 540.354 566.673 545.336 557.26 557.418C547.118 571.614 550.357 579.695 550.638 594.033C554.566 597.926 559.819 593.101 571.453 579.295C578.665 578.478 577.639 584.284 573.453 597.552C569.714 602.085 564.913 604.517 552.402 608.703C547.631 621.363 537.206 658.445 552.514 638.643C567.821 618.84 570.091 623.032 574.965 624.547C569.619 636.577 568.196 643.113 568.689 654.309C585.733 649.929 592.315 643.326 601.492 627.969C605.068 616.877 607.392 610.47 602.592 604.329C609.765 591.589 621.33 586.141 642.743 576.601C637.465 566.261 636.64 561.145 642.064 554.205C651.977 543.542 655.834 543.31 662.816 542.548C670.399 520.312 671.5 512.026 664.104 509.663L640.851 527.715L643.995 494.782C631.787 503.182 623.227 502.162 612.734 516.292C602.241 530.421 613.208 543.656 613.208 543.656C606.492 552.701 602.624 556.715 594.753 553.884L600.305 529.274C596.506 529.132 593.171 529.965 581.095 536.1Z" fill="#E82626" stroke="black" stroke-width="3"/>
<path d="M609.265 665.162C618.923 656.851 623.848 655.052 632.025 655.368C640.574 657.057 635.049 670.931 631.548 687.717C626.156 697.793 621.168 699.807 610.812 700.701C602.677 710.101 602.574 715.265 604.462 724.425C607.768 724.249 612.766 720.147 626.264 707.004C628.96 714.634 632.764 742.067 619.501 741.374C606.238 740.681 602.693 748.722 596.737 757.436C600.236 763.522 600.429 768.95 597.379 782.45C578.697 801.866 572.57 803.753 565.391 799.355C563.726 791.805 562.465 787.815 569.361 773.92C563.912 769.641 551.784 779.987 529.208 799.768C537.584 780.392 539.669 773.364 534.952 773.206C525.884 775.226 521.488 780.488 513.606 789.621C509.789 775.08 510.356 767.189 519.407 753.893L542.22 741.201L545.891 708.079C558.107 700.184 568.203 686.754 577.172 687.863C586.141 688.972 570.563 719.808 570.563 719.808C576.302 720.52 579.873 719.564 589.576 705.052L588.627 684.888C593.039 679.282 596.7 675.456 609.265 665.162Z" fill="#EDFF7C" stroke="black" stroke-width="3"/>
<path d="M823.177 304.489C824.938 292.855 823.608 288.265 818.382 282.462C811.678 277.144 802.341 288.821 789.123 300.621C783.175 310.109 784.347 314.864 789.782 322.925C786.107 334.046 781.453 336.965 771.946 340.628C770.111 338.115 770.84 332.204 774.696 315.102C766.099 317.333 738.745 329.655 747.385 338.968C756.026 348.28 750.822 355.299 746.458 364.449C738.787 365.243 733.712 368.09 723.222 377.752C716.767 402.096 718.742 407.614 727.093 410.439C734.995 407.5 739.401 406.224 747.929 393.534C755.127 395.16 752.999 409.721 748.561 437.112C761.202 420.322 766.363 414.929 769.355 418.29C772.984 426.03 770.832 432.139 767.249 442.929C782.835 437.713 789.7 432.954 796.38 419.018L794.2 395.357L822.238 374.437C822.074 361.162 828.246 346.389 821.818 340.444C815.39 334.5 796.63 362.863 796.63 362.863C792.514 359.06 791.231 355.924 798.629 340.842L817.62 330.434C820.077 324.122 821.361 319.341 823.177 304.489Z" fill="#E82626" stroke="black" stroke-width="3"/>
<path d="M611.987 591.805C621.664 583.75 626.529 582.134 634.513 582.827C642.82 584.939 637.023 598.866 633.121 615.859C627.563 625.911 622.63 627.744 612.483 628.19C604.263 637.427 604.014 642.699 605.598 652.144C608.834 652.114 613.836 648.148 627.405 635.328C629.822 643.247 632.756 671.449 619.812 670.142C606.869 668.834 603.174 676.891 597.103 685.526C600.349 691.902 600.383 697.458 597.016 711.115C578.201 730.109 572.158 731.761 565.267 726.943C563.856 719.152 562.738 715.018 569.875 701.132C564.672 696.513 552.523 706.537 529.891 725.729C538.632 706.309 540.87 699.222 536.265 698.847C552.471 680.657 558.552 678.146 567.15 679.415C574.732 671.454 574.211 667.829 569.988 661.947C563.578 659.643 558.356 660.179 544.284 666.473L548.819 632.794C560.984 625.279 571.236 612.012 579.971 613.551C588.705 615.09 572.597 645.893 572.597 645.893C578.187 646.881 581.704 646.065 591.603 631.676L591.251 611.029C595.725 605.499 599.411 601.756 611.987 591.805Z" fill="#2673E8" stroke="black" stroke-width="3"/>
<path d="M648.549 422.48C650.655 410.523 649.54 405.671 644.722 399.304C638.467 393.342 629.076 404.844 615.949 416.217C609.893 425.671 610.851 430.683 615.789 439.407C611.861 450.706 607.283 453.428 598.014 456.602C596.339 453.872 597.25 447.786 601.565 430.292C593.221 432.04 566.487 443.021 574.462 453.256C582.437 463.491 577.184 470.431 572.664 479.639C565.261 479.956 560.281 482.576 549.853 491.91C542.782 516.748 544.485 522.604 552.412 526.088C560.113 523.559 564.394 522.526 573.044 509.92C579.906 512.083 577.342 527.053 572.102 555.187C584.851 538.597 590.004 533.341 592.761 537.026C595.975 545.298 593.688 551.497 589.86 562.457C605.029 558.073 611.798 553.588 618.715 539.567L617.461 514.867L645.159 495.009C645.473 481.222 651.932 466.298 645.964 459.704C639.996 453.11 620.952 481.306 620.952 481.306C617.131 477.088 616.009 473.748 623.657 458.585L642.284 449.038C644.87 442.65 646.275 437.773 648.549 422.48Z" fill="#41E826" stroke="black" stroke-width="3"/>
<path d="M726.625 457.249C724.917 449.876 726.828 444.337 733.772 432.732C742.58 419.61 753.961 417.178 770.293 409.808C777.449 409.961 775.731 415.431 768.416 429.183C772.593 433.644 778.401 430.022 790.371 420.717C792.831 416.247 792.174 412.286 788.045 403.093C798.92 393.78 821.813 387.439 821.813 387.439C828.689 392.458 829.469 397.093 824.622 409.072C810.862 410.483 798.836 418.132 789.099 430.27C783.292 437.654 784.483 440.935 790.186 446.099C803.934 432.918 810.425 429.299 818.585 433.451C823.779 440.959 833.399 448.614 815.755 470.455C800.391 472.932 794.051 475.157 790.074 481.833C785.08 492.973 787.545 495.25 791.62 499.554C771.958 515.467 763.412 520.432 755.528 517.538L759.411 495.06L719.167 525.489C719.993 514.253 718.207 498.621 726.692 485.337C735.176 472.052 742.111 482.391 742.111 482.391C747.543 473.887 757.48 458.558 748.734 455.643L732.517 471.573C729.673 469.523 728.255 467.221 726.625 457.249Z" fill="#41E826" stroke="black" stroke-width="3"/>
<path d="M662.942 329.386C666.339 317.594 665.753 312.696 661.638 306.071C656.046 299.767 645.433 310.68 631.108 321.249C624.044 330.316 624.456 335.365 628.435 344.345C623.293 355.374 618.432 357.819 608.843 360.443C607.469 357.626 609.038 351.614 615.237 334.435C606.726 335.691 578.873 345.077 585.717 355.739C592.562 366.4 586.571 373.01 581.064 381.921C573.647 381.806 568.396 384.127 556.985 392.82C547.24 417.156 548.303 423.09 555.832 427.023C563.787 424.951 568.168 424.171 578.161 412.114C584.77 414.668 580.59 429.434 572.315 457.161C586.828 441.373 592.538 436.436 594.887 440.268C597.196 448.697 594.244 454.74 589.237 465.438C604.841 461.952 612.078 457.877 620.497 444.31L621.923 419.627L651.7 401.453C653.508 387.734 661.567 373.24 656.329 366.323C651.092 359.407 629.043 386.392 629.043 386.392C625.689 381.966 624.933 378.574 634.203 363.911L653.815 355.482C657.087 349.268 659.017 344.49 662.942 329.386Z" fill="#2673E8" stroke="black" stroke-width="3"/>
<path d="M807.929 220.63C816.147 214.516 820.121 213.706 826.423 215.489C832.889 218.638 827.372 230.767 823.161 246.019C818.087 254.578 814.046 255.579 805.95 254.547C798.812 261.969 798.27 266.837 798.913 275.85C801.488 276.283 805.724 273.307 817.347 263.316C818.752 271.026 819.245 297.68 809.04 294.619C798.835 291.557 795.372 298.525 789.982 305.692C792.147 312.087 791.811 317.26 788.243 329.484C772.046 344.472 767.134 345.147 761.971 339.682C761.356 332.234 760.737 328.229 767.317 316.329C763.482 311.291 753.169 318.883 733.925 333.51C742.141 316.691 744.383 310.417 740.746 309.412C733.546 309.68 729.673 313.863 722.755 321.077C721.1 306.622 722.244 299.256 730.439 288.314L749.233 280.439L755.035 249.755C765.197 244.499 774.213 233.619 781.057 236.295C787.9 238.972 773.085 265.331 773.085 265.331C777.464 267.046 780.314 266.789 789.122 254.814L790.19 235.557C794.106 231.051 797.282 228.094 807.929 220.63Z" fill="#41E826" stroke="black" stroke-width="3"/>
<path d="M666.504 571.341C656.73 580.419 651.513 582.854 642.538 583.925C633.027 583.821 637.753 570.422 639.989 554.738C644.93 544.778 650.195 542.139 661.437 539.619C669.443 529.812 669.066 525.149 666.131 517.219C662.532 517.925 657.454 522.445 643.936 536.507C640.263 530.088 633.497 506.035 648.07 504.461C662.644 502.887 665.759 495.064 671.446 486.236C667.041 481.34 666.314 476.487 668.369 463.834C686.96 443.268 693.483 440.554 701.754 443.322C704.292 449.84 706.05 453.222 699.826 466.867C706.192 469.815 718.476 458.495 741.293 436.956C733.971 455.778 732.358 462.448 737.532 461.808C747.259 458.488 751.568 453.025 759.323 443.501C764.879 455.953 765.008 463.147 756.37 476.61L732.621 491.811L731.751 522.223C719.138 531.351 709.37 545.109 699.454 545.596C689.538 546.084 703.65 515.757 703.65 515.757C697.304 516.067 693.489 517.519 684.254 532.185L687.207 550.172C682.912 555.947 679.272 559.996 666.504 571.341Z" fill="#EDFF7C" stroke="black" stroke-width="3"/>
<path d="M725.621 259.212C735.13 250.574 740.075 248.559 748.415 248.452C757.185 249.672 752.1 263.551 749.189 280.182C744.092 290.332 739.091 292.561 728.581 293.965C720.664 303.593 720.76 308.659 723.04 317.541C726.399 317.2 731.328 312.925 744.561 299.355C747.603 306.696 752.547 333.389 739.014 333.386C725.482 333.383 722.185 341.445 716.46 350.29C720.26 356.076 720.669 361.387 718.089 374.774C699.823 394.756 693.657 396.918 686.176 392.974C684.186 385.659 682.747 381.812 689.227 367.842C683.513 363.926 671.566 374.685 649.348 395.223C657.122 375.805 658.971 368.811 654.162 368.897C645.008 371.339 640.737 376.72 633.067 386.074C628.613 372.016 628.883 364.254 637.581 350.76L660.316 337.158L662.762 304.507C674.894 296.146 684.65 282.468 693.826 283.098C703.002 283.728 688.341 314.744 688.341 314.744C694.214 315.15 697.813 314.031 707.127 299.312L705.374 279.598C709.649 273.878 713.227 269.942 725.621 259.212Z" fill="#EDFF7C" stroke="black" stroke-width="3"/>
<path d="M309.31 430.077C302.238 431.139 297.642 434.835 288.672 445.246C278.744 457.886 279.092 469.074 276.07 486.503C277.814 492.942 282.391 489.446 293.225 477.937C298.209 480.147 296.227 486.699 290.471 500.857C286.968 504.672 283.228 505.479 273.962 504.989C267.953 518.155 252.715 558.291 267.337 541.173C281.959 524.055 282.532 530.12 285.438 534.107C279.187 546.258 276.777 553.515 274.6 567.247C286.926 569.511 292.786 564.459 302.332 549.99C307.194 538.187 310.176 531.484 308.354 521.946C315.98 509.747 324.898 508.296 341.288 506.269C340.088 491.452 340.684 484.911 345.848 478.938C354.833 470.461 357.453 471.891 362.272 474.064C372.295 450.587 374.882 441.074 370.488 434.946L350.968 446.431L360.43 408.078C350.423 412.807 344.953 407.783 334.805 420.188C324.658 432.592 328.998 453.423 328.998 453.423C322.503 461.365 319.029 464.495 314.423 457.592L323.626 430.349C321.129 428.495 318.722 428.023 309.31 430.077Z" fill="#E82626" stroke="black" stroke-width="3"/>
<path d="M417.907 753.764C426.235 751.436 431.676 747.363 442.327 736.689C454.125 723.923 453.823 714.463 457.543 699.009C455.553 693.876 450.137 697.774 437.283 709.758C431.442 708.88 433.836 702.9 440.741 689.681C444.898 685.726 449.306 684.286 460.2 682.838C467.393 670.414 485.7 633.159 468.338 650.683C450.976 668.207 450.36 663.157 446.98 660.345C454.448 648.737 457.352 642.07 460.044 629.935C445.567 630.488 438.626 635.971 427.26 650.217C421.429 661.25 417.858 667.56 419.909 675.318C410.823 687.243 400.32 690.274 381.022 695.3C382.292 707.68 381.529 713.372 375.397 719.499C364.748 728.528 361.681 727.838 356.033 726.957C344.019 748.973 340.885 757.597 345.996 761.932L369.065 748.219L357.569 782.793C369.384 776.751 375.77 779.929 387.825 767.32C399.879 754.711 394.973 737.841 394.973 737.841C402.688 729.769 406.804 726.403 412.156 731.356L401.071 756.414C403.991 757.491 406.817 757.408 417.907 753.764Z" fill="#E82626" stroke="black" stroke-width="3"/>
<path d="M366.547 656.967C374.526 654.165 379.524 649.746 389.081 638.358C399.588 624.789 398.495 615.211 400.846 599.341C398.461 594.24 393.471 598.481 381.863 611.314C376.054 610.732 377.901 604.541 383.567 590.77C387.315 586.539 391.52 584.845 402.092 582.801C408.108 569.821 422.942 531.071 407.374 549.761C391.806 568.451 390.776 563.362 387.221 560.69C393.575 548.522 395.865 541.607 397.485 529.158C383.321 530.484 376.969 536.412 367.011 551.461C362.214 562.958 359.24 569.546 361.908 577.305C353.992 589.88 343.936 593.509 325.416 599.627C327.704 612.115 327.434 617.927 321.931 624.465C312.237 634.186 309.168 633.648 303.55 633.053C293.61 656.015 291.26 664.927 296.642 669.053L318.133 653.927L309.759 689.598C320.849 682.845 327.385 685.73 338.157 672.305C348.929 658.881 342.693 642.031 342.693 642.031C349.587 633.437 353.343 629.806 359.014 634.546L350.242 660.544C353.199 661.482 355.967 661.248 366.547 656.967Z" fill="#E82626" stroke="black" stroke-width="3"/>
<path d="M364.872 499.74C356.467 507.283 352.384 508.418 345.882 506.627C339.199 503.244 344.771 488.787 348.97 470.736C354.118 460.479 358.269 459.117 366.611 459.945C373.892 450.923 374.407 445.199 373.666 434.679C371.012 434.293 366.679 437.976 354.802 450.216C353.289 441.256 352.547 410.079 363.077 413.184C373.608 416.289 377.112 407.97 382.596 399.327C380.312 391.944 380.612 385.873 384.176 371.396C400.715 353.092 405.765 352.071 411.129 358.226C411.826 366.915 412.499 371.575 405.831 385.814C409.822 391.531 420.371 382.159 440.05 364.134C431.741 384.208 429.489 391.657 433.241 392.663C440.65 392.012 444.6 386.934 451.657 378.164C453.487 395.007 452.374 403.683 444.036 416.876L424.761 426.976L419.058 463.166C408.645 469.796 399.461 482.955 392.394 480.143C385.326 477.331 400.343 445.78 400.343 445.78C395.821 443.978 392.89 444.413 383.929 458.844L383 481.436C379.008 486.894 375.765 490.504 364.872 499.74Z" fill="#41E826" stroke="black" stroke-width="3"/>
<path d="M333.152 504.531C337.491 492.462 337.601 487.257 334.935 479.898C330.977 472.735 320.633 483.188 307.186 492.922C300.077 501.775 299.8 507.122 302.06 516.944C296.336 528.044 291.915 530.147 283.465 531.984C282.649 528.892 284.723 522.723 292.104 505.26C284.737 505.763 259.973 512.957 264.452 524.82C268.931 536.684 263.036 543.057 257.266 551.896C250.995 551.063 246.259 552.999 235.512 561.042C224.241 585.687 224.406 592.027 230.299 596.883C237.296 595.469 241.105 595.069 251.066 583.355C256.349 586.674 250.979 601.795 240.532 630.145C254.786 614.943 260.235 610.301 261.751 614.555C262.663 623.637 259.413 629.705 253.846 640.47C267.499 638.304 274.136 634.715 282.951 621.261L287.217 595.453L314.699 579.206C317.93 564.959 326.554 550.497 322.973 542.724C319.392 534.95 297.367 561.2 297.367 561.2C295.073 556.226 294.852 552.588 304.524 538.064L322.186 531.087C325.728 524.869 327.955 520.032 333.152 504.531Z" fill="#2673E8" stroke="black" stroke-width="3"/>
<path d="M454.737 591.062C462.953 587.572 467.948 582.863 477.333 571.076C487.591 557.122 485.9 548.166 487.467 532.889C484.675 528.308 479.678 532.848 468.222 546.219C462.093 546.277 460.415 539.974 470.121 529.061C479.827 518.148 476.855 519.154 487.838 517.094L474.02 494.03L445.348 516.102C437.754 528.841 427.405 533.333 408.314 541.069C411.424 552.656 411.47 558.189 406.065 564.958C396.442 575.181 393.19 574.994 387.26 575.019C378.129 597.809 376.168 606.496 382.051 609.839L403.75 593.26L396.984 627.921C408.241 620.363 415.265 622.41 425.809 608.566C436.353 594.722 428.852 579.418 428.852 579.418C435.601 570.556 439.338 566.723 445.559 570.617L437.826 596.16C440.983 596.738 443.875 596.227 454.737 591.062Z" fill="#2673E8" stroke="black" stroke-width="3"/>
<path d="M341.649 799.169C349.865 795.679 349.483 789.785 358.868 777.997C369.126 764.043 370.563 764.711 372.13 749.434C369.337 744.854 366.591 740.955 355.134 754.326C349.005 754.384 342.398 749.897 352.104 738.983C361.81 728.07 366.106 725.202 377.049 724.901L360.933 702.137L332.261 724.209C324.666 736.948 314.317 741.44 295.226 749.176C298.336 760.763 298.382 766.296 292.978 773.066C283.354 783.288 280.102 783.101 274.172 783.127C265.041 805.916 263.08 814.603 268.963 817.946L290.662 801.367L283.896 836.029C295.153 828.47 302.177 830.517 312.721 816.673C323.266 802.83 315.765 787.525 315.765 787.525C322.513 778.663 326.25 774.83 332.471 778.725L324.739 804.268C327.896 804.846 330.787 804.334 341.649 799.169Z" fill="#41E826" stroke="black" stroke-width="3"/>
<path d="M251.054 860.553C259.69 857.539 265.153 853.17 275.657 842.082C287.227 828.914 286.244 820.053 289.09 805.159C286.627 800.532 281.177 804.734 268.438 817.272C262.204 817.026 264.314 811.168 270.683 798.06C274.797 793.93 279.353 792.139 290.762 789.697C297.49 777.307 314.217 740.476 297.103 758.669C279.989 776.862 278.983 772.176 275.215 769.869C282.291 758.218 284.892 751.664 286.884 739.992C271.626 741.948 264.678 747.79 253.668 762.307C248.281 773.254 244.951 779.539 247.663 786.627C238.9 798.736 228.015 802.627 207.978 809.266C210.188 820.775 209.781 826.2 203.733 832.567C193.115 842.11 189.826 841.765 183.797 841.498C172.648 863.381 169.942 871.797 175.646 875.364L199.059 860.188L189.338 893.823C201.399 886.971 208.369 889.324 220.221 876.278C232.072 863.232 225.704 847.863 225.704 847.863C233.29 839.511 237.402 835.939 243.405 840.063L233.451 864.714C236.612 865.436 239.592 865.078 251.054 860.553Z" fill="#2673E8" stroke="black" stroke-width="3"/>
<path d="M435.621 457.193C426.779 463.937 422.774 464.588 416.807 461.89C410.849 457.517 417.792 443.231 423.843 425.037C429.902 415.056 433.998 414.178 441.822 416.113C449.765 407.688 450.908 401.814 451.408 390.8C448.933 390.057 444.398 393.319 431.725 404.492C431.313 394.997 434.174 362.542 443.815 367.123C453.456 371.705 457.733 363.523 463.927 355.26C462.603 347.301 463.583 341.039 468.622 326.473C486.415 309.609 491.325 309.201 495.713 316.281C495.381 325.39 495.487 330.313 487.529 344.231C490.664 350.681 501.749 342.315 522.491 326.145C512.308 345.908 509.318 353.349 512.765 354.877C519.872 355.157 524.202 350.397 531.904 342.205C531.715 359.923 529.667 368.784 520.242 381.402L500.791 389.397L491.239 426.223C480.597 431.761 470.374 444.234 463.986 440.403C457.599 436.573 475.462 405.764 475.462 405.764C471.375 403.31 468.543 403.383 458.387 417.205L454.921 440.533C450.508 445.683 447.017 449.012 435.621 457.193Z" fill="#EDFF7C" stroke="black" stroke-width="3"/>
<path d="M405.277 690.419C395.967 698.011 391.61 699.28 384.907 697.862C378.119 694.929 384.91 680.854 390.497 663.403C396.568 653.363 401.011 651.873 409.707 652.288C417.935 643.331 418.849 637.834 418.761 627.809C416.003 627.56 411.216 631.277 397.958 643.519C396.957 635.019 398.22 605.241 409.062 607.734C419.905 610.227 424.124 602.114 430.442 593.602C428.53 586.645 429.242 580.826 433.929 566.822C452.476 548.572 457.839 547.367 463.062 553.01C463.225 561.287 463.625 565.713 455.699 579.629C459.511 584.916 471.189 575.478 493.011 557.352C482.981 576.923 480.131 584.148 484.001 584.939C491.814 583.982 496.289 578.948 504.266 570.243C505.083 586.266 503.347 594.612 493.737 607.604L472.859 618.133L464.508 652.996C453.151 659.806 442.656 672.804 435.427 670.435C428.198 668.066 446.016 637.218 446.016 637.218C441.39 635.699 438.288 636.247 427.944 650.451L425.489 672.096C420.945 677.495 417.308 681.094 405.277 690.419Z" fill="#EDFF7C" stroke="black" stroke-width="3"/>
<path d="M229.821 660.377C228.975 652.149 230.725 646.042 236.587 633.311C243.929 618.94 252.571 616.502 265.198 608.693C270.532 609.027 268.931 615.063 262.667 630.168C265.526 635.219 270.074 631.331 279.556 621.271C281.654 616.363 281.394 611.949 278.846 601.644C287.511 591.551 314.645 564.248 304.977 585.035C295.309 605.822 300.083 604.933 303.815 607.195C311.646 597.086 316.633 592.538 326.629 586.615C331.252 599.916 328.761 607.79 319.929 622.193C312.039 630.651 307.609 635.702 299.885 636.065C292.34 647.733 293.321 658.138 295.614 677.098C283.996 679.496 279.131 681.821 275.773 689.144C271.394 701.401 273.102 703.988 275.894 708.862C260.283 726.083 253.611 731.4 247.892 728.004L252.102 703.128L224.977 723.48C226.249 711.02 221.122 706.134 228.233 691.575C235.344 677.016 252.3 676.632 252.3 676.632C256.852 667.313 258.433 662.611 252.071 659.173L233.386 676.422C231.382 674.08 230.457 671.49 229.821 660.377Z" fill="#EDFF7C" stroke="black" stroke-width="3"/>
</svg>
