<svg width="254" height="254" viewBox="0 0 254 254" fill="none" xmlns="http://www.w3.org/2000/svg">
<path d="M124.988 251.701C55.9591 250.748 0.77217 194.017 1.72469 124.988V124.988C2.67721 55.959 59.4085 0.772056 128.437 1.72458V1.72458C197.466 2.6771 252.653 59.4083 251.701 128.437V128.437C250.748 197.466 194.017 252.653 124.988 251.701V251.701Z" fill="#00D8FF"/>
<path d="M112.678 103.115V146.751V177H92.9558V146.474V103.545H61V78.1697H139.443V82.6967C144.272 79.1055 150.651 77 158.193 77C170.73 77 179.726 81.4513 186.226 93.0669L170.874 103.115C167.492 96.9415 163.832 94.5047 158.193 94.5047C152.419 94.5047 148.75 98.233 148.75 103.115C148.75 109.142 152.411 111.579 160.865 115.299L165.793 117.452C182.541 124.762 192 132.227 192 149.017C192 167.098 178.051 177 159.302 177C140.963 177 129.161 168.069 123.417 156.49L139.443 147.035C143.67 154.069 149.165 159.219 158.887 159.219C167.061 159.219 172.269 155.06 172.269 149.317C172.269 142.429 166.918 139.992 157.914 135.972L152.985 133.819C138.757 127.654 129.315 119.905 129.315 103.545C129.315 103.402 129.316 103.258 129.318 103.115H112.678Z" fill="black"/>
</svg>
