<svg width="254" height="254" viewBox="0 0 254 254" fill="none" xmlns="http://www.w3.org/2000/svg">
<path d="M124.988 251.701C55.9591 250.748 0.77217 194.017 1.72469 124.988C2.67721 55.959 59.4085 0.772056 128.437 1.72458C197.466 2.6771 252.653 59.4083 251.701 128.437C250.748 197.466 194.017 252.653 124.988 251.701Z" fill="#00D8FF"/>
<path d="M211 108.204H182.843C182.884 104.596 182.566 102.699 180.545 99.8666C175.967 93.4535 166.179 97.3015 166.179 97.3015C166.179 97.3015 162.569 99.1421 161.582 107.563C164.005 111.826 168.176 114.527 177.097 116.542C184.874 117.405 188.974 118.606 195.485 122.955C202.884 126.628 206.426 130.625 209.276 138.988C211.847 148.929 209.22 154.296 208.127 159.511C202.265 167.514 200.066 169.147 187.44 175.545C179.514 178.33 176.639 178.728 162.157 176.827C149.318 172.286 145.128 171.782 139.746 162.935C134.051 153.587 134.038 151.174 134 144.171L134 144.119H158.709C159.858 149.891 158.134 146.684 161.007 153.098C168.856 159.034 171.782 158.583 177.672 156.304C183.461 153.267 184.637 150.997 182.843 143.478C176.522 137.064 166.179 137.705 157.56 134.499C148.94 131.292 144.276 129.159 138.022 118.465C136.159 109.617 136.048 104.442 138.022 94.736C143.996 84.1411 148.702 80.0674 160.433 77.4199C171.659 74.8833 177.011 76.1521 187.44 78.0615C198.631 82.8111 202.088 86.0135 207.552 94.7362L211 108.204Z" fill="white" stroke="black"/>
<path d="M129 76H43V105.5H72.5V178H98.5V105.5H129V76Z" fill="white" stroke="black"/>
</svg>
