<svg width="700" height="700" viewBox="0 0 700 700" fill="none" xmlns="http://www.w3.org/2000/svg">
<rect width="700" height="700" rx="350" fill="#F5AA38"/>
<path d="M406.427 188.064L412.567 159L428.532 185.794L454.322 183.523L436.31 205.776L446.135 233.932L420.754 223.033L398.24 239.835L401.515 210.771L379 193.968L406.427 188.064Z" fill="#EE1515" stroke="#E71515"/>
<path d="M442.427 458.064L448.567 429L464.532 455.794L490.322 453.523L472.31 475.776L482.135 503.932L456.754 493.033L434.24 509.835L437.515 480.771L415 463.968L442.427 458.064Z" fill="#EE1515" stroke="#E71515"/>
<path d="M432.427 322.064L438.567 293L454.532 319.794L480.322 317.523L462.31 339.776L472.135 367.932L446.754 357.033L424.24 373.835L427.515 344.771L405 327.968L432.427 322.064Z" fill="#EE1515" stroke="#E71515"/>
<path d="M230.427 338.064L236.567 309L252.532 335.794L278.322 333.523L260.31 355.776L270.135 383.932L244.754 373.033L222.24 389.835L225.515 360.771L203 343.968L230.427 338.064Z" fill="#EE1515" stroke="#E71515"/>
<path d="M267.427 478.064L273.567 449L289.532 475.794L315.322 473.523L297.31 495.776L307.135 523.932L281.754 513.033L259.24 529.835L262.515 500.771L240 483.968L267.427 478.064Z" fill="#EE1515" stroke="#E71515"/>
<ellipse cx="120.171" cy="278.045" rx="50.5" ry="68.5" transform="rotate(38.5184 120.171 278.045)" fill="url(#paint0_linear)"/>
<ellipse cx="261.105" cy="139.481" rx="116" ry="55" transform="rotate(-29.1069 261.105 139.481)" fill="url(#paint1_linear)"/>
<ellipse cx="512.475" cy="229.304" rx="47" ry="113" transform="rotate(-12.0044 512.475 229.304)" fill="url(#paint2_linear)"/>
<ellipse cx="451.558" cy="562.373" rx="76.5736" ry="36.2024" transform="rotate(-34.7233 451.558 562.373)" fill="url(#paint3_linear)"/>
<ellipse cx="558.114" cy="488.789" rx="34" ry="47.3009" transform="rotate(34.0574 558.114 488.789)" fill="url(#paint4_linear)"/>
<path d="M229.427 206.064L235.567 177L251.532 203.794L277.322 201.523L259.31 223.776L269.135 251.932L243.754 241.033L221.24 257.835L224.515 228.771L202 211.968L229.427 206.064Z" fill="#EE1515" stroke="#E71515"/>
<defs>
<linearGradient id="paint0_linear" x1="120.171" y1="209.545" x2="120.171" y2="346.545" gradientUnits="userSpaceOnUse">
<stop stop-color="#FCF9F9"/>
<stop offset="1" stop-color="#F5AA38"/>
</linearGradient>
<linearGradient id="paint1_linear" x1="261.105" y1="84.4814" x2="261.105" y2="194.481" gradientUnits="userSpaceOnUse">
<stop stop-color="#EEEAEA"/>
<stop offset="1" stop-color="#F5AA38"/>
</linearGradient>
<linearGradient id="paint2_linear" x1="365.444" y1="254.981" x2="612.886" y2="269.258" gradientUnits="userSpaceOnUse">
<stop offset="0.442708" stop-color="#F5AA38"/>
<stop offset="1" stop-color="#FCF9F9"/>
</linearGradient>
<linearGradient id="paint3_linear" x1="451.558" y1="526.17" x2="451.558" y2="598.575" gradientUnits="userSpaceOnUse">
<stop stop-color="#F5AA38"/>
<stop offset="1" stop-color="#FCF9F9"/>
</linearGradient>
<linearGradient id="paint4_linear" x1="558.114" y1="441.488" x2="558.114" y2="536.09" gradientUnits="userSpaceOnUse">
<stop stop-color="#F5AA38"/>
<stop offset="1" stop-color="#FCF9F9"/>
</linearGradient>
</defs>
</svg>
