<svg width="255" height="254" viewBox="0 0 255 254" fill="none" xmlns="http://www.w3.org/2000/svg">
<path d="M125.961 251.802C56.9322 250.85 1.74525 194.118 2.69777 125.089V125.089C3.65029 56.0604 60.3815 0.873497 129.411 1.82602V1.82602C198.44 2.77854 253.626 59.5098 252.674 128.539V128.539C251.721 197.568 194.99 252.755 125.961 251.802V251.802Z" fill="#F7DF1E"/>
<path d="M53 159.647L70.4141 149.748C73.7776 155.343 76.8298 160.077 84.1621 160.077C91.1917 160.077 95.6187 157.495 95.6187 147.458V79.1694H117.002V147.734C117.002 168.531 104.032 178 85.0786 178C67.9758 178 58.0495 169.676 53.0086 159.639L53 159.647ZM128.614 157.487L146.019 148.018C150.602 155.051 156.559 160.199 167.1 160.199C175.962 160.199 181.608 156.041 181.608 150.3C181.608 143.413 175.807 140.977 166.045 136.957L160.701 134.805C145.276 128.642 135.038 120.894 135.038 104.539C135.038 89.4748 147.256 78 166.347 78C179.94 78 189.693 82.4502 196.74 94.063L180.095 104.108C176.429 97.9367 172.46 95.5004 166.347 95.5004C160.087 95.5004 156.11 99.2279 156.11 104.108C156.11 110.134 160.079 112.57 169.244 116.29L174.588 118.442C192.745 125.751 203 133.214 203 149.999C203 168.076 187.877 177.976 167.549 177.976C147.662 177.976 134.865 169.043 128.64 157.462" fill="black"/>
</svg>
